<?xml version="1.0" encoding="utf-8"?>
<!-- Generator: Adobe Illustrator 18.1.0, SVG Export Plug-In . SVG Version: 6.00 Build 0)  -->
<!DOCTYPE svg PUBLIC "-//W3C//DTD SVG 1.1//EN" "http://www.w3.org/Graphics/SVG/1.1/DTD/svg11.dtd">
<svg version="1.1" id="Layer_1" xmlns="http://www.w3.org/2000/svg" xmlns:xlink="http://www.w3.org/1999/xlink" x="0px" y="0px"
	 width="320px" height="200px" viewBox="0 0 320 200" enable-background="new 0 0 320 200" xml:space="preserve">
<path fill="#7DEDF9" d="M181.3,134c10.8-6.4,31.5,2.8,50.6,0c19.1-2.8,39.8,23.1,64.7,23.5c25,0.3,26.6,28.3-5.6,36.1
	c-32.2,7.9-40.4-12.5-74.9-8.9c-34.5,3.6-38.9-21-67.2-17.7c-28.4,3.3-36.9-8.5-23.4-18.6S164.2,144.1,181.3,134z"/>
<g>
	<path fill="#009245" d="M101.4,43.7c0,0-12.1,16.2-24.2,32.4C65.1,92.3,53,108.5,53,108.5c-0.3,0.4-0.9,0.5-1.3,0.2
		c-0.4-0.3-0.5-0.9-0.2-1.3c0,0,12-16.3,24.1-32.5c12.1-16.2,24.1-32.5,24.1-32.5c0.4-0.5,1-0.6,1.5-0.2
		C101.7,42.5,101.8,43.2,101.4,43.7L101.4,43.7z"/>
</g>
<g>
	<path fill="#009245" d="M239.3,116c0,0-0.3-0.1-0.8-0.4c-0.5-0.3-1.3-0.7-2.2-1.2c-1.9-1-4.5-2.6-7.5-4.7c-3-2.1-6.4-4.7-9.8-7.9
		c-1.7-1.6-3.4-3.3-5-5.2c-0.8-0.9-1.6-1.9-2.3-2.9l-1.1-1.6l-1-1.5c-1.3-2-2.6-4.2-3.8-6.2c-1.2-2.1-2.4-4.1-3.4-6.2
		c-2.2-4-4-7.8-5.6-11.1c-1.6-3.3-2.8-6.1-3.7-8c-0.9-2-1.3-3.1-1.3-3.1c-0.7-1.5,0-3.3,1.6-3.9s3.3,0,3.9,1.6c0,0,0,0.1,0,0.1
		l0,0.1c0,0,0.4,1.1,1.2,3c0.8,1.9,1.9,4.7,3.3,8c1.4,3.3,3.1,7.1,5,11.1c1,2,2,4.1,3.1,6.1c1.1,2.1,2.2,4.1,3.4,6.2l0.9,1.6
		l0.9,1.4c0.6,1,1.3,1.9,2,2.8c1.4,1.8,2.9,3.5,4.4,5.1c3,3.2,6.2,5.9,9,8.1c2.8,2.2,5.3,3.9,7,5c0.9,0.6,1.6,1,2,1.3
		c0.5,0.3,0.7,0.4,0.7,0.4l0,0c0.5,0.3,0.7,1,0.4,1.5C240.5,116.1,239.8,116.3,239.3,116z"/>
</g>
<g>
	<g opacity="0.25">
		<path fill="#231F20" d="M44.3,95.3l10,0.5c1.7,0,3-1.1,3-2.3v0c0-1.3-1.3-2.3-3-2.3l-10,0.5c-1.3,0-2.4,0.8-2.4,1.9l0,0
			C41.9,94.5,42.9,95.3,44.3,95.3z"/>
		<path fill="#231F20" d="M130.5,112.4l10.7,0.5c1.8,0,3.2-1.1,3.2-2.5v0c0-1.4-1.4-2.5-3.2-2.5l-10.7,0.5c-1.4,0-2.6,0.9-2.6,2v0
			C128,111.5,129.1,112.4,130.5,112.4z"/>
		<path fill="none" stroke="#231F20" stroke-linecap="round" stroke-miterlimit="10" d="M192.6,23.6c0,0,8.8,8.6,12,22.3
			c3.2,13.8-1,27.4-1,27.4"/>
		<path fill="#231F20" d="M192.6,58.2c0,0,0-0.5-0.1-1.3c-0.1-0.8-0.2-2-0.4-3.4c-0.4-2.8-0.9-6.6-1.9-10.3c-0.3-1-0.5-1.9-0.7-3
			c-0.2-1-0.3-2-0.3-3c-0.1-1.9,0-3.7,0.1-5.2c0.2-1.5,0.4-2.8,0.5-3.6c0.1-0.4,0.2-0.8,0.2-1c0.1-0.2,0.1-0.4,0.1-0.4
			c0.2-0.8,1-1.3,1.8-1.1c0.8,0.2,1.2,1,1.1,1.7l0,0.1c0,0,0,0.1-0.1,0.3c0,0.2-0.1,0.5-0.2,0.9c-0.1,0.8-0.3,2-0.4,3.4
			c-0.1,1.4-0.1,3,0,4.7c0.1,0.8,0.2,1.7,0.4,2.6c0.1,0.8,0.4,1.8,0.7,2.7c1.2,3.9,1.9,7.7,2.4,10.7c0.2,1.5,0.4,2.7,0.5,3.6
			c0.1,0.9,0.2,1.4,0.2,1.4c0.1,1.1-0.6,2.1-1.7,2.2c-1.1,0.1-2.1-0.6-2.2-1.7C192.6,58.3,192.6,58.3,192.6,58.2L192.6,58.2z"/>
		<path fill="#231F20" d="M89.1,19c0,0,0,0.1,0,0.3c0,0.2,0,0.5,0,0.8c0,0.7,0,1.8,0.1,3c0.2,2.5,0.8,5.8,1.9,9
			c0.1,0.3,0.3,0.8,0.5,1.2c0.2,0.4,0.3,0.7,0.5,1.1c0.3,0.7,0.7,1.4,1.1,2.1c0.8,1.3,1.6,2.5,2.4,3.5c0.8,1,1.5,1.7,2,2.2
			c0.3,0.3,0.5,0.4,0.6,0.6c0.1,0.1,0.2,0.2,0.2,0.2l0,0c0.8,0.7,0.9,2,0.2,2.8s-2,0.9-2.8,0.2c-0.1-0.1-0.2-0.2-0.2-0.2
			c0,0-0.1-0.1-0.2-0.3c-0.1-0.2-0.3-0.4-0.6-0.7c-0.2-0.3-0.5-0.7-0.9-1.2c-0.3-0.5-0.7-1-1-1.5c-0.8-1.1-1.6-2.5-2.3-4
			c-0.4-0.8-0.8-1.5-1.1-2.4c-0.2-0.4-0.4-0.9-0.5-1.3c-0.2-0.4-0.3-0.8-0.5-1.3c-0.3-0.9-0.6-1.7-0.8-2.5c-0.2-0.8-0.5-1.7-0.7-2.5
			c-0.2-0.8-0.4-1.6-0.5-2.3c-0.1-0.8-0.3-1.5-0.4-2.1c-0.2-1.3-0.4-2.4-0.5-3.2c-0.1-0.8-0.2-1.3-0.2-1.3c-0.2-1.1,0.6-2.1,1.7-2.3
			c1.1-0.2,2.1,0.6,2.3,1.7C89.1,18.7,89.1,18.8,89.1,19L89.1,19z"/>
		<path fill="#231F20" d="M257,103.5c0,0-2.4,2.5-6.3,6.1c-1.9,1.8-4.2,3.8-6.6,6c-1.2,1.1-2.5,2.2-3.8,3.3
			c-1.3,1.1-2.6,2.3-3.9,3.4c-1.3,1.1-2.7,2.2-4,3.3c-1.3,1.1-2.6,2.2-3.9,3.2c-2.5,2.1-4.9,3.9-7,5.5c-4.1,3.2-7,5.2-7,5.2
			s2.4-2.5,6.3-6.1c1.9-1.8,4.2-3.8,6.6-6c1.2-1.1,2.5-2.2,3.8-3.3c1.3-1.1,2.6-2.3,3.9-3.4c1.3-1.1,2.7-2.2,4-3.3
			c1.3-1.1,2.6-2.2,3.9-3.2c2.5-2.1,4.9-3.9,7-5.5C254.1,105.5,257,103.5,257,103.5z"/>
		<path fill="#231F20" d="M242,155.8c0,0-0.3-1.1-0.7-2.9c-0.4-1.9-1.1-4.5-1.8-7.7c-0.7-3.2-1.5-6.9-2.3-10.9
			c-0.4-2-0.8-4.1-1.2-6.2c-0.4-2.1-0.8-4.3-1.2-6.4c-0.4-2.1-0.8-4.3-1.1-6.4c-0.4-2.1-0.7-4.2-1.1-6.2c-0.7-4-1.2-7.8-1.7-11.1
			c-0.5-3.2-0.8-6-1-7.8c-0.2-1.9-0.3-3-0.3-3s0.3,1.1,0.7,2.9c0.4,1.9,1.1,4.5,1.8,7.7c0.7,3.2,1.5,6.9,2.3,10.9
			c0.4,2,0.8,4.1,1.2,6.2c0.4,2.1,0.8,4.3,1.2,6.4c0.4,2.1,0.8,4.3,1.1,6.4c0.4,2.1,0.7,4.2,1,6.2c0.7,4,1.2,7.8,1.7,11.1
			c0.5,3.2,0.8,6,1.1,7.8C241.9,154.7,242,155.8,242,155.8z"/>
		<path fill="#231F20" d="M217.8,115.1c0,0,2.4,0.5,5.8,1.5c1.7,0.5,3.7,1.1,5.9,1.8c1.1,0.4,2.2,0.7,3.3,1.1
			c1.1,0.4,2.2,0.8,3.4,1.2c1.1,0.4,2.2,0.8,3.3,1.2c1.1,0.4,2.2,0.8,3.2,1.2c2.1,0.8,4,1.6,5.6,2.3c3.3,1.4,5.4,2.5,5.4,2.5
			s-2.4-0.5-5.8-1.5c-1.7-0.5-3.7-1.1-5.9-1.8c-1.1-0.4-2.2-0.7-3.3-1.1c-1.1-0.4-2.2-0.8-3.4-1.2c-1.1-0.4-2.2-0.8-3.3-1.2
			c-1.1-0.4-2.2-0.8-3.2-1.2c-2.1-0.8-4-1.6-5.6-2.3C219.9,116.2,217.8,115.1,217.8,115.1z"/>
		<path fill="#231F20" d="M28.7,93.5c0,0,3,1.8,7.3,4.7c2.2,1.5,4.7,3.2,7.3,5.1c1.3,1,2.7,1.9,4.1,2.9c1.4,1,2.8,2,4.2,3.1
			c1.4,1,2.8,2.1,4.1,3.1c1.4,1,2.7,2.1,4,3.1c2.6,2,5,3.9,7,5.6c4,3.3,6.6,5.6,6.6,5.6s-3-1.8-7.3-4.7c-2.2-1.5-4.7-3.2-7.3-5.1
			c-1.3-1-2.7-1.9-4.1-2.9c-1.4-1-2.8-2-4.2-3.1c-1.4-1-2.8-2.1-4.1-3.1c-1.4-1-2.7-2.1-4-3.1c-2.6-2-5-3.9-7-5.6
			C31.3,95.8,28.7,93.5,28.7,93.5z"/>
		<path fill="#231F20" d="M83.1,96.2c0,0-1,0.5-2.7,1.4c-1.7,0.8-4.1,2.1-7.1,3.5c-3,1.4-6.4,3-10.1,4.7c-1.9,0.8-3.8,1.7-5.8,2.6
			c-2,0.9-4,1.7-6,2.6c-2,0.9-4,1.7-6,2.6c-2,0.9-3.9,1.6-5.8,2.4c-3.8,1.6-7.3,3-10.4,4.2c-3,1.2-5.6,2.1-7.4,2.8
			c-1.8,0.7-2.8,1-2.8,1s1-0.5,2.7-1.4c1.7-0.8,4.1-2.1,7.1-3.5c3-1.4,6.4-3,10.1-4.7c1.9-0.8,3.8-1.7,5.8-2.6c2-0.9,4-1.7,6-2.6
			c2-0.9,4-1.7,6-2.6c2-0.8,3.9-1.6,5.8-2.4c3.8-1.6,7.3-3,10.4-4.2c3-1.2,5.6-2.1,7.4-2.8C82,96.5,83.1,96.2,83.1,96.2z"/>
		<path fill="#231F20" d="M48.8,129c0,0-0.1-2.4,0.1-6c0.1-1.8,0.2-3.9,0.4-6.1c0.1-1.1,0.2-2.3,0.3-3.4c0.1-1.2,0.2-2.4,0.4-3.5
			c0.1-1.2,0.3-2.4,0.4-3.5c0.1-1.2,0.3-2.3,0.5-3.4c0.3-2.2,0.7-4.3,1-6c0.6-3.5,1.3-5.8,1.3-5.8s0.1,2.4-0.1,6
			c-0.1,1.8-0.2,3.9-0.4,6.1c-0.1,1.1-0.2,2.3-0.3,3.4c-0.1,1.2-0.2,2.4-0.4,3.5c-0.1,1.2-0.3,2.4-0.4,3.5c-0.1,1.2-0.3,2.3-0.5,3.4
			c-0.3,2.2-0.7,4.3-1,6C49.5,126.6,48.8,129,48.8,129z"/>
		<circle fill="none" stroke="#231F20" stroke-width="4" stroke-miterlimit="10" cx="51" cy="110" r="42.6"/>
		<circle fill="none" stroke="#231F20" stroke-width="4" stroke-miterlimit="10" cx="235.8" cy="121.6" r="42.6"/>
		<circle fill="none" stroke="#231F20" stroke-width="4" stroke-miterlimit="10" cx="51" cy="110" r="45"/>
		<circle fill="none" stroke="#231F20" stroke-width="4" stroke-miterlimit="10" cx="235.8" cy="121.6" r="45"/>
		<path fill="#231F20" d="M232.6,124.1c0,0-0.3-0.2-0.7-0.5c-0.5-0.3-1.2-0.8-2-1.5c-1.7-1.3-4.1-3.2-6.8-5.7
			c-2.7-2.5-5.8-5.5-8.7-9.1c-1.5-1.8-2.9-3.7-4.2-5.8c-0.7-1-1.3-2.1-1.9-3.2l-0.9-1.7l-0.8-1.6c-1.1-2.2-2.1-4.4-3-6.6
			c-1-2.2-1.9-4.4-2.7-6.5c-1.7-4.2-3.2-8.2-4.5-11.6c-1.2-3.4-2.2-6.3-2.9-8.3c-0.7-2-1.1-3.2-1.1-3.2c-0.5-1.6,0.3-3.3,1.9-3.8
			c1.6-0.5,3.3,0.3,3.8,1.9c0,0,0,0.1,0,0.1l0,0.1c0,0,0.3,1.1,0.9,3.1c0.6,2,1.4,4.9,2.5,8.3c1.1,3.4,2.4,7.4,3.9,11.6
			c0.7,2.1,1.5,4.3,2.4,6.5c0.9,2.2,1.7,4.4,2.7,6.6l0.7,1.7l0.7,1.6c0.5,1,1,2.1,1.6,3c1.1,2,2.4,3.9,3.7,5.7
			c2.6,3.6,5.4,6.7,7.9,9.2c2.5,2.5,4.7,4.5,6.3,5.9c0.8,0.7,1.4,1.2,1.9,1.5c0.4,0.3,0.7,0.5,0.7,0.5l0,0c0.5,0.4,0.6,1.1,0.2,1.5
			C233.7,124.3,233.1,124.4,232.6,124.1z"/>
		
			<line fill="none" stroke="#231F20" stroke-width="5" stroke-linecap="round" stroke-linejoin="round" stroke-miterlimit="10" x1="201.7" y1="76.3" x2="137.3" y2="133.1"/>
		<path fill="#231F20" d="M49.9,107.8c0,0,0.6-0.3,1.6-0.7c1.1-0.5,2.6-1.1,4.6-2c2-0.8,4.4-1.8,7.2-2.9c2.8-1.1,5.9-2.3,9.4-3.5
			c1.7-0.6,3.5-1.2,5.4-1.9c0.9-0.3,1.9-0.6,2.9-1c1-0.3,2-0.6,3-0.9c2-0.6,4.1-1.2,6.2-1.8c2.1-0.6,4.3-1.2,6.5-1.7
			c4.4-1.1,9.1-2.1,13.8-2.9c2.4-0.4,4.8-0.7,7.2-1.1c1.2-0.2,2.4-0.3,3.5-0.5l3.4-0.6c9.3-1.9,18.4-5.1,26.6-8.6
			c8.3-3.5,15.8-7.3,22.1-10.8c6.3-3.5,11.4-6.6,15-8.9c1.8-1.1,3.1-2,4.1-2.7c0.9-0.6,1.4-1,1.4-1l0.1,0c1.1-0.8,2.7-0.5,3.5,0.7
			c0.8,1.1,0.5,2.7-0.7,3.5c0,0,0,0,0,0c0,0-0.5,0.3-1.5,1c-1,0.6-2.4,1.5-4.2,2.7c-3.6,2.3-8.9,5.4-15.3,8.8
			c-6.5,3.4-14.1,7.3-22.6,10.8c-8.5,3.5-17.8,6.7-27.5,8.7l-3.7,0.7c-1.2,0.2-2.4,0.3-3.6,0.5c-2.4,0.3-4.7,0.6-7,1
			c-4.6,0.8-9.2,1.7-13.6,2.8c-2.2,0.6-4.3,1.1-6.4,1.7c-2.1,0.6-4.1,1.1-6.1,1.8c-2,0.6-3.9,1.2-5.7,1.8c-1.8,0.6-3.6,1.3-5.3,1.9
			c-3.4,1.2-6.5,2.4-9.1,3.6c-2.7,1.1-5,2.2-6.9,3.1c-1.9,0.9-3.4,1.6-4.3,2.2c-1,0.5-1.5,0.8-1.5,0.8l0,0c-1.2,0.7-2.7,0.2-3.4-1
			c-0.7-1.2-0.2-2.7,1-3.4C49.8,107.9,49.9,107.8,49.9,107.8z"/>
		<path fill="#231F20" d="M137.1,134.1l-10.8-3l-10.8-2.9L94,122.4l-21.6-5.6l-10.8-2.8l-10.8-2.8c-0.6-0.2-1-0.8-0.8-1.4
			c0-0.1,0.1-0.2,0.1-0.3l0,0l5.4-8.5l5.4-8.5l10.7-17.1l5.4-8.5c1.8-2.8,3.6-5.7,5.4-8.5l5.5-8.5l5.5-8.5c0.8-1.2,2.3-1.5,3.4-0.7
			c0.2,0.1,0.4,0.3,0.5,0.5c1.4,1.7,2.7,3.3,4.1,5c1.3,1.7,2.6,3.4,3.9,5.1c1.3,1.7,2.5,3.4,3.8,5.1c1.2,1.7,2.5,3.5,3.7,5.2
			c1.2,1.8,2.4,3.5,3.5,5.3c1.1,1.8,2.3,3.6,3.4,5.4c1.1,1.8,2.2,3.6,3.3,5.5c1,1.8,2,3.9,2.9,5.8c3.5,7.9,5.9,16.1,7.9,24.4
			c1,4.1,1.8,8.3,2.5,12.5c0.8,4.2,1.4,8.4,1.9,12.6c0.1,0.5-0.3,1-0.8,1c-0.5,0.1-0.9-0.3-1-0.7l0,0c-0.4-2.1-0.8-4.1-1.3-6.2
			c-0.4-2.1-0.9-4.1-1.4-6.2c-1-4.1-2-8.2-3.2-12.2c-1.1-4-2.4-8-3.8-12c-1.4-3.9-2.9-7.8-4.7-11.5c-0.9-1.9-1.8-3.6-2.9-5.4
			c-1.1-1.7-2.1-3.6-3.3-5.3c-1.1-1.8-2.3-3.5-3.4-5.3c-1.2-1.7-2.4-3.5-3.6-5.2c-2.4-3.4-4.9-6.8-7.4-10.1
			c-1.3-1.7-2.6-3.3-3.9-4.9c-1.3-1.6-2.6-3.3-4-4.8l4-0.3L92,52.4l-5.6,8.4c-1.9,2.8-3.8,5.6-5.7,8.3l-5.7,8.3L63.4,94l-5.7,8.3
			l-5.7,8.4l-0.7-1.8l10.8,3l10.8,2.9l21.5,5.9l21.6,5.7l10.8,2.8l10.8,2.8c0.6,0.1,0.9,0.7,0.8,1.3
			C138.2,133.9,137.7,134.2,137.1,134.1C137.1,134.1,137.1,134.1,137.1,134.1z"/>
		<path fill="none" stroke="#231F20" stroke-width="7" stroke-miterlimit="10" d="M37.8,83.1c0,0-3.5,1.3-7.7,5.6
			c-3.9,4.1-5.3,8.4-5.3,8.4"/>
		<path fill="none" stroke="#231F20" stroke-width="7" stroke-miterlimit="10" d="M248.2,148.4c0,0,3.5-1.3,7.7-5.6
			c3.9-4.1,5.3-8.4,5.3-8.4"/>
		<path fill="#231F20" d="M44.4,131.3l12.5,0.6c2.1,0,3.8-1.3,3.8-2.9l0,0c0-1.6-1.7-2.9-3.8-2.9l-12.5,0.6c-1.7,0-3,1.1-3,2.3l0,0
			C41.4,130.3,42.7,131.3,44.4,131.3z"/>
		<path fill="#231F20" d="M133.6,160.3l13.3,0.6c2.2,0,4-1.4,4-3.1v0c0-1.7-1.8-3.1-4-3.1l-13.3,0.6c-1.8,0-3.2,1.1-3.2,2.5v0
			C130.4,159.2,131.8,160.3,133.6,160.3z"/>
	</g>
	<g>
		<g>
			<path fill="#030033" d="M44.3,92.3l10,0.5c1.7,0,3-1.1,3-2.3v0c0-1.3-1.3-2.3-3-2.3l-10,0.5c-1.3,0-2.4,0.8-2.4,1.9l0,0
				C41.9,91.5,42.9,92.3,44.3,92.3z"/>
			<path fill="#030033" d="M130.5,109.4l10.7,0.5c1.8,0,3.2-1.1,3.2-2.5v0c0-1.4-1.4-2.5-3.2-2.5l-10.7,0.5c-1.4,0-2.6,0.9-2.6,2v0
				C128,108.5,129.1,109.4,130.5,109.4z"/>
			<path fill="none" stroke="#FFFFFF" stroke-linecap="round" stroke-miterlimit="10" d="M192.6,20.6c0,0,8.8,8.6,12,22.3
				c3.2,13.8-1,27.4-1,27.4"/>
			<g>
				<path fill="#AAA7A7" d="M192.6,55.2c0,0,0-0.5-0.1-1.3c-0.1-0.8-0.2-2-0.4-3.4c-0.4-2.8-0.9-6.6-1.9-10.3c-0.3-1-0.5-1.9-0.7-3
					c-0.2-1-0.3-2-0.3-3c-0.1-1.9,0-3.7,0.1-5.2c0.2-1.5,0.4-2.8,0.5-3.6c0.1-0.4,0.2-0.8,0.2-1c0.1-0.2,0.1-0.4,0.1-0.4
					c0.2-0.8,1-1.3,1.8-1.1c0.8,0.2,1.2,1,1.1,1.7l0,0.1c0,0,0,0.1-0.1,0.3c0,0.2-0.1,0.5-0.2,0.9c-0.1,0.8-0.3,2-0.4,3.4
					c-0.1,1.4-0.1,3,0,4.7c0.1,0.8,0.2,1.7,0.4,2.6c0.1,0.8,0.4,1.8,0.7,2.7c1.2,3.9,1.9,7.7,2.4,10.7c0.2,1.5,0.4,2.7,0.5,3.6
					c0.1,0.9,0.2,1.4,0.2,1.4c0.1,1.1-0.6,2.1-1.7,2.2c-1.1,0.1-2.1-0.6-2.2-1.7C192.6,55.3,192.6,55.3,192.6,55.2L192.6,55.2z"/>
			</g>
			<g>
				<path fill="#AAA7A7" d="M89.1,16c0,0,0,0.1,0,0.3c0,0.2,0,0.5,0,0.8c0,0.7,0,1.8,0.1,3c0.2,2.5,0.8,5.8,1.9,9
					c0.1,0.3,0.3,0.8,0.5,1.2c0.2,0.4,0.3,0.7,0.5,1.1c0.3,0.7,0.7,1.4,1.1,2.1c0.8,1.3,1.6,2.5,2.4,3.5c0.8,1,1.5,1.7,2,2.2
					c0.3,0.3,0.5,0.4,0.6,0.6c0.1,0.1,0.2,0.2,0.2,0.2l0,0c0.8,0.7,0.9,2,0.2,2.8s-2,0.9-2.8,0.2c-0.1-0.1-0.2-0.2-0.2-0.2
					c0,0-0.1-0.1-0.2-0.3c-0.1-0.2-0.3-0.4-0.6-0.7c-0.2-0.3-0.5-0.7-0.9-1.2c-0.3-0.5-0.7-1-1-1.5c-0.8-1.1-1.6-2.5-2.3-4
					c-0.4-0.8-0.8-1.5-1.1-2.4c-0.2-0.4-0.4-0.9-0.5-1.3c-0.2-0.4-0.3-0.8-0.5-1.3c-0.3-0.9-0.6-1.7-0.8-2.5
					c-0.2-0.8-0.5-1.7-0.7-2.5c-0.2-0.8-0.4-1.6-0.5-2.3c-0.1-0.8-0.3-1.5-0.4-2.1c-0.2-1.3-0.4-2.4-0.5-3.2
					c-0.1-0.8-0.2-1.3-0.2-1.3c-0.2-1.1,0.6-2.1,1.7-2.3c1.1-0.2,2.1,0.6,2.3,1.7C89.1,15.7,89.1,15.8,89.1,16L89.1,16z"/>
			</g>
			<g>
				<path fill="#FFFFFF" d="M257,100.5c0,0-2.4,2.5-6.3,6.1c-1.9,1.8-4.2,3.8-6.6,6c-1.2,1.1-2.5,2.2-3.8,3.3
					c-1.3,1.1-2.6,2.3-3.9,3.4c-1.3,1.1-2.7,2.2-4,3.3c-1.3,1.1-2.6,2.2-3.9,3.2c-2.5,2.1-4.9,3.9-7,5.5c-4.1,3.2-7,5.2-7,5.2
					s2.4-2.5,6.3-6.1c1.9-1.8,4.2-3.8,6.6-6c1.2-1.1,2.5-2.2,3.8-3.3c1.3-1.1,2.6-2.3,3.9-3.4c1.3-1.1,2.7-2.2,4-3.3
					c1.3-1.1,2.6-2.2,3.9-3.2c2.5-2.1,4.9-3.9,7-5.5C254.1,102.5,257,100.5,257,100.5z"/>
			</g>
			<g>
				<path fill="#FFFFFF" d="M242,152.8c0,0-0.3-1.1-0.7-2.9c-0.4-1.9-1.1-4.5-1.8-7.7c-0.7-3.2-1.5-6.9-2.3-10.9
					c-0.4-2-0.8-4.1-1.2-6.2c-0.4-2.1-0.8-4.3-1.2-6.4c-0.4-2.1-0.8-4.3-1.1-6.4c-0.4-2.1-0.7-4.2-1.1-6.2c-0.7-4-1.2-7.8-1.7-11.1
					c-0.5-3.2-0.8-6-1-7.8c-0.2-1.9-0.3-3-0.3-3s0.3,1.1,0.7,2.9c0.4,1.9,1.1,4.5,1.8,7.7c0.7,3.2,1.5,6.9,2.3,10.9
					c0.4,2,0.8,4.1,1.2,6.2c0.4,2.1,0.8,4.3,1.2,6.4c0.4,2.1,0.8,4.3,1.1,6.4c0.4,2.1,0.7,4.2,1,6.2c0.7,4,1.2,7.8,1.7,11.1
					c0.5,3.2,0.8,6,1.1,7.8C241.9,151.7,242,152.8,242,152.8z"/>
			</g>
			<g>
				<path fill="#FFFFFF" d="M217.8,112.1c0,0,2.4,0.5,5.8,1.5c1.7,0.5,3.7,1.1,5.9,1.8c1.1,0.4,2.2,0.7,3.3,1.1
					c1.1,0.4,2.2,0.8,3.4,1.2c1.1,0.4,2.2,0.8,3.3,1.2c1.1,0.4,2.2,0.8,3.2,1.2c2.1,0.8,4,1.6,5.6,2.3c3.3,1.4,5.4,2.5,5.4,2.5
					s-2.4-0.5-5.8-1.5c-1.7-0.5-3.7-1.1-5.9-1.8c-1.1-0.4-2.2-0.7-3.3-1.1c-1.1-0.4-2.2-0.8-3.4-1.2c-1.1-0.4-2.2-0.8-3.3-1.2
					c-1.1-0.4-2.2-0.8-3.2-1.2c-2.1-0.8-4-1.6-5.6-2.3C219.9,113.2,217.8,112.1,217.8,112.1z"/>
			</g>
			<g>
				<path fill="#FFFFFF" d="M28.7,90.5c0,0,3,1.8,7.3,4.7c2.2,1.5,4.7,3.2,7.3,5.1c1.3,1,2.7,1.9,4.1,2.9c1.4,1,2.8,2,4.2,3.1
					c1.4,1,2.8,2.1,4.1,3.1c1.4,1,2.7,2.1,4,3.1c2.6,2,5,3.9,7,5.6c4,3.3,6.6,5.6,6.6,5.6s-3-1.8-7.3-4.7c-2.2-1.5-4.7-3.2-7.3-5.1
					c-1.3-1-2.7-1.9-4.1-2.9c-1.4-1-2.8-2-4.2-3.1c-1.4-1-2.8-2.1-4.1-3.1c-1.4-1-2.7-2.1-4-3.1c-2.6-2-5-3.9-7-5.6
					C31.3,92.8,28.7,90.5,28.7,90.5z"/>
			</g>
			<g>
				<path fill="#FFFFFF" d="M83.1,93.2c0,0-1,0.5-2.7,1.4c-1.7,0.8-4.1,2.1-7.1,3.5c-3,1.4-6.4,3-10.1,4.7c-1.9,0.8-3.8,1.7-5.8,2.6
					c-2,0.9-4,1.7-6,2.6c-2,0.9-4,1.7-6,2.6c-2,0.9-3.9,1.6-5.8,2.4c-3.8,1.6-7.3,3-10.4,4.2c-3,1.2-5.6,2.1-7.4,2.8
					c-1.8,0.7-2.8,1-2.8,1s1-0.5,2.7-1.4c1.7-0.8,4.1-2.1,7.1-3.5c3-1.4,6.4-3,10.1-4.7c1.9-0.8,3.8-1.7,5.8-2.6c2-0.9,4-1.7,6-2.6
					c2-0.9,4-1.7,6-2.6c2-0.8,3.9-1.6,5.8-2.4c3.8-1.6,7.3-3,10.4-4.2c3-1.2,5.6-2.1,7.4-2.8C82,93.5,83.1,93.2,83.1,93.2z"/>
			</g>
			<g>
				<path fill="#FFFFFF" d="M48.8,126c0,0-0.1-2.4,0.1-6c0.1-1.8,0.2-3.9,0.4-6.1c0.1-1.1,0.2-2.3,0.3-3.4c0.1-1.2,0.2-2.4,0.4-3.5
					c0.1-1.2,0.3-2.4,0.4-3.5c0.1-1.2,0.3-2.3,0.5-3.4c0.3-2.2,0.7-4.3,1-6c0.6-3.5,1.3-5.8,1.3-5.8s0.1,2.4-0.1,6
					c-0.1,1.8-0.2,3.9-0.4,6.1c-0.1,1.1-0.2,2.3-0.3,3.4c-0.1,1.2-0.2,2.4-0.4,3.5c-0.1,1.2-0.3,2.4-0.4,3.5
					c-0.1,1.2-0.3,2.3-0.5,3.4c-0.3,2.2-0.7,4.3-1,6C49.5,123.6,48.8,126,48.8,126z"/>
			</g>
			<circle fill="none" stroke="#FFFFFF" stroke-width="4" stroke-miterlimit="10" cx="51" cy="107" r="42.6"/>
			<circle fill="none" stroke="#FFFFFF" stroke-width="4" stroke-miterlimit="10" cx="235.8" cy="118.6" r="42.6"/>
			<circle fill="none" stroke="#030033" stroke-width="4" stroke-miterlimit="10" cx="51" cy="107" r="45"/>
			<circle fill="none" stroke="#030033" stroke-width="4" stroke-miterlimit="10" cx="235.8" cy="118.6" r="45"/>
			<g>
				<path fill="#39B54A" d="M232.6,121.1c0,0-0.3-0.2-0.7-0.5c-0.5-0.3-1.2-0.8-2-1.5c-1.7-1.3-4.1-3.2-6.8-5.7
					c-2.7-2.5-5.8-5.5-8.7-9.1c-1.5-1.8-2.9-3.7-4.2-5.8c-0.7-1-1.3-2.1-1.9-3.2l-0.9-1.7l-0.8-1.6c-1.1-2.2-2.1-4.4-3-6.6
					c-1-2.2-1.9-4.4-2.7-6.5c-1.7-4.2-3.2-8.2-4.5-11.6c-1.2-3.4-2.2-6.3-2.9-8.3c-0.7-2-1.1-3.2-1.1-3.2c-0.5-1.6,0.3-3.3,1.9-3.8
					c1.6-0.5,3.3,0.3,3.8,1.9c0,0,0,0.1,0,0.1l0,0.1c0,0,0.3,1.1,0.9,3.1c0.6,2,1.4,4.9,2.5,8.3c1.1,3.4,2.4,7.4,3.9,11.6
					c0.7,2.1,1.5,4.3,2.4,6.5c0.9,2.2,1.7,4.4,2.7,6.6l0.7,1.7l0.7,1.6c0.5,1,1,2.1,1.6,3c1.1,2,2.4,3.9,3.7,5.7
					c2.6,3.6,5.4,6.7,7.9,9.2c2.5,2.5,4.7,4.5,6.3,5.9c0.8,0.7,1.4,1.2,1.9,1.5c0.4,0.3,0.7,0.5,0.7,0.5l0,0
					c0.5,0.4,0.6,1.1,0.2,1.5C233.7,121.3,233.1,121.4,232.6,121.1z"/>
			</g>
			<g>
				
					<line fill="none" stroke="#39B54A" stroke-width="5" stroke-linecap="round" stroke-linejoin="round" stroke-miterlimit="10" x1="201.7" y1="73.3" x2="137.3" y2="130.1"/>
			</g>
			<g>
				<path fill="#39B54A" d="M49.9,104.8c0,0,0.6-0.3,1.6-0.7c1.1-0.5,2.6-1.1,4.6-2c2-0.8,4.4-1.8,7.2-2.9c2.8-1.1,5.9-2.3,9.4-3.5
					c1.7-0.6,3.5-1.2,5.4-1.9c0.9-0.3,1.9-0.6,2.9-1c1-0.3,2-0.6,3-0.9c2-0.6,4.1-1.2,6.2-1.8c2.1-0.6,4.3-1.2,6.5-1.7
					c4.4-1.1,9.1-2.1,13.8-2.9c2.4-0.4,4.8-0.7,7.2-1.1c1.2-0.2,2.4-0.3,3.5-0.5l3.4-0.6c9.3-1.9,18.4-5.1,26.6-8.6
					c8.3-3.5,15.8-7.3,22.1-10.8c6.3-3.5,11.4-6.6,15-8.9c1.8-1.1,3.1-2,4.1-2.7c0.9-0.6,1.4-1,1.4-1l0.1,0c1.1-0.8,2.7-0.5,3.5,0.7
					c0.8,1.1,0.5,2.7-0.7,3.5c0,0,0,0,0,0c0,0-0.5,0.3-1.5,1c-1,0.6-2.4,1.5-4.2,2.7c-3.6,2.3-8.9,5.4-15.3,8.8
					c-6.5,3.4-14.1,7.3-22.6,10.8c-8.5,3.5-17.8,6.7-27.5,8.7l-3.7,0.7c-1.2,0.2-2.4,0.3-3.6,0.5c-2.4,0.3-4.7,0.6-7,1
					c-4.6,0.8-9.2,1.7-13.6,2.8c-2.2,0.6-4.3,1.1-6.4,1.7c-2.1,0.6-4.1,1.1-6.1,1.8c-2,0.6-3.9,1.2-5.7,1.8
					c-1.8,0.6-3.6,1.3-5.3,1.9c-3.4,1.2-6.5,2.4-9.1,3.6c-2.7,1.1-5,2.2-6.9,3.1c-1.9,0.9-3.4,1.6-4.3,2.2c-1,0.5-1.5,0.8-1.5,0.8
					l0,0c-1.2,0.7-2.7,0.2-3.4-1c-0.7-1.2-0.2-2.7,1-3.4C49.8,104.9,49.9,104.8,49.9,104.8z"/>
			</g>
			<g>
				<path fill="#39B54A" d="M137.1,131.1l-10.8-3l-10.8-2.9L94,119.4l-21.6-5.6l-10.8-2.8l-10.8-2.8c-0.6-0.2-1-0.8-0.8-1.4
					c0-0.1,0.1-0.2,0.1-0.3l0,0l5.4-8.5l5.4-8.5l10.7-17.1l5.4-8.5c1.8-2.8,3.6-5.7,5.4-8.5l5.5-8.5l5.5-8.5
					c0.8-1.2,2.3-1.5,3.4-0.7c0.2,0.1,0.4,0.3,0.5,0.5c1.4,1.7,2.7,3.3,4.1,5c1.3,1.7,2.6,3.4,3.9,5.1c1.3,1.7,2.5,3.4,3.8,5.1
					c1.2,1.7,2.5,3.5,3.7,5.2c1.2,1.8,2.4,3.5,3.5,5.3c1.1,1.8,2.3,3.6,3.4,5.4c1.1,1.8,2.2,3.6,3.3,5.5c1,1.8,2,3.9,2.9,5.8
					c3.5,7.9,5.9,16.1,7.9,24.4c1,4.1,1.8,8.3,2.5,12.5c0.8,4.2,1.4,8.4,1.9,12.6c0.1,0.5-0.3,1-0.8,1c-0.5,0.1-0.9-0.3-1-0.7l0,0
					c-0.4-2.1-0.8-4.1-1.3-6.2c-0.4-2.1-0.9-4.1-1.4-6.2c-1-4.1-2-8.2-3.2-12.2c-1.1-4-2.4-8-3.8-12c-1.4-3.9-2.9-7.8-4.7-11.5
					c-0.9-1.9-1.8-3.6-2.9-5.4c-1.1-1.7-2.1-3.6-3.3-5.3c-1.1-1.8-2.3-3.5-3.4-5.3c-1.2-1.7-2.4-3.5-3.6-5.2
					c-2.4-3.4-4.9-6.8-7.4-10.1c-1.3-1.7-2.6-3.3-3.9-4.9c-1.3-1.6-2.6-3.3-4-4.8l4-0.3L92,49.4l-5.6,8.4c-1.9,2.8-3.8,5.6-5.7,8.3
					l-5.7,8.3L63.4,91l-5.7,8.3l-5.7,8.4l-0.7-1.8l10.8,3l10.8,2.9l21.5,5.9l21.6,5.7l10.8,2.8l10.8,2.8c0.6,0.1,0.9,0.7,0.8,1.3
					C138.2,130.9,137.7,131.2,137.1,131.1C137.1,131.1,137.1,131.1,137.1,131.1z"/>
			</g>
			<path fill="none" stroke="#FF8200" stroke-width="7" stroke-miterlimit="10" d="M37.8,80.1c0,0-3.5,1.3-7.7,5.6
				c-3.9,4.1-5.3,8.4-5.3,8.4"/>
			<path fill="none" stroke="#FF8200" stroke-width="7" stroke-miterlimit="10" d="M248.2,145.4c0,0,3.5-1.3,7.7-5.6
				c3.9-4.1,5.3-8.4,5.3-8.4"/>
			<path fill="#030033" d="M44.4,128.3l12.5,0.6c2.1,0,3.8-1.3,3.8-2.9v0c0-1.6-1.7-2.9-3.8-2.9l-12.5,0.6c-1.7,0-3,1.1-3,2.3v0
				C41.4,127.3,42.7,128.3,44.4,128.3z"/>
			<path fill="#030033" d="M133.6,157.3l13.3,0.6c2.2,0,4-1.4,4-3.1v0c0-1.7-1.8-3.1-4-3.1l-13.3,0.6c-1.8,0-3.2,1.1-3.2,2.5v0
				C130.4,156.2,131.8,157.3,133.6,157.3z"/>
		</g>
	</g>
</g>
<g>
	<g opacity="0.25">
		<path fill="#231F20" d="M182.9,24.4c0,0,0.1,0,0.2,0.1c0.1,0,0.3,0.1,0.6,0.1c0.5,0.1,1.2,0.3,2.1,0.4c0.4,0.1,0.9,0.1,1.4,0.1
			c0.5,0,1,0,1.5,0c0.5,0,1-0.2,1.4-0.3c0.2-0.1,0.4-0.2,0.6-0.3c0.1-0.1,0.4-0.2,0.5-0.4c0.1-0.1,0.1-0.1,0.2-0.2l0,0l0,0l0,0l0,0
			c0-0.1-0.1,0.1,0,0.1l0.1-0.1l0.1-0.2c0-0.1,0-0.1,0.1-0.1c0-0.1,0-0.1,0-0.2c0-0.2,0-0.5-0.3-0.8c-0.2-0.3-0.6-0.7-1-0.9
			c-0.4-0.3-0.8-0.5-1.2-0.7c-0.8-0.4-1.5-0.7-2-0.9c-0.3-0.1-0.4-0.2-0.6-0.2c-0.1,0-0.2-0.1-0.2-0.1l0,0c-0.5-0.2-0.7-0.7-0.6-1.2
			c0.2-0.5,0.6-0.7,1.1-0.6c0,0,0.1,0,0.3,0.1c0.2,0,0.4,0.1,0.7,0.2c0.6,0.2,1.4,0.4,2.3,0.8c0.5,0.2,1,0.4,1.5,0.7
			c0.5,0.3,1.1,0.7,1.7,1.3c0.5,0.5,1.1,1.4,1.1,2.5c0,0.5-0.1,1-0.3,1.6l-0.1,0.2l0,0.1l-0.1,0.1l0,0l0,0l0,0.1l-0.4,0.6
			c-0.3,0.4-0.6,0.6-0.9,0.9c-0.3,0.2-0.7,0.5-1.1,0.7c-0.7,0.4-1.5,0.6-2.2,0.7c-0.7,0.2-1.4,0.2-2,0.3c-0.6,0-1.2,0-1.7,0
			c-1.1,0-1.9-0.1-2.5-0.2c-0.3,0-0.6-0.1-0.7-0.1c-0.2,0-0.3,0-0.3,0c-1.1-0.2-1.8-1.2-1.6-2.3s1.2-1.8,2.3-1.6
			C182.8,24.3,182.9,24.3,182.9,24.4L182.9,24.4z"/>
		<path fill="#231F20" d="M51,102.4c3.7,0,6.6,3,6.6,6.6s-3,6.6-6.6,6.6s-6.6-3-6.6-6.6S47.4,102.4,51,102.4 M51,99.4
			c-5.3,0-9.6,4.3-9.6,9.6c0,5.3,4.3,9.6,9.6,9.6s9.6-4.3,9.6-9.6C60.7,103.7,56.4,99.4,51,99.4L51,99.4z"/>
		<path fill="#231F20" d="M137.3,122.6c5.2,0,9.5,4.2,9.5,9.5c0,5.2-4.2,9.5-9.5,9.5c-5.2,0-9.5-4.2-9.5-9.5
			C127.9,126.8,132.1,122.6,137.3,122.6 M137.3,118.6c-7.4,0-13.5,6-13.5,13.5c0,7.4,6,13.5,13.5,13.5c7.4,0,13.5-6,13.5-13.5
			C150.8,124.6,144.8,118.6,137.3,118.6L137.3,118.6z"/>
		<path fill="#231F20" d="M178.9,16.6l6.6,4c1.1,0.6,2.6,0.2,3.2-1v0c0.6-1.1,0.2-2.6-1-3.2l-7-3.2c-0.9-0.5-2.1-0.1-2.5,0.8v0
			C177.7,15,178,16.1,178.9,16.6z"/>
		<path fill="#231F20" d="M173.9,28.7l9.8,0.6c1.6,0,2.9-1.3,2.9-2.9v0c0-1.6-1.3-2.9-2.9-2.9l-9.8,0.6c-1.3,0-2.3,1.1-2.3,2.3v0
			C171.5,27.6,172.6,28.7,173.9,28.7z"/>
		<path fill="none" stroke="#231F20" stroke-miterlimit="10" d="M41.4,109c0-5.3,4.3-9.6,9.6-9.6c0.7,0,1.4,0.1,2.1,0.2l0,0
			l87.1,19.3l0,0c6,1.3,10.5,6.7,10.5,13.1c0,7.4-6,13.5-13.5,13.5c-1.4,0-2.8-0.2-4-0.6l0,0l-85.2-26.7l0,0
			C44.2,117,41.4,113.4,41.4,109z"/>
		<path fill="#231F20" d="M106.8,17.1c0,0,1.9-5.4-8.2-5.9c-10.1-0.6-17.9-8.7-23.2-6.9c-5.3,1.8-4.5,9.4-2.2,9.4s9-0.3,13.4,4.7
			S106.8,17.1,106.8,17.1z"/>
	</g>
	<g>
		<g>
			<g>
				<g>
					<path fill="#AAA7A7" d="M182.9,22.4c0,0,0.1,0,0.2,0.1c0.1,0,0.3,0.1,0.6,0.1c0.5,0.1,1.2,0.3,2.1,0.4c0.4,0.1,0.9,0.1,1.4,0.1
						c0.5,0,1,0,1.5,0c0.5,0,1-0.2,1.4-0.3c0.2-0.1,0.4-0.2,0.6-0.3c0.1-0.1,0.4-0.2,0.5-0.4c0.1-0.1,0.1-0.1,0.2-0.2l0,0l0,0l0,0
						l0,0c0-0.1-0.1,0.1,0,0.1l0.1-0.1l0.1-0.2c0-0.1,0-0.1,0.1-0.1c0-0.1,0-0.1,0-0.2c0-0.2,0-0.5-0.3-0.8c-0.2-0.3-0.6-0.7-1-0.9
						c-0.4-0.3-0.8-0.5-1.2-0.7c-0.8-0.4-1.5-0.7-2-0.9c-0.3-0.1-0.4-0.2-0.6-0.2c-0.1,0-0.2-0.1-0.2-0.1l0,0
						c-0.5-0.2-0.7-0.7-0.6-1.2c0.2-0.5,0.6-0.7,1.1-0.6c0,0,0.1,0,0.3,0.1c0.2,0,0.4,0.1,0.7,0.2c0.6,0.2,1.4,0.4,2.3,0.8
						c0.5,0.2,1,0.4,1.5,0.7c0.5,0.3,1.1,0.7,1.7,1.3c0.5,0.5,1.1,1.4,1.1,2.5c0,0.5-0.1,1-0.3,1.6l-0.1,0.2l0,0.1l-0.1,0.1l0,0l0,0
						l0,0.1l-0.4,0.6c-0.3,0.4-0.6,0.6-0.9,0.9c-0.3,0.2-0.7,0.5-1.1,0.7c-0.7,0.4-1.5,0.6-2.2,0.7c-0.7,0.2-1.4,0.2-2,0.3
						c-0.6,0-1.2,0-1.7,0c-1.1,0-1.9-0.1-2.5-0.2c-0.3,0-0.6-0.1-0.7-0.1c-0.2,0-0.3,0-0.3,0c-1.1-0.2-1.8-1.2-1.6-2.3
						s1.2-1.8,2.3-1.6C182.8,22.3,182.9,22.3,182.9,22.4L182.9,22.4z"/>
				</g>
			</g>
			<g>
				<path fill="#AAA7A7" d="M51,100.4c3.7,0,6.6,3,6.6,6.6s-3,6.6-6.6,6.6s-6.6-3-6.6-6.6S47.4,100.4,51,100.4 M51,97.4
					c-5.3,0-9.6,4.3-9.6,9.6c0,5.3,4.3,9.6,9.6,9.6s9.6-4.3,9.6-9.6C60.7,101.7,56.4,97.4,51,97.4L51,97.4z"/>
			</g>
			<g>
				<path fill="#AAA7A7" d="M137.3,120.6c5.2,0,9.5,4.2,9.5,9.5c0,5.2-4.2,9.5-9.5,9.5c-5.2,0-9.5-4.2-9.5-9.5
					C127.9,124.8,132.1,120.6,137.3,120.6 M137.3,116.6c-7.4,0-13.5,6-13.5,13.5c0,7.4,6,13.5,13.5,13.5c7.4,0,13.5-6,13.5-13.5
					C150.8,122.6,144.8,116.6,137.3,116.6L137.3,116.6z"/>
			</g>
			<path fill="#7DEDF9" d="M178.9,14.6l6.6,4c1.1,0.6,2.6,0.2,3.2-1v0c0.6-1.1,0.2-2.6-1-3.2l-7-3.2c-0.9-0.5-2.1-0.1-2.5,0.8v0
				C177.7,13,178,14.1,178.9,14.6z"/>
			<path fill="#7DEDF9" d="M173.9,26.7l9.8,0.6c1.6,0,2.9-1.3,2.9-2.9v0c0-1.6-1.3-2.9-2.9-2.9l-9.8,0.6c-1.3,0-2.3,1.1-2.3,2.3v0
				C171.5,25.6,172.6,26.7,173.9,26.7z"/>
			<g>
				<path fill="none" stroke="#AAA7A7" stroke-miterlimit="10" d="M41.4,107c0-5.3,4.3-9.6,9.6-9.6c0.7,0,1.4,0.1,2.1,0.2l0,0
					l87.1,19.3l0,0c6,1.3,10.5,6.7,10.5,13.1c0,7.4-6,13.5-13.5,13.5c-1.4,0-2.8-0.2-4-0.6l0,0l-85.2-26.7l0,0
					C44.2,115,41.4,111.4,41.4,107z"/>
			</g>
			<path fill="#030033" d="M106.8,15.1c0,0,1.9-5.4-8.2-5.9C88.5,8.6,80.7,0.4,75.5,2.3c-5.3,1.8-4.5,9.4-2.2,9.4s9-0.3,13.4,4.7
				S106.8,15.1,106.8,15.1z"/>
		</g>
	</g>
</g>
<circle fill="#FFFFFF" cx="51" cy="107" r="1.2"/>
<path fill="#7DEDF9" d="M288.5,88.1C286.8,76,301.2,55.4,305.7,62c4.9,7.1-5,9.6-9.9,13.5C289,80.9,288.5,88.1,288.5,88.1z"/>
<path fill="#7DEDF9" d="M112,171.9c-5.2-11.1-28.5-20.5-28.7-12.5c-0.2,8.6,9.4,5.3,15.6,5.9C107.6,166.1,112,171.9,112,171.9z"/>
</svg>
