<?xml version="1.0" encoding="utf-8"?>
<!-- Generator: Adobe Illustrator 18.1.0, SVG Export Plug-In . SVG Version: 6.00 Build 0)  -->
<!DOCTYPE svg PUBLIC "-//W3C//DTD SVG 1.1//EN" "http://www.w3.org/Graphics/SVG/1.1/DTD/svg11.dtd">
<svg version="1.1" id="Layer_1" xmlns="http://www.w3.org/2000/svg" xmlns:xlink="http://www.w3.org/1999/xlink" x="0px" y="0px"
	 width="258.7px" height="200.2px" viewBox="0 0 258.7 200.2" enable-background="new 0 0 258.7 200.2" xml:space="preserve">
<g>
	<g opacity="0.15">
		<path d="M244.1,149.8c-0.3-0.6-41.3,21.5-44,22.3c-32.1,10-112.9,11.8-116,10.5c-7.7-3.1-15.3-6.4-22.9-9.7
			c-0.5-0.2-1-0.4-1.5-0.7c-1.5-0.9-2.6-1-3.8-0.8c-4.6-2.2-8-10-8-10c0-3.8-24-22.1-23.4-13.8c-0.5,0.2-1.2,0.3-2,0.3
			c0,0,0,0,0-0.1c0-2.8-15.2-16.9-17.6-18.6c0.3-0.5,0.5-1.1,0.5-1.7c-0.6-8.3-1-16.7-1.6-25c-0.4-4.8,2.5-7.6,7.6-9
			c2.5-0.7,5.4-0.7,8.2-0.9c1.6-0.1,3.3,0.2,5.2,0.4c0.6-3.2,1.2-6.3,1.7-9.4c1.5-8.8,2.8-17.6,4.1-26.4c0.5-4.1,3.3-6.8,7.2-8.8
			c6-3,12.9-4.2,20.1-5C65,43,95.6,40,115.7,40.2c20.2,0.2,44.6,1.6,52,2.5c6,0.7,12,1.5,17.9,2.6c5.6,1,9.7,3.8,11.6,8.2
			c2.5,5.8,4.6,11.9,6.3,18c3.3,12.9,5.6,25.7,6.8,38.9c0,0.4,0.1,0.8,0.1,1.4c4.4-0.1,8.8-0.4,13.2-0.2c6.8,0.3,13.6,0.6,20.4,1
			c2.1,0.1,4.2,0.9,5.8,1.8c1.2,0.6,2,1.8,2.4,3c0.7,1.9,1,4,1.5,5.9C253.4,125.2,245.3,144.7,244.1,149.8z"/>
		<path d="M2.9,136.2c-0.1-0.2-0.2-0.4-0.3-0.6c-0.1-1.1-0.2-2.3-0.4-3.4c0.2-0.2,0.4-0.4,0.6-0.6C2.6,133.3,2.7,134.8,2.9,136.2z"
			/>
		<path d="M89.2,121.8c-3.6,14.8-4.8,29.2-4.9,44.4c-6.8-2.1-13.6-4.4-20.4-6.7c-2.4-0.8-4.8-1.6-7.1-2.6c-0.6-0.3-1.6-1.1-1.7-1.6
			c-1.9-13.4-2.5-27.6,1.7-41C67.6,116.9,78.4,119.4,89.2,121.8z"/>
		<path d="M52.5,155.1c-2.7-0.5-3.4-1.7-4-4c-1.4-5.6-2.9-11.1-4.9-16.4c-2.6-7-8.7-11.6-16.1-12.5c-0.4-5.3-0.1-10.1,1.4-15
			c8.4,2.1,16.9,4.1,25.3,6.2C50,127,50.8,141.2,52.5,155.1z"/>
		<path d="M41,152.3c0.5,3-0.2,5.3-1,6.8c-1.1,2.1-3.7,1.5-5.7-1c-3-3.8-3.9-10.3-1.8-13.2c1.5-1.9,4.3-1.6,5.9,1.1
			C39.8,148.3,40.4,149.3,41,152.3z"/>
		<path d="M89,176.4c0,0.1-0.1,0.1-0.1,0.2c-0.2-0.6-0.3-1.2-0.3-1.8c0-0.2,0.1-0.3,0.2-0.5C88.8,175,88.9,175.7,89,176.4z"/>
		<path d="M2.9,131.6c0.7-0.6,1.4-1.3,1.9-2c0-0.1,0.1-0.1,0.1-0.2c0,0-0.1-0.1-0.1-0.1C4.4,129.7,3,130.5,2.9,131.6z"/>
		<path d="M122.5,130.8c2.7-4.8,13-5.5,16.2,0.1c3.8,7.2,3.7,16.5-0.2,23.4c-2.9,5.1-13.4,6.6-16.6-0.6c-1.5-3.4-2.7-7.1-2.7-12.2
			C119.3,138.2,120.4,134.4,122.5,130.8z"/>
		<path d="M47.8,158.8c0,0.1-7,13.3-7.7,13.2c0,0-0.1,0-0.1,0c2.4,0.4,7.4,0.8,11.2,0.5c4.4-0.4,7.6-1.7,7.6-1.7s-3.8-0.4-6.3-2.9
			C49.9,165.4,48.7,160.8,47.8,158.8z"/>
		<path d="M222.9,170.5c-2.4,0.8-5.6,1.9-9.5,3.1c-0.3,0.3-0.5,0.6-0.6,0.8c-1.2,3.4-3.1,6.5-6.5,9.2c3.3-0.8,6.4-1.9,9-3.5
			c0,0,0,0,0.1,0c3.6-2.2,6.4-5.2,7.9-9.7C223.2,170.4,223.1,170.4,222.9,170.5z"/>
		<path d="M117.9,190.4c-2.6-0.3-4.6-1.3-6-2.7c-0.5,1-1.4,2.6-1.4,2.7c-0.1,0.2-0.2,0.5-0.3,0.7c-1.8,3.5-3.9,6.9-7.9,7
			c2.9,0.4,11.5,0.9,14.6,0.4c3.2-0.6,4.6-3.6,5.7-7.4c0.1-0.1,0.1-0.3,0.1-0.5c-0.7,0-1.4,0.1-2.1,0.1
			C119.7,190.6,118.8,190.6,117.9,190.4z"/>
		<path d="M213.4,173.6c-1.1,0.3-2.2-0.3-3.4,0c-4.6,1.3-9.8,2.7-15.1,4.2c0.3,0.2,0.5,1.4,0.6,1.6c2.1,4.2,5.5,5.8,10.3,4.5
			c3.2-0.8,6.5-1.8,9.5-3.8C212.7,181.6,213.2,173.8,213.4,173.6z"/>
		<path d="M31.8,131.7c-5,1.3-7.9,7.8-7.3,16.1c0.1,2,0.5,4.1,1.1,6.3c0.8,2.9,1.9,5.6,3.2,7.9c0,0,0,0.1,0,0.1
			c3.1,5.5,7.3,9.3,11.3,9.9c0.8,0.1,1.6,0.1,2.3-0.1c0.1,0,0.2,0,0.4-0.1c3.6-1,5.1-4.9,5.1-10.2c0-3.8-0.7-8.3-2-12.9
			C42.9,137.5,38,130.1,31.8,131.7z"/>
		<path d="M112.1,172.2c-0.4-6-3.8-14.8-6.3-18.1c-3.8-5-8.1-5.2-11.8-0.8c-0.6,0.8-1.2,1.6-1.7,2.5c-3.2,6.2-4.1,12.4-3.6,18.4
			c0.1,0.7,0.1,1.4,0.2,2.1c0,0.2,0.1,0.5,0.1,0.7c0.6,4.1,1.8,8.2,3.3,12.2c1.6,4.2,4.4,8.4,9.1,8.7c0.2,0,0.4,0,0.6,0
			c4.1-0.1,6.2-3.5,7.9-7c0.1-0.2,0.2-0.5,0.3-0.7c0.1-0.1,0.9-1.7,1.4-2.7c-2-2.1-2.8-5.4-2.3-9.7
			C110,175.3,110.8,173.4,112.1,172.2z"/>
		<path d="M130.5,42c0,0.1-0.1,0.2-0.4,0.7c-6.6,0-13.5,0-20.5,0c0,0-0.2-0.3-0.2-0.6c0-0.7-0.1-1.5-0.1-2.2c-0.6,0-1.2,0-1.8,0
			c0.2,1.2,0.7,3.2,0.8,3.9c7.7,0,15.4,0,23.1,0c0.1-1.3,0.2-2.2,0.3-3.2c0-0.1,0.1-0.2,0.1-0.2c-0.5,0-0.9,0-1.4,0
			C130.5,40.8,130.5,41.4,130.5,42z"/>
		<path d="M130.7,122.8c-9.8-3.1-21.8,0-21.8,0l-6.3-3.1c0,0,34.8-0.1,59.9-0.6c15.8-0.3,26.7-0.9,26.9-0.9
			c8.8,0.5,13.6,0.5,25.4,3.3c11.8,2.7,12.3,5.3,12.3,5.3s-19.8,3.8-36.5,5.4c-16.7,1.6-46.8,2.8-46.8,2.8S140.5,125.9,130.7,122.8z
			"/>
		<path d="M122.7,190.5c0.1,0,0.2,0,0.2,0c-0.2,0.1-0.3,0.3-0.4,0.5C122.6,190.8,122.6,190.7,122.7,190.5z"/>
		<path d="M130.5,42c0-0.6,0-1.2,0-1.8c0.1-5.9,0.1-11.8,0-17.7c0-0.6-1-1.4-1.7-1.6c-6.2-1.9-12.4-1.8-18.5,0
			c-0.7,0.2-1.6,1.2-1.6,1.8c0.1,5.7,0.3,11.3,0.5,17c0,0.7,0.1,1.5,0.1,2.2c0,0.3,0.2,0.6,0.2,0.6c7.1,0,13.9,0,20.5,0
			C130.4,42.2,130.5,42.1,130.5,42z"/>
		<path d="M126.9,131c-4.4,6.8-4.2,16.1,0,23c3.1,4.5,7.5,4.5,10.5-0.1c2.3-3.4,3-7.3,3.1-11.8c0-3.8-0.7-7.8-3.3-11.2
			C134.2,126.9,129.8,127,126.9,131z"/>
		<path d="M241.3,121.5c2.5-3.6,10.9-3.4,13,1.4c2.5,6.1,1.6,13.5-2,18.8c-2.7,3.9-11.3,4.2-13.2-1.8c-0.9-2.8-1.6-5.9-1.2-10
			C238.2,127.2,239.3,124.3,241.3,121.5z"/>
		<path d="M244.8,122c-4.1,5.1-4.7,12.6-1.8,18.4c2.1,3.9,5.7,4.2,8.5,0.8c2.1-2.6,3-5.6,3.4-9.2c0.3-3,0-6.3-1.7-9.2
			C251,119.4,247.5,119,244.8,122z"/>
		<path d="M75.8,138.6c1.9-0.8,3.7-1.8,5.5-2.7c-0.1-0.3-0.2-0.6-0.3-0.9c-2.1-0.6-4.2-1.3-6.3-1.7c-1.9-0.4-2.8-1.3-3.1-3.1
			c-0.4-2.2-1.2-4.3-1.8-6.4c-0.3,0-0.6,0-0.9-0.1c-0.9,2.4-1.7,4.7-2.6,7.2c-2.1-0.4-4-0.8-6-1.2c-0.3,0.1-0.6,0.3-0.9,0.5
			c5.1,4.1,5.7,8.7,3,13.5c0.3,0.1,0.6,0.2,1,0.2c1.8-0.7,3.6-1.4,5.5-2.1c2.2,2.6,4.3,5.2,6.4,7.8c0.2-0.1,0.5-0.3,0.8-0.5
			c-0.6-2.5-1-5-1.7-7.4C73.9,140.1,74.3,139.3,75.8,138.6z"/>
		<path d="M248,150.4c-0.3-0.6-0.7-1.1-1.3-1.6c-0.7-0.5-1.8-0.7-2.8-0.8c-0.4-0.1-1.3,0.3-1.6,0.7c-2.3,2.6-5,3.8-7.8,4.8
			c-2.6,0.9-5.3,1.8-7.9,2.6c-32.1,10-64.4,16.1-98,16.4c-3.4,0-6.8-0.6-10.1-1.3c-2.8-0.6-4.9-0.3-6.4,1c-1.3,1.1-2.1,3-2.5,5.8
			c-0.5,4.3,0.2,7.6,2.3,9.7c1.4,1.5,3.4,2.4,6,2.7c0.9,0.1,1.8,0.2,2.6,0.2c0.7,0,1.4-0.1,2.1-0.1c0.1,0,0.2,0,0.2,0
			c13-0.6,25.7-1.9,38.6-3.9c8.2-1.5,21.2-4.7,33.5-7.9c5.3-1.4,10.5-2.8,15.1-4.2c1.2-0.3,2.3-0.7,3.4-1c3.8-1.2,7.1-2.3,9.5-3.1
			c0.2-0.1,0.3-0.1,0.5-0.2c1.9-0.7,3.3-1.2,3.8-1.4c4.5-1.7,9-3.3,13.4-5.7C246.3,160.2,249.7,154,248,150.4z"/>
		<path d="M63.8,56.6c-0.5-1.6-1.2-2.8-3.3-3.1c-1.3-0.2-2.6-0.4-4.1-0.6c-0.1,1.2-0.3,2-0.4,2.9c-0.4,6.6-1.2,13.2-1.4,19.9
			c-0.1,10.4-0.1,20.7-0.1,31.1c0,0.6,0.8,1.8,1.3,1.9c7.7,1.8,15.4,3.5,23.1,5.1c-1-4.1-1.8-7.8-2.7-11.5
			C72.4,87,68.3,71.8,63.8,56.6z"/>
		<path d="M44.9,53.2c-4.8,0.3-7,2.5-7.7,6.6c-1.5,9.5-3.6,19-5.6,28.5c-1,4.6-2,9.2-3,14.1c6.8,1.6,13.3,3.1,20.1,4.6
			c-0.5-18.2,0-36.2,1.7-54.4C48.2,52.9,46.6,53.1,44.9,53.2z"/>
		<path d="M16.2,135.7c-5.6-2.8-9-5.3-11.5-7.3c0,0.1-0.1,0.1-0.1,0.2c-0.6,0.8-1.9,1.3-1.9,1.3s-0.2,2.9,0,6.6
			c0.2,3.7,12.6,11.3,15.4,12s3.9,0.3,5.1-0.1c0,0-0.5-4.7-0.8-8.1C22.4,138.9,21.8,138.4,16.2,135.7z"/>
		<path d="M201.3,112.7c0,0-0.1-13.4-2.9-28.1c-2.8-14.7-4.1-18.3-7.4-27.2c-1.1-2.7-3.4-4.1-6.6-4.6c-11.2-1.6-32.3-3.3-53.2-3.2
			c-23.9,0.2-47.5,2.3-53.7,3c-4.3,0.5-5.3,2.1-4.1,5.6c3.6,11.2,6.9,22.5,10,33.9c2,7.4,4,14.8,5.8,22.2
			C126.7,115.9,201.3,112.7,201.3,112.7z"/>
	</g>
	<g>
		<g>
			<g id="XMLID_10_">
				<g>
					<path fill="#FFFFFF" d="M244.1,146.8c-0.3-0.6-41.3,21.5-44,22.3c-32.1,10-112.9,11.8-116,10.5c-7.7-3.1-15.3-6.4-22.9-9.7
						c-0.5-0.2-1-0.4-1.5-0.7c-1.5-0.9-2.6-1-3.8-0.8c-4.6-2.2-8-10-8-10c0-3.8-24-22.1-23.4-13.8c-0.5,0.2-1.2,0.3-2,0.3
						c0,0,0,0,0-0.1c0-2.8-15.2-16.9-17.6-18.6c0.3-0.5,0.5-1.1,0.5-1.7c-0.6-8.3-1-16.7-1.6-25c-0.4-4.8,2.5-7.6,7.6-9
						c2.5-0.7,5.4-0.7,8.2-0.9c1.6-0.1,3.3,0.2,5.2,0.4c0.6-3.2,1.2-6.3,1.7-9.4c1.5-8.8,2.8-17.6,4.1-26.4c0.5-4.1,3.3-6.8,7.2-8.8
						c6-3,12.9-4.2,20.1-5C65,40,95.6,37,115.7,37.2c20.2,0.2,44.6,1.6,52,2.5c6,0.7,12,1.5,17.9,2.6c5.6,1,9.7,3.8,11.6,8.2
						c2.5,5.8,4.6,11.9,6.3,18c3.3,12.9,5.6,25.7,6.8,38.9c0,0.4,0.1,0.8,0.1,1.4c4.4-0.1,8.8-0.4,13.2-0.2c6.8,0.3,13.6,0.6,20.4,1
						c2.1,0.1,4.2,0.9,5.8,1.8c1.2,0.6,2,1.8,2.4,3c0.7,1.9,1,4,1.5,5.9C253.4,122.2,245.3,141.7,244.1,146.8z"/>
					<path fill="#FFFFFF" d="M2.9,133.2c-0.1-0.2-0.2-0.4-0.3-0.6c-0.1-1.1-0.2-2.3-0.4-3.4c0.2-0.2,0.4-0.4,0.6-0.6
						C2.6,130.3,2.7,131.8,2.9,133.2z"/>
					<path fill="#8DD8DB" d="M89.2,118.8c-3.6,14.8-4.8,29.2-4.9,44.4c-6.8-2.1-13.6-4.4-20.4-6.7c-2.4-0.8-4.8-1.6-7.1-2.6
						c-0.6-0.3-1.6-1.1-1.7-1.6c-1.9-13.4-2.5-27.6,1.7-41C67.6,113.9,78.4,116.4,89.2,118.8z"/>
					<path fill="#8DD8DB" d="M52.5,152.1c-2.7-0.5-3.4-1.7-4-4c-1.4-5.6-2.9-11.1-4.9-16.4c-2.6-7-8.7-11.6-16.1-12.5
						c-0.4-5.3-0.1-10.1,1.4-15c8.4,2.1,16.9,4.1,25.3,6.2C50,124,50.8,138.2,52.5,152.1z"/>
					<path fill="#FFFFFF" d="M41,149.3c0.5,3-0.2,5.3-1,6.8c-1.1,2.1-3.7,1.5-5.7-1c-3-3.8-3.9-10.3-1.8-13.2
						c1.5-1.9,4.3-1.6,5.9,1.1C39.8,145.3,40.4,146.3,41,149.3z"/>
					<path fill="#FFFFFF" d="M89,173.4c0,0.1-0.1,0.1-0.1,0.2c-0.2-0.6-0.3-1.2-0.3-1.8c0-0.2,0.1-0.3,0.2-0.5
						C88.8,172,88.9,172.7,89,173.4z"/>
					<g>
						<path fill="#E6E6E6" d="M2.9,128.6c0.7-0.6,1.4-1.3,1.9-2c0-0.1,0.1-0.1,0.1-0.2c0,0-0.1-0.1-0.1-0.1
							C4.4,126.7,3,127.5,2.9,128.6z"/>
					</g>
					<path fill="#F7931E" d="M122.5,127.8c2.7-4.8,13-5.5,16.2,0.1c3.8,7.2,3.7,16.5-0.2,23.4c-2.9,5.1-13.4,6.6-16.6-0.6
						c-1.5-3.4-2.7-7.1-2.7-12.2C119.3,135.2,120.4,131.4,122.5,127.8z"/>
					<g>
						<path fill="#1A1A1A" d="M47.8,155.8c0,0.1-7,13.3-7.7,13.2c0,0-0.1,0-0.1,0c2.4,0.4,7.4,0.8,11.2,0.5c4.4-0.4,7.6-1.7,7.6-1.7
							s-3.8-0.4-6.3-2.9C49.9,162.4,48.7,157.8,47.8,155.8z"/>
						<path fill="#1A1A1A" d="M222.9,167.5c-2.4,0.8-5.6,1.9-9.5,3.1c-0.3,0.3-0.5,0.6-0.6,0.8c-1.2,3.4-3.1,6.5-6.5,9.2
							c3.3-0.8,6.4-1.9,9-3.5c0,0,0,0,0.1,0c3.6-2.2,6.4-5.2,7.9-9.7C223.2,167.4,223.1,167.4,222.9,167.5z"/>
						<path fill="#1A1A1A" d="M117.9,187.4c-2.6-0.3-4.6-1.3-6-2.7c-0.5,1-1.4,2.6-1.4,2.7c-0.1,0.2-0.2,0.5-0.3,0.7
							c-1.8,3.5-3.9,6.9-7.9,7c2.9,0.4,11.5,0.9,14.6,0.4c3.2-0.6,4.6-3.6,5.7-7.4c0.1-0.1,0.1-0.3,0.1-0.5c-0.7,0-1.4,0.1-2.1,0.1
							C119.7,187.6,118.8,187.6,117.9,187.4z"/>
					</g>
					<g>
						<path fill="#666666" d="M213.4,170.6c-1.1,0.3-2.2-0.3-3.4,0c-4.6,1.3-9.8,2.7-15.1,4.2c0.3,0.2,0.5,1.4,0.6,1.6
							c2.1,4.2,5.5,5.8,10.3,4.5c3.2-0.8,6.5-1.8,9.5-3.8C212.7,178.6,213.2,170.8,213.4,170.6z"/>
						<path fill="#666666" d="M31.8,128.7c-5,1.3-7.9,7.8-7.3,16.1c0.1,2,0.5,4.1,1.1,6.3c0.8,2.9,1.9,5.6,3.2,7.9c0,0,0,0.1,0,0.1
							c3.1,5.5,7.3,9.3,11.3,9.9c0.8,0.1,1.6,0.1,2.3-0.1c0.1,0,0.2,0,0.4-0.1c3.6-1,5.1-4.9,5.1-10.2c0-3.8-0.7-8.3-2-12.9
							C42.9,134.5,38,127.1,31.8,128.7z"/>
						<path fill="#666666" d="M112.1,169.2c-0.4-6-3.8-14.8-6.3-18.1c-3.8-5-8.1-5.2-11.8-0.8c-0.6,0.8-1.2,1.6-1.7,2.5
							c-3.2,6.2-4.1,12.4-3.6,18.4c0.1,0.7,0.1,1.4,0.2,2.1c0,0.2,0.1,0.5,0.1,0.7c0.6,4.1,1.8,8.2,3.3,12.2
							c1.6,4.2,4.4,8.4,9.1,8.7c0.2,0,0.4,0,0.6,0c4.1-0.1,6.2-3.5,7.9-7c0.1-0.2,0.2-0.5,0.3-0.7c0.1-0.1,0.9-1.7,1.4-2.7
							c-2-2.1-2.8-5.4-2.3-9.7C110,172.3,110.8,170.4,112.1,169.2z"/>
						<path fill="#C7DCE2" d="M130.5,39c0,0.1-0.1,0.2-0.4,0.7c-6.6,0-13.5,0-20.5,0c0,0-0.2-0.3-0.2-0.6c0-0.7-0.1-1.5-0.1-2.2
							c-0.6,0-1.2,0-1.8,0c0.2,1.2,0.7,3.2,0.8,3.9c7.7,0,15.4,0,23.1,0c0.1-1.3,0.2-2.2,0.3-3.2c0-0.1,0.1-0.2,0.1-0.2
							c-0.5,0-0.9,0-1.4,0C130.5,37.8,130.5,38.4,130.5,39z"/>
					</g>
					<path fill="#8DD8DB" d="M130.7,119.8c-9.8-3.1-21.8,0-21.8,0l-6.3-3.1c0,0,34.8-0.1,59.9-0.6c15.8-0.3,26.7-0.9,26.9-0.9
						c8.8,0.5,13.6,0.5,25.4,3.3c11.8,2.7,12.3,5.3,12.3,5.3s-19.8,3.8-36.5,5.4c-16.7,1.6-46.8,2.8-46.8,2.8
						S140.5,122.9,130.7,119.8z"/>
					<path fill="#FFFFFF" d="M122.7,187.5c0.1,0,0.2,0,0.2,0c-0.2,0.1-0.3,0.3-0.4,0.5C122.6,187.8,122.6,187.7,122.7,187.5z"/>
					<g>
						<path fill="#FBB03B" d="M130.5,39c0-0.6,0-1.2,0-1.8c0.1-5.9,0.1-11.8,0-17.7c0-0.6-1-1.4-1.7-1.6c-6.2-1.9-12.4-1.8-18.5,0
							c-0.7,0.2-1.6,1.2-1.6,1.8c0.1,5.7,0.3,11.3,0.5,17c0,0.7,0.1,1.5,0.1,2.2c0,0.3,0.2,0.6,0.2,0.6c7.1,0,13.9,0,20.5,0
							C130.4,39.2,130.5,39.1,130.5,39z"/>
						<path fill="#FBB03B" d="M126.9,128c-4.4,6.8-4.2,16.1,0,23c3.1,4.5,7.5,4.5,10.5-0.1c2.3-3.4,3-7.3,3.1-11.8
							c0-3.8-0.7-7.8-3.3-11.2C134.2,123.9,129.8,124,126.9,128z"/>
						<path fill="#F7931E" d="M241.3,118.5c2.5-3.6,10.9-3.4,13,1.4c2.5,6.1,1.6,13.5-2,18.8c-2.7,3.9-11.3,4.2-13.2-1.8
							c-0.9-2.8-1.6-5.9-1.2-10C238.2,124.2,239.3,121.3,241.3,118.5z"/>
						<path fill="#FBB03B" d="M244.8,119c-4.1,5.1-4.7,12.6-1.8,18.4c2.1,3.9,5.7,4.2,8.5,0.8c2.1-2.6,3-5.6,3.4-9.2
							c0.3-3,0-6.3-1.7-9.2C251,116.4,247.5,116,244.8,119z"/>
						<path fill="#FFFFFF" d="M75.8,135.6c1.9-0.8,3.7-1.8,5.5-2.7c-0.1-0.3-0.2-0.6-0.3-0.9c-2.1-0.6-4.2-1.3-6.3-1.7
							c-1.9-0.4-2.8-1.3-3.1-3.1c-0.4-2.2-1.2-4.3-1.8-6.4c-0.3,0-0.6,0-0.9-0.1c-0.9,2.4-1.7,4.7-2.6,7.2c-2.1-0.4-4-0.8-6-1.2
							c-0.3,0.1-0.6,0.3-0.9,0.5c5.1,4.1,5.7,8.7,3,13.5c0.3,0.1,0.6,0.2,1,0.2c1.8-0.7,3.6-1.4,5.5-2.1c2.2,2.6,4.3,5.2,6.4,7.8
							c0.2-0.1,0.5-0.3,0.8-0.5c-0.6-2.5-1-5-1.7-7.4C73.9,137.1,74.3,136.3,75.8,135.6z"/>
					</g>
					<g>
						<path fill="#C7DCE2" d="M248,147.4c-0.3-0.6-0.7-1.1-1.3-1.6c-0.7-0.5-1.8-0.7-2.8-0.8c-0.4-0.1-1.3,0.3-1.6,0.7
							c-2.3,2.6-5,3.8-7.8,4.8c-2.6,0.9-5.3,1.8-7.9,2.6c-32.1,10-64.4,16.1-98,16.4c-3.4,0-6.8-0.6-10.1-1.3
							c-2.8-0.6-4.9-0.3-6.4,1c-1.3,1.1-2.1,3-2.5,5.8c-0.5,4.3,0.2,7.6,2.3,9.7c1.4,1.5,3.4,2.4,6,2.7c0.9,0.1,1.8,0.2,2.6,0.2
							c0.7,0,1.4-0.1,2.1-0.1c0.1,0,0.2,0,0.2,0c13-0.6,25.7-1.9,38.6-3.9c8.2-1.5,21.2-4.7,33.5-7.9c5.3-1.4,10.5-2.8,15.1-4.2
							c1.2-0.3,2.3-0.7,3.4-1c3.8-1.2,7.1-2.3,9.5-3.1c0.2-0.1,0.3-0.1,0.5-0.2c1.9-0.7,3.3-1.2,3.8-1.4c4.5-1.7,9-3.3,13.4-5.7
							C246.3,157.2,249.7,151,248,147.4z"/>
						<path fill="#C7DCE2" d="M63.8,53.6c-0.5-1.6-1.2-2.8-3.3-3.1c-1.3-0.2-2.6-0.4-4.1-0.6c-0.1,1.2-0.3,2-0.4,2.9
							c-0.4,6.6-1.2,13.2-1.4,19.9c-0.1,10.4-0.1,20.7-0.1,31.1c0,0.6,0.8,1.8,1.3,1.9c7.7,1.8,15.4,3.5,23.1,5.1
							c-1-4.1-1.8-7.8-2.7-11.5C72.4,84,68.3,68.8,63.8,53.6z"/>
						<path fill="#C7DCE2" d="M44.9,50.2c-4.8,0.3-7,2.5-7.7,6.6c-1.5,9.5-3.6,19-5.6,28.5c-1,4.6-2,9.2-3,14.1
							c6.8,1.6,13.3,3.1,20.1,4.6c-0.5-18.2,0-36.2,1.7-54.4C48.2,49.9,46.6,50.1,44.9,50.2z"/>
						<path fill="#C7DCE2" d="M16.2,132.7c-5.6-2.8-9-5.3-11.5-7.3c0,0.1-0.1,0.1-0.1,0.2c-0.6,0.8-1.9,1.3-1.9,1.3s-0.2,2.9,0,6.6
							c0.2,3.7,12.6,11.3,15.4,12s3.9,0.3,5.1-0.1c0,0-0.5-4.7-0.8-8.1C22.4,135.9,21.8,135.4,16.2,132.7z"/>
						<path fill="#C7DCE2" d="M201.3,109.7c0,0-0.1-13.4-2.9-28.1c-2.8-14.7-4.1-18.3-7.4-27.2c-1.1-2.7-3.4-4.1-6.6-4.6
							c-11.2-1.6-32.3-3.3-53.2-3.2c-23.9,0.2-47.5,2.3-53.7,3c-4.3,0.5-5.3,2.1-4.1,5.6c3.6,11.2,6.9,22.5,10,33.9
							c2,7.4,4,14.8,5.8,22.2C126.7,112.9,201.3,109.7,201.3,109.7z"/>
					</g>
				</g>
			</g>
		</g>
	</g>
</g>
<path fill="#FCEE21" d="M102.5,15c-5,0-9.6,0-14.2,0c0,0.1-0.1,0.2-0.1,0.4c1.1,0.4,2.1,0.8,3.2,1.2c0,0-0.1,0-0.1-0.1
	c3,1.5,5.9,2.9,9.1,4.6C101.1,18.8,101.8,17,102.5,15z"/>
<path fill="#FCEE21" d="M106.6,2c-0.2,0-0.4,0.1-0.7,0.1c-0.6,3.3-1.3,6.5-2,10.1c2.9-0.4,5.4-0.7,8.3-1.1
	C111.2,9.5,107.6,3.7,106.6,2z"/>
<path fill="#FCEE21" d="M138.5,25.1c4.4,0.6,8.4,1,12.4,1.5c0,0.1,0,0.3,0,0.4c-3.6,0.9-7.2,1.8-11,2.8
	C139.4,28.2,139,26.8,138.5,25.1z"/>
<path fill="#FCEE21" d="M87.3,27.1c4.1-0.5,8.1-0.9,12.8-1.4c-0.4,1.8-0.8,3.2-1.2,4.8c-4-1-7.8-2-11.6-2.9
	C87.2,27.4,87.3,27.2,87.3,27.1z"/>
<path fill="#FCEE21" d="M150.1,14.4c-5.2,0-9.5,0-14.2,0c0.7,2,1.4,3.9,2.2,6C139.4,19.7,149.6,14.7,150.1,14.4z"/>
<path fill="#FCEE21" d="M127.1,1c-0.3,0.6-0.6,1.1-0.9,1.6c-0.9,1-4.8,5.5-5.5,6.3c2.5,0.9,4.7,1.7,7,2.5c0-3.6,0-6.9,0-10.3
	C127.4,1.1,127.3,1,127.1,1z"/>
<ellipse transform="matrix(-0.98 0.1991 -0.1991 -0.98 100.9368 287.7884)" fill="#FFFFFF" cx="36" cy="149" rx="4.9" ry="9.8"/>
<ellipse transform="matrix(-0.9986 5.348124e-02 -5.348124e-02 -0.9986 208.6113 340.3422)" fill="#FFFFFF" cx="99.8" cy="173" rx="4.9" ry="11.3"/>
<path fill="#C7DCE2" d="M139.2,159.4c0,0,37.5-4.1,54.5-6.8s37-8.5,37-8.5l-1.3-14.4c0,0-19.7,4.2-36.3,6.2s-46.7,3.8-46.7,3.8
	s0.2,5.4-0.8,9.7C144.7,153.3,139.2,159.4,139.2,159.4z"/>
</svg>
