<?xml version="1.0" encoding="utf-8"?>
<!-- Generator: Adobe Illustrator 18.1.0, SVG Export Plug-In . SVG Version: 6.00 Build 0)  -->
<!DOCTYPE svg PUBLIC "-//W3C//DTD SVG 1.1//EN" "http://www.w3.org/Graphics/SVG/1.1/DTD/svg11.dtd">
<svg version="1.1" id="Layer_1" xmlns="http://www.w3.org/2000/svg" xmlns:xlink="http://www.w3.org/1999/xlink" x="0px" y="0px"
	 width="266.9px" height="206px" viewBox="-129 26 266.9 206" enable-background="new -129 26 266.9 206" xml:space="preserve">
<g>
	<g opacity="0.15">
		<path d="M134.8,176.9c0,0-3.7,20.2-5,27.5s-6.9,17.7-15.7,17.7h-216.8c-8.7,0-12.2-7-14.7-17.3s-6.9-28.1-6.9-28.1"/>
		<path d="M-102.8,78.2h214.3c7.5,0,13.9,6,14.7,14l8.6,80c1,9.4-5.9,17.7-14.7,17.7h-229.8c-8.7,0-15.5-8-14.7-17.3l6.9-80
			C-116.9,84.5-110.5,78.2-102.8,78.2z"/>
		<path d="M134,181c0,0-6.9,21.6-16,26.6s-27.4-5.3-51.4,2.5c-24.1,7.7-27.6,12-27.6,12s68.6,0,75.1,0s13.9-8.1,15.5-16.5
			C131.1,197.1,134,181,134,181z"/>
		<path d="M50.1,178.8c6.8-16,19.3-8.8,20.9-34.6s16-14.1,24.7-29.9s3.5-24.9,3.5-24.9s-2.1,22.7-16.4,29
			c-14.3,6.4-14.6,16.9-16.5,27.4c-1.9,10.5-9.1,7.2-12.4,14.1C50.5,166.9,50.1,178.8,50.1,178.8z"/>
		<path d="M-112.6,89.3c10.2,14.1-2.3,21.1,18.8,35.7s3.8,21,12.8,36.6s19.5,15.8,19.5,15.8s-18.4-13.5-16.4-29
			c1.9-15.5-6.9-21.2-14.9-28.3s-1.5-11.5-5.7-17.9C-102.6,95.8-112.6,89.3-112.6,89.3z"/>
		<path d="M-98.6,159.1c-12.1-9.5,0.4-10.8-3.4-19.5c-3.8-8.7-10.8-9.9-10.8-9.9s10.3,8.6,6.9,16.1c-3.5,7.5,1.6,11.3,6,15.6
			c4.3,4.4-0.7,5.9,1.2,9.5s7.6,7.9,7.6,7.9C-95.9,170.7-86.5,168.6-98.6,159.1z"/>
		<path d="M92.4,164.9c12.1-9.5-0.4-10.8,3.4-19.5c3.8-8.7,10.8-9.9,10.8-9.9s-10.3,8.6-6.9,16.1c3.5,7.5-1.6,11.3-6,15.6
			c-4.3,4.4,0.7,5.9-1.2,9.5s-7.6,7.9-7.6,7.9C89.7,176.5,80.3,174.4,92.4,164.9z"/>
		<ellipse cx="101.7" cy="164.5" rx="22.3" ry="10.5"/>
		<path d="M124,164.5c0,5.8-10,10.5-22.3,10.5c0,0,2.8-14.1,9.3-16S124,164.5,124,164.5z"/>
	</g>
	<g>
		<g>
			<path fill="#B26112" d="M134.8,173.9c0,0-3.7,20.2-5,27.5s-6.9,17.7-15.7,17.7h-216.8c-8.7,0-12.2-7-14.7-17.3
				s-6.9-28.1-6.9-28.1"/>
			<path fill="#C7752E" d="M-102.8,75.2h214.3c7.5,0,13.9,6,14.7,14l8.6,80c1,9.4-5.9,17.7-14.7,17.7h-229.8
				c-8.7,0-15.5-8-14.7-17.3l6.9-80C-116.9,81.5-110.5,75.2-102.8,75.2z"/>
			<path fill="#894106" d="M134,178c0,0-6.9,21.6-16,26.6s-27.4-5.3-51.4,2.5c-24.1,7.7-27.6,12-27.6,12s68.6,0,75.1,0
				s13.9-8.1,15.5-16.5C131.1,194.1,134,178,134,178z"/>
			<path fill="#D17F42" d="M50.1,175.8c6.8-16,19.3-8.8,20.9-34.6s16-14.1,24.7-29.9s3.5-24.9,3.5-24.9s-2.1,22.7-16.4,29
				c-14.3,6.4-14.6,16.9-16.5,27.4c-1.9,10.5-9.1,7.2-12.4,14.1C50.5,163.9,50.1,175.8,50.1,175.8z"/>
			<path fill="#D17F42" d="M-112.6,86.3c10.2,14.1-2.3,21.1,18.8,35.7s3.8,21,12.8,36.6s19.5,15.8,19.5,15.8s-18.4-13.5-16.4-29
				c1.9-15.5-6.9-21.2-14.9-28.3s-1.5-11.5-5.7-17.9C-102.6,92.8-112.6,86.3-112.6,86.3z"/>
			<path fill="#D17F42" d="M-98.6,156.1c-12.1-9.5,0.4-10.8-3.4-19.5c-3.8-8.7-10.8-9.9-10.8-9.9s10.3,8.6,6.9,16.1
				c-3.5,7.5,1.6,11.3,6,15.6c4.3,4.4-0.7,5.9,1.2,9.5s7.6,7.9,7.6,7.9C-95.9,167.7-86.5,165.6-98.6,156.1z"/>
			<path fill="#D17F42" d="M92.4,161.9c12.1-9.5-0.4-10.8,3.4-19.5c3.8-8.7,10.8-9.9,10.8-9.9s-10.3,8.6-6.9,16.1
				c3.5,7.5-1.6,11.3-6,15.6c-4.3,4.4,0.7,5.9-1.2,9.5s-7.6,7.9-7.6,7.9C89.7,173.5,80.3,171.4,92.4,161.9z"/>
			<ellipse fill="#B26112" cx="101.7" cy="161.5" rx="22.3" ry="10.5"/>
			<path fill="#894106" d="M124,161.5c0,5.8-10,10.5-22.3,10.5c0,0,2.8-14.1,9.3-16S124,161.5,124,161.5z"/>
		</g>
	</g>
</g>
<polygon fill="#F2DC7E" points="10.4,86 13,51.3 -13,89.9 "/>
<g>
	<g opacity="0.15">
		<polyline fill="#231F20" points="85.6,107.4 89.4,57 16.8,69 13,119.4 		"/>
		<path fill="#231F20" d="M16.8,69l72.6-12c-5.3-12.1-23.2-21.9-46.7-26.2L16.8,69z"/>
		<path fill="#231F20" d="M16.8,67.2l72.6-12c-5.3-12.1-23.2-22-46.7-26.2L16.8,67.2z"/>
		<polygon fill="#231F20" points="86.3,57.5 83.7,105 58.6,109 59.5,111.5 85.6,107.4 89.4,57 		"/>
	</g>
	<g>
		<g>
			<polyline fill="#F2DC7E" points="85.6,104.4 89.4,54 16.8,66 13,116.4 			"/>
			<path fill="#FFFFD9" d="M16.8,66l72.6-12c-5.3-12.1-23.2-22-46.7-26.2L16.8,66z"/>
			<path fill="#FFFFFF" d="M16.8,64.2l72.6-12c-5.3-12.1-23.2-22-46.7-26.2L16.8,64.2z"/>
			<polygon fill="#FFFFD9" points="86.3,54.5 83.7,102 58.6,106 59.5,108.5 85.6,104.4 89.4,54 			"/>
		</g>
	</g>
</g>
<g>
	<g opacity="0.15">
		<path fill="#231F20" d="M61.9,88.5l-75,4.4L-87.6,92l12.1,58.2l0,0c3.6,17.2,34.6,28.5,71.1,25.5c36.8-3.1,65.7-19.6,65.9-37.4
			l0,0L61.9,88.5z"/>
		<path opacity="0.5" fill="#231F20" enable-background="new    " d="M-87.6,92l50.1,18.7c0,0,5.9,32.2,21.8,45.1
			s35.6,15.7,35.6,15.7s-37.7,9.8-63.8,1.6S-73.6,157.9-75,152S-87.6,92-87.6,92z"/>
	</g>
	<g>
		<g>
			<path fill="#FFFDC0" d="M61.9,85.5l-75,4.4L-87.6,89l12.1,58.2l0,0c3.6,17.2,34.6,28.5,71.1,25.5c36.8-3.1,65.7-19.6,65.9-37.4
				l0,0L61.9,85.5z"/>
			<path opacity="0.5" fill="#F7F2A0" enable-background="new    " d="M-87.6,89l50.1,18.7c0,0,5.9,32.2,21.8,45.1
				c15.9,12.9,35.6,15.7,35.6,15.7s-37.7,9.8-63.8,1.6S-73.6,154.9-75,149S-87.6,89-87.6,89z"/>
		</g>
	</g>
</g>
<path opacity="0.5" fill="#F7F2A0" enable-background="new    " d="M60.3,80L-13,92.2l25.9-38.3l0.2-2.5c0,0-17.3,0-26.1,0
	c-41.4,0-75,16.2-75,36.3c0,20,33.6,36.3,75,36.3s75-16.2,75-36.3C61.9,85,61.3,82.5,60.3,80z"/>
<path fill="#FFFFFF" d="M60.3,77.8L-13,89.9l26-38.6C4.9,49.8-3.9,49-13.1,49c-41.4,0-75,16.2-75,36.3c0,20,33.6,36.3,75,36.3
	s75-16.2,75-36.3C61.9,82.7,61.3,80.2,60.3,77.8z"/>
<path fill="#FFFFF0" d="M16.8,64.2l69-11.4c-5.1-11.5-22.1-20.9-44.5-24.9L16.8,64.2z"/>
<path fill="#FFFFF0" d="M56.4,78.2L-13,89.7l24.7-36.5C4,51.8-4.4,51-13,51c-39.3,0-71,15.4-71,34.3c0,19,31.8,34.4,71,34.4
	s71-15.4,71-34.4C58,82.9,57.4,80.5,56.4,78.2z"/>
</svg>
