<?xml version="1.0" encoding="utf-8"?>
<!-- Generator: Adobe Illustrator 18.1.0, SVG Export Plug-In . SVG Version: 6.00 Build 0)  -->
<!DOCTYPE svg PUBLIC "-//W3C//DTD SVG 1.1//EN" "http://www.w3.org/Graphics/SVG/1.1/DTD/svg11.dtd">
<svg version="1.1" id="Layer_1" xmlns="http://www.w3.org/2000/svg" xmlns:xlink="http://www.w3.org/1999/xlink" x="0px" y="0px"
	 width="180px" height="152px" viewBox="0 0 180 152" enable-background="new 0 0 180 152" xml:space="preserve">
<polygon fill="#F2DC7E" points="99.4,61 102,26.3 76,64.9 "/>
<g>
	<g opacity="0.15">
		<polyline fill="#231F20" points="174.6,82.4 178.4,32 105.8,44 102,94.4 		"/>
		<path fill="#231F20" d="M105.8,44l72.6-12c-5.3-12.1-23.2-21.9-46.7-26.2L105.8,44z"/>
		<path fill="#231F20" d="M105.8,42.2l72.6-12C173.1,18.1,155.2,8.2,131.7,4L105.8,42.2z"/>
		<polygon fill="#231F20" points="175.3,32.5 172.7,80 147.6,84 148.5,86.5 174.6,82.4 178.4,32 		"/>
	</g>
	<g>
		<g>
			<polyline fill="#F2DC7E" points="174.6,79.4 178.4,29 105.8,41 102,91.4 			"/>
			<path fill="#FFFFD9" d="M105.8,41l72.6-12C173.1,16.9,155.2,7,131.7,2.8L105.8,41z"/>
			<path fill="#FFFFFF" d="M105.8,39.2l72.6-12C173.1,15.1,155.2,5.2,131.7,1L105.8,39.2z"/>
			<polygon fill="#FFFFD9" points="175.3,29.5 172.7,77 147.6,81 148.5,83.5 174.6,79.4 178.4,29 			"/>
		</g>
	</g>
</g>
<g>
	<g opacity="0.15">
		<path fill="#231F20" d="M150.9,63.5l-75,4.4L1.4,67l12.1,58.2l0,0c3.6,17.2,34.6,28.5,71.1,25.5c36.8-3.1,65.7-19.6,65.9-37.4l0,0
			L150.9,63.5z"/>
		<path opacity="0.5" fill="#231F20" d="M1.4,67l50.1,18.7c0,0,5.9,32.2,21.8,45.1s35.6,15.7,35.6,15.7s-37.7,9.8-63.8,1.6
			S15.4,132.9,14,127C12.6,121.1,1.4,67,1.4,67z"/>
	</g>
	<g>
		<g>
			<path fill="#FFFDC0" d="M150.9,60.5l-75,4.4L1.4,64l12.1,58.2l0,0c3.6,17.2,34.6,28.5,71.1,25.5c36.8-3.1,65.7-19.6,65.9-37.4
				l0,0L150.9,60.5z"/>
			<path opacity="0.5" fill="#F7F2A0" d="M1.4,64l50.1,18.7c0,0,5.9,32.2,21.8,45.1s35.6,15.7,35.6,15.7s-37.7,9.8-63.8,1.6
				S15.4,129.9,14,124C12.6,118.1,1.4,64,1.4,64z"/>
		</g>
	</g>
</g>
<path opacity="0.5" fill="#F7F2A0" d="M149.3,55L76,67.2l25.9-38.3l0.2-2.5c0,0-17.3,0-26.1,0c-41.4,0-75,16.2-75,36.3
	c0,20,33.6,36.3,75,36.3s75-16.2,75-36.3C150.9,60,150.3,57.5,149.3,55z"/>
<path fill="#FFFFFF" d="M149.3,52.8L76,64.9L102,26.3c-8.1-1.5-16.9-2.3-26.1-2.3c-41.4,0-75,16.2-75,36.3c0,20,33.6,36.3,75,36.3
	s75-16.2,75-36.3C150.9,57.7,150.3,55.2,149.3,52.8z"/>
<path fill="#FFFFF0" d="M105.8,39.2l69-11.4c-5.1-11.5-22.1-20.9-44.5-24.9L105.8,39.2z"/>
<path fill="#FFFFF0" d="M145.4,53.2L76,64.7l24.7-36.5C93,26.8,84.6,26,76,26C36.7,26,5,41.4,5,60.3c0,19,31.8,34.4,71,34.4
	s71-15.4,71-34.4C147,57.9,146.4,55.5,145.4,53.2z"/>
</svg>
