<?xml version="1.0" encoding="utf-8"?>
<!-- Generator: Adobe Illustrator 18.1.0, SVG Export Plug-In . SVG Version: 6.00 Build 0)  -->
<!DOCTYPE svg PUBLIC "-//W3C//DTD SVG 1.1//EN" "http://www.w3.org/Graphics/SVG/1.1/DTD/svg11.dtd">
<svg version="1.1" id="Layer_1" xmlns="http://www.w3.org/2000/svg" xmlns:xlink="http://www.w3.org/1999/xlink" x="0px" y="0px"
	 width="220px" height="200px" viewBox="0 0 220 200" enable-background="new 0 0 220 200" xml:space="preserve">
<g>
	<g opacity="0.15">
		<path fill="#231F20" d="M197.8,77.3c5-4.4,6.3-10.9,4.5-17.2c-1.8-6.3-0.4-1.9-0.5-8.5c-0.1-6.7,2.4-16.9,2.4-16.9
			s5.5,5.9,9.2,12.5c3.7,6.5,1.5,10.1-1.2,16.2s-1.8,17.9-8.6,22.9c-6.8,5-9.7,1.5-9.7,1.5S193.3,81.4,197.8,77.3z"/>
		<path fill="#231F20" d="M192.2,93.8c-2,7.7,3,15.4,2.5,23c-0.5,7.6-3,16.2-3.1,27.8c-0.1,11.6,7.8,21.1,1.2,26
			c-6.6,4.9-18.5,1.9-23.6-5.6c-2.6-3.9-5-7.8-7.7-11.7c-0.5-0.8-1.8-1.1-2.7-1.6c-0.4,0.8-1.2,1.7-1.1,2.5c0.4,7.1,0.4,14.2,6.1,20
			c3.9,3.9,2.7,7.9-2.2,10.4c-10.1,5.1-24.1,2.3-31-7.2c-4.2-5.8-6.7-12.9-10.1-19.2c-0.9-1.6-2.4-3.4-4.1-4.1
			c-2.5-1.1-21.2-1.9-23.8-2.4c-4,5.1-3,10.7,0.9,14.9c1,1.1,2,2.3,2.9,3.5c4.3,5.8,2.8,10.1-4.2,11.7c-10.1,2.4-18.3-1.6-25.4-8.4
			c-2.8-2.7-5.4-5.7-8-8.4c-9.2,5.4-9.5,7.5-2.1,14.9c0.9,0.9,1.9,1.8,2.8,2.9c3.9,4.9,2.4,7.7-3.2,9.9c-7.1,2.7-14.4,2.3-21.3-1.1
			c-13-6.5-18.3-22.8-15.8-37.1c0.6-3.7-0.6-9.8-1.9-13c-5.6-14.9-2.7-30.7-0.7-38.9"/>
		<path fill="#231F20" d="M191.9,110.9l-89.4,32.2l-25.9-4.4L40.4,137c0,0-17.1-10.3-18.9-19.7c-0.3-1.7,2-24.7,0.8-26l41.2-10.9
			c4.5-0.7,27.3-2.9,34.1-11.6c2.7-3.4-1.7-9.8-0.5-14c1.9-6.6,2.5-11.8,8-15.4c6.5-4.3,6.8-12.1,13.2-16.6
			c-0.8-1.1-1.4-1.9-2.4-3.3c5.6-2.2,10.6-1.2,15.8-3.2c-0.4-0.8-0.9-1.7-1.4-2.8c9.5-2.5,36.1,5.5,36.1,5.5s13.3-10.1,21.5-8.8
			c-1.1,1.7-1.9,2.9-2.8,4.2c4.9,2.2,4.7-0.8,7.9,5.3c0.8,0.1,2.7,0.2,5.1,0.3c-0.9,2-1.6,3.5-2.3,5.2c3,1.2,5.7,2.4,8.4,3.5
			c-0.4,0.2-0.8,0.5-1.2,0.7c0.3,1.9,0,4.3,1.1,5.6c3.9,4.5-1.9,9.4,2.2,13.6c-4,5.6,4,11.4,0.8,15.3c-7.2,9,1.7,14.9-8.8,19.9
			c-4.8,2.3-4.7,4.9-6,10C192.2,93.8,191.6,103.6,191.9,110.9"/>
		<path fill="#231F20" d="M63.1,84.7c0.1,0.5,0.3,1,0.4,1.5"/>
		<path fill="#231F20" d="M189.2,90.6c0,0-3.8,0.4-7.9-3.6c-5-4.8-5.6-12-5.6-12s-1.9,4.8-6.4,4.8c-5.9,0-7.9-5.4-7.9-5.4
			s-0.9,21.5-11.7,22.4c-17.4,1.4-27.2-9.4-27.2-9.4s-11.7,6.3-17.2,17.1c-5.5,10.9-5.8,23.5-5.8,23.5l-3.8-0.5l-2.1,8.3l-7.2-5.2
			l-2.8,6.5l-8.6-6.5l-7.1,3.4c0,0-0.8-9.2-9.4-19.5S22.9,92,22.9,92s-6.7,19.5-7,31.2c-0.3,11.7,5.3,16.2,2.9,29.8
			s11.7,38.7,26.6,38.1c12.8-0.5,13.3-3.7,11.1-6.4c-2.3-2.8-5.1-5.4-6.9-8.5c-3.1-5.2-2-8.4,2.9-11.6c9.3-6.1,17.1-13.4,17.7-25.7
			c6.7,0.1,11.6,3.8,17,6.8c5.1,2.9,26.6,4,33.3,6.6c-0.9-5.3-1.5-9-2.1-12.6c0.4-0.1,2.8,19.9,14.3,35c6.5,8.6,17.1,11.1,26.5,7.3
			c3.6-1.5,4.3-3,1.6-6.2c-7.9-9.4-8.7-28.7-1-39.2c-1.1,3.7-2.2,7.5-3.3,11.4c12-1.2,29.8-12.9,35-26.4
			C195.1,111.9,189.2,90.6,189.2,90.6z"/>
		<path fill="#231F20" d="M170,72.4c-0.5-0.1-1.3,0-1.2-1.6c0-0.9-0.9-3.5-0.9-3.5h-4.3l-1.1,4.4c0,0,1.7,5.7,6.2,5.8
			c4.6,0.1,5-2.4,5-4.6c0-2.5-1.3-5.1-1.3-5.1l-3.2-0.4C169.2,67.3,170.4,70.9,170,72.4z"/>
		<circle fill="#231F20" cx="151.6" cy="42.1" r="5.4"/>
		<circle fill="#231F20" cx="182.7" cy="42.1" r="2.7"/>
		<path fill="#231F20" d="M83.4,78.8c6.7,11.7,13,19.2,26.7,18.4c13.7-0.8,12.3-2.6,12.6-9.8s-2.5-16,3.8-21.5s-0.1-16.3,0.9-22.5
			c1.8-11.1-9.1-20.6-9.1-20.6s-7.2,5.1-18.5,12.3s-6.1,8.9-13,19.2S77.4,68.2,83.4,78.8z"/>
		<path fill="#231F20" d="M26.4,98c0,0-0.7-3-3.5-6c13,7.8,11.9,19.3,9.3,31.2C42.3,115.7,49.5,111,53,98.9c7.2,4.1,12,3.5,18.3,7.1
			c2.2-5.9,0.9-10.3-9.3-29.1c3-1.7,6-3.5,10.3-6c-6-2.6-11.4-5-17.8-7.8c1.1-2.3,2.6-5.2,4.2-8.6C51,54.2,44.1,55,38,60.4
			c-1-2.9-6.9-3.8-8-7.2c-5.8,4.4-5.4,10-12,15c-0.9-0.8-2-2-4-3.9c-2.2,4.8-4.7,9.3-6.4,14c-3.4,9.5-3.2,18-0.4,25.2
			c2.8,7,8.8,10.9,8.8,10.9s0.6-5.6,4.3-10.6C23.7,99.2,26.4,98,26.4,98z"/>
	</g>
	<g>
		<g>
			<path fill="#101D1D" d="M197.8,75.3c5-4.4,6.3-10.9,4.5-17.2c-1.8-6.3-0.4-1.9-0.5-8.5c-0.1-6.7,2.4-16.9,2.4-16.9
				s5.5,5.9,9.2,12.5c3.7,6.5,1.5,10.1-1.2,16.2s-1.8,17.9-8.6,22.9c-6.8,5-9.7,1.5-9.7,1.5S193.3,79.4,197.8,75.3z"/>
			<path fill="#E6E6E6" d="M192.2,91.8c-2,7.7,3,15.4,2.5,23c-0.5,7.6-3,16.2-3.1,27.8c-0.1,11.6,7.8,21.1,1.2,26
				c-6.6,4.9-18.5,1.9-23.6-5.6c-2.6-3.9-5-7.8-7.7-11.7c-0.5-0.8-1.8-1.1-2.7-1.6c-0.4,0.8-1.2,1.7-1.1,2.5
				c0.4,7.1,0.4,14.2,6.1,20c3.9,3.9,2.7,7.9-2.2,10.4c-10.1,5.1-24.1,2.3-31-7.2c-4.2-5.8-6.7-12.9-10.1-19.2
				c-0.9-1.6-2.4-3.4-4.1-4.1c-2.5-1.1-21.2-1.9-23.8-2.4c-4,5.1-3,10.7,0.9,14.9c1,1.1,2,2.3,2.9,3.5c4.3,5.8,2.8,10.1-4.2,11.7
				c-10.1,2.4-18.3-1.6-25.4-8.4c-2.8-2.7-5.4-5.7-8-8.4c-9.2,5.4-9.5,7.5-2.1,14.9c0.9,0.9,1.9,1.8,2.8,2.9
				c3.9,4.9,2.4,7.7-3.2,9.9c-7.1,2.7-14.4,2.3-21.3-1.1c-13-6.5-18.3-22.8-15.8-37.1c0.6-3.7-0.6-9.8-1.9-13
				c-5.6-14.9-2.7-30.7-0.7-38.9"/>
			<path fill="#314346" d="M191.9,108.9l-89.4,32.2l-25.9-4.4L40.4,135c0,0-17.1-10.3-18.9-19.7c-0.3-1.7,2-24.7,0.8-26l41.2-10.9
				c4.5-0.7,27.3-2.9,34.1-11.6c2.7-3.4-1.7-9.8-0.5-14c1.9-6.6,2.5-11.8,8-15.4c6.5-4.3,6.8-12.1,13.2-16.6
				c-0.8-1.1-1.4-1.9-2.4-3.3c5.6-2.2,10.6-1.2,15.8-3.2c-0.4-0.8-0.9-1.7-1.4-2.8c9.5-2.5,36.1,5.5,36.1,5.5s13.3-10.1,21.5-8.8
				c-1.1,1.7-1.9,2.9-2.8,4.2c4.9,2.2,4.7-0.8,7.9,5.3c0.8,0.1,2.7,0.2,5.1,0.3c-0.9,2-1.6,3.5-2.3,5.2c3,1.2,5.7,2.4,8.4,3.5
				c-0.4,0.2-0.8,0.5-1.2,0.7c0.3,1.9,0,4.3,1.1,5.6c3.9,4.5-1.9,9.4,2.2,13.6c-4,5.6,4,11.4,0.8,15.3c-7.2,9,1.7,14.9-8.8,19.9
				c-4.8,2.3-4.7,4.9-6,10C192.2,91.8,191.6,101.6,191.9,108.9"/>
			<path fill="#191919" d="M63.1,82.7c0.1,0.5,0.3,1,0.4,1.5"/>
			<path fill="#F1F1F1" d="M189.2,88.6c0,0-3.8,0.4-7.9-3.6c-5-4.8-5.6-12-5.6-12s-1.9,4.8-6.4,4.8c-5.9,0-7.9-5.4-7.9-5.4
				s-0.9,21.5-11.7,22.4c-17.4,1.4-27.2-9.4-27.2-9.4s-11.7,6.3-17.2,17.1c-5.5,10.9-5.8,23.5-5.8,23.5l-3.8-0.5l-2.1,8.3l-7.2-5.2
				l-2.8,6.5l-8.6-6.5l-7.1,3.4c0,0-0.8-9.2-9.4-19.5S22.9,90,22.9,90s-6.7,19.5-7,31.2c-0.3,11.7,5.3,16.2,2.9,29.8
				s11.7,38.7,26.6,38.1c12.8-0.5,13.3-3.7,11.1-6.4c-2.3-2.8-5.1-5.4-6.9-8.5c-3.1-5.2-2-8.4,2.9-11.6c9.3-6.1,17.1-13.4,17.7-25.7
				c6.7,0.1,11.6,3.8,17,6.8c5.1,2.9,26.6,4,33.3,6.6c-0.9-5.3-1.5-9-2.1-12.6c0.4-0.1,2.8,19.9,14.3,35c6.5,8.6,17.1,11.1,26.5,7.3
				c3.6-1.5,4.3-3,1.6-6.2c-7.9-9.4-8.7-28.7-1-39.2c-1.1,3.7-2.2,7.5-3.3,11.4c12-1.2,29.8-12.9,35-26.4
				C195.1,109.9,189.2,88.6,189.2,88.6z"/>
			<path fill="#C57A84" d="M170,70.4c-0.5-0.1-1.3,0-1.2-1.6c0-0.9-0.9-3.5-0.9-3.5h-4.3l-1.1,4.4c0,0,1.7,5.7,6.2,5.8
				c4.6,0.1,5-2.4,5-4.6c0-2.5-1.3-5.1-1.3-5.1l-3.2-0.4C169.2,65.3,170.4,68.9,170,70.4z"/>
			<circle fill="#FFFFFF" cx="151.6" cy="40.1" r="5.4"/>
			<circle fill="#FFFFFF" cx="182.7" cy="40.1" r="2.7"/>
			<path fill="#101D1D" d="M83.4,76.8c6.7,11.7,13,19.2,26.7,18.4c13.7-0.8,12.3-2.6,12.6-9.8s-2.5-16,3.8-21.5s-0.1-16.3,0.9-22.5
				c1.8-11.1-9.1-20.6-9.1-20.6s-7.2,5.1-18.5,12.3s-6.1,8.9-13,19.2S77.4,66.2,83.4,76.8z"/>
			<path fill="#101D1D" d="M26.4,96c0,0-0.7-3-3.5-6c13,7.8,11.9,19.3,9.3,31.2C42.3,113.7,49.5,109,53,96.9
				c7.2,4.1,12,3.5,18.3,7.1c2.2-5.9,0.9-10.3-9.3-29.1c3-1.7,6-3.5,10.3-6c-6-2.6-11.4-5-17.8-7.8c1.1-2.3,2.6-5.2,4.2-8.6
				C51,52.2,44.1,53,38,58.4c-1-2.9-6.9-3.8-8-7.2c-5.8,4.4-5.4,10-12,15c-0.9-0.8-2-2-4-3.9c-2.2,4.8-4.7,9.3-6.4,14
				c-3.4,9.5-3.2,18-0.4,25.2c2.8,7,8.8,10.9,8.8,10.9s0.6-5.6,4.3-10.6C23.7,97.2,26.4,96,26.4,96z"/>
		</g>
	</g>
</g>
<path fill="#F2F2F2" d="M198.1,68c-1.5-6.6-6.1-12.3-9.5-15c-8.2-6.3-17.2-6.9-17.2-6.9s2.3-3.9,1.8-11.4
	c-0.5-7.5-1.5-12.9,10.5-18.1c-1.8-0.1-4.3-0.3-4.3-0.3s-0.3-1.2-0.2-2.4c0.1-1.5,1.1-3.7,1.1-3.7s-3.7,0.5-6.2,1.3
	c-4.7,1.4-7.6,5.4-7.6,5.4s-9.4-3.2-14.4-3.7c-4.7-0.5-12.9-0.5-12.9-0.5s2.2,0.8,3.1,2.3c0.6,0.9,0.7,2.3,0.7,2.3l-6.5,2.2
	c0,0,13.2-1.8,21.7,5.2s8.1,21.7,8.1,21.7s-19.8,6.7-26.9,15.2c-7.9,9.4-9.4,16.6-9.4,20.1c0.1,4.1,2.6,5.8,2.6,5.8s-0.3-1.6-0.2-3
	c0.1-1.4,1.5-3,1.5-3s-0.5,4.2,1.9,6.6c2.4,2.4,5.5,2.3,5.5,2.3l0.3-3.7c0,0,3,4.6,3.3,4.7c0.9,0.5,1.8,0.8,2.6,1
	c0.5,0.1,1.5-2.8,1.5-2.8s0.7,3,1.1,3c1.9-0.3,4.6-2.4,6.6-8.6c2-6.2,3.1-11.8,5.3-20.1c0.4-1.5,2.1-4.8,1-6.3
	c-4.4-5.9,4.6-6.6,7.7-6.4s6.3,1.8,6.1,4.1c-0.4,4.7-3.7,5.4-3.7,5.4s2.2,7.6,3.1,10c0.9,2.6,1.9,6.8,4.6,10.6
	c2.7,3.8,4.3,4.1,4.3,4.1s-0.2-0.6-0.4-1.2c-0.3-0.9-0.1-1.7-0.1-1.7s0.9,0.8,1.9,2.1c0.4,0.4,2.5,1.5,2.5,1.5s1.1-0.8,1.6-1.8
	c0.8-1.4,1.5-3.1,1.5-3.1s0.6,0.6,0.6,2.3c0,1.1-0.4,1.7-0.4,1.7s1.6-0.9,2.4-1.9c1.5-1.7,1.5-4.1,2-7.1c0,0.1,0.1,0.2,0.1,0.2
	c1.4,1.7,1.3,3.7,1.3,3.7S199.5,74.2,198.1,68z M173.6,48c0.1,0,0.1-0.1,0.1-0.1C173.8,48,173.8,48,173.6,48z"/>
<g>
	<g opacity="0.15">
		<path fill="#231F20" d="M178.6,54.3c1.5-3.4-0.2-6.9-6.9-6.8c-6.7,0.1-11.5-0.7-11.3,5.8c0.2,6.6,5.9,5.5,9.4,5.5
			C173.5,58.7,177.1,57.7,178.6,54.3z"/>
	</g>
	<g>
		<path fill="#101D1D" d="M178.6,52.3c1.5-3.4-0.2-6.9-6.9-6.8c-6.7,0.1-11.5-0.7-11.3,5.8c0.2,6.6,5.9,5.5,9.4,5.5
			C173.5,56.7,177.1,55.7,178.6,52.3z"/>
	</g>
</g>
<path fill="#F1F1F1" d="M192.1,117.2c-1.4,9.6-4.2,20.2-2.8,29.3c1.4,9.2,4.8,15.1,3.2,18.5c-1.5,3.3-8.3,4.6-13.4,1.9
	s4.2-10,5.1-15.7c0.9-5.6-4.2-13.4-4.2-13.4L192.1,117.2z"/>
<path fill="#F1F1F1" d="M88.8,161.3c0,0,1.6,4.6,4,7.1s3.9,7.5-1.2,8.8c-7.1,1.8-14.3-1.9-14.3-1.9s-2.1-2.6-1.4-5.9
	c0.7-3.4,6.8-2.7,9.8-3.9C88.8,164.2,88.8,161.3,88.8,161.3z"/>
</svg>
