<?xml version="1.0" encoding="utf-8"?>
<!-- Generator: Adobe Illustrator 18.1.0, SVG Export Plug-In . SVG Version: 6.00 Build 0)  -->
<!DOCTYPE svg PUBLIC "-//W3C//DTD SVG 1.1//EN" "http://www.w3.org/Graphics/SVG/1.1/DTD/svg11.dtd">
<svg version="1.1" id="Layer_1" xmlns="http://www.w3.org/2000/svg" xmlns:xlink="http://www.w3.org/1999/xlink" x="0px" y="0px"
	 width="180px" height="256px" viewBox="1525.1 143.4 180 256" enable-background="new 1525.1 143.4 180 256" xml:space="preserve">
<g>
	<g opacity="0.15">
		<path d="M1633.7,355.4c-2.3,0.2-4.5,0.4-6.6,0.6c0.4,1.5,1,3,1.1,4.5c0.3,4.3,0.3,8.7,0.5,13.1c0,1.2,0.4,2.4,0.3,3.6
			c0,0.6-0.4,1.3-0.9,1.7c-0.5,0.4-1.3,0.5-1.9,0.7c-6.1,1.5-12.2,2.6-18.4,3c-1.9,0.1-3.8,0-5.8,0c0.2-0.1,0.3-0.2,0.4-0.3
			c2.2-0.9,4.5-1.7,6.7-2.7c2.9-1.2,4.7-3.2,4.9-5.7c0.1-2,0.1-4,0.3-6c0.4-4.8,0.5-9.8,2-14.5c0-0.1,0-0.2-0.1-0.5
			c-1.6,0-3.1,0-4.8,0c0.1,0.5,0.2,0.9,0.3,1.4c0.7,5.4-0.3,10.7-0.7,16c0,0.3-0.6,0.7-1,0.7c-7.3,1.3-14.6,1.9-21.9,1.2
			c-1-0.1-1.9-0.2-2.9-0.3c-0.8,0-1.6,0.3-1.7,1.2c-0.2,0.9,0.6,1.3,1.3,1.4c0.6,0.1,1.2,0.1,1.8,0.1c0.5,0,6.9,0.3,9.1,0.2
			s2.1,0.7,1.4,0.9c-4.1,1.5-10.2,0.9-11.3,1.8c-1.1,0.8-1,1.5,0.1,1.9s5.3,0.4,8.2-0.1c2.9-0.5,4.7-1.3,6.8-2.6
			c0.7-0.5,1.6-0.6,1.8-0.1s-0.3,1.1-1,1.4c-1.3,0.5-6.8,2.1-7,4c-0.2,1.9,0.5,3.9,3.5,3.7s13.3-0.9,18.8-1.6c0,0,0,0.1,0,0.1
			c-2,0.5-6.1,1.5-8.9,2.1c-3.8,0.8-9.2,1.7-9.4,1.7c0,0,0,0,0,0c0,0,0,0,0,0l0,0c-1,0.2-1.7,1.1-1.7,2.1c0,1.2,1,2.2,2.2,2.2
			c0.2,0,0.4,0,0.6-0.1l0,0c0,0,21-7.5,22.8-6.4c-0.4,0.7-1.1,1.6-4.7,3.5c-2.1,1.1-4.3,1.9-6.5,2.8c-1.3,0.6-1.7,1.4-1.3,2.7
			c0.3,1,1.2,1.5,2.5,1.3c1-0.2,2-0.6,2.9-1c2.7-1.3,5.3-2.5,8-3.9c2.2-1.2,4.4-2.4,6.4-3.8c2-1.4,2.8-3.5,2.6-6
			c-0.2-1.5-0.2-3-0.2-4.5c0.1-5.6,0.2-11.2,0.5-16.8C1632.9,358.7,1633.4,357,1633.7,355.4z"/>
		<path d="M1608.4,235.6c-3.5,19.4,5.1,32,28.8,36.5s41.6-9.3,46.4-18.3c4.8-9,6.3-20.5,6.3-20.5l-1.7,22.2l11,9.6l-3.2,24.2
			l-8.6,21.3c0,0-4.2,12.5-15.1,22.8c-10.9,10.3-22.3,16.4-29.3,19c-6.9,2.6-6.9,3.6-11.4,4s-8.3-0.5-9.6-1.4
			c-1.3-0.9-0.2-3-6.6-1.4s-4.7-2.6-10.5-1.8c-5.7,0.9-17.1,2.5-24.7,0.8c-7.7-1.7-15.5-6.4-22.1-14.4c-6.5-8,7.9-44.6,7.9-44.6
			l12.4-57.6l2.2-4.1l14.8-9L1608.4,235.6z"/>
		<path d="M1568,200.9c-0.8-0.6-1.7-1.1-2.5-1.6c-1.2-0.7-0.8,0.3-2.1,0.8c0,0-4.1-8-4.1-20.8s7.5-25.9,27.6-25.9
			c20.1,0,28.9,15.3,28.9,36.7c0,11.7-3.8,20.1-5.6,28.3c-2.2,10.1-1.9,17.3-1.9,17.3s-7.6-5.1-14.6-5.8c-8.2-0.9-13.2,2.2-13.2,2.2
			s1.5-2.3,1.9-6.7c0.4-4-1.8-7.2-1.8-7.2"/>
		<path d="M1673.9,290.9c0,0-1.9,17.3-24,19.8c-22.2,2.5-35.3-14.8-35.3-14.8s13.9,3.7,32.1,2
			C1664.8,296.1,1673.9,290.9,1673.9,290.9z"/>
		<path d="M1567.6,212.4c0.4-0.3,0.9-0.6,1.3-1c1-1,1.9-2.1,2.8-3.1c0.4-0.4,0.9-1,1.5-1.1c0.6-0.1,1.5,0,1.9,0.4
			c0.3,0.3,0.2,1.4-0.1,1.8c-0.6,0.8-1.4,1.5-2.2,1.9c-1.5,0.7-3.2,1.1-4.8,1.6C1567.9,212.8,1567.8,212.6,1567.6,212.4z"/>
		<path d="M1607.7,242c-4.7-3.9-11.2-7.4-16.9-8.3c-4.8-0.8-8.1-0.3-12.4,2.4c-0.2,0.1-6.7,12.5-14.4,22.9
			c-7.6,10.4-18,22.6-18,47.4s16.6,36.9,24.3,41.8c2.5,1.6,5,1.4,7.5,0.7c1.9-0.5,2.8-2,2.7-4.2c-0.1-1.5-0.3-3.1-0.8-4.5
			c-1.4-4.3-3.1-8.6-4.6-12.9c-2.9-8.1-3-16.2,0.2-24.3c3.5-8.7,9.4-15,16.4-20c0.2-0.2,0.5-0.2,0.8-0.3c-2.6-6.3-1.6-12.1,1.8-17.6
			c3.3-5.3,7.8-9,13.1-11.4c0.6-0.3,1.2-0.4,1.8-0.5C1608,249.7,1607.6,246,1607.7,242z"/>
		<circle cx="1568.5" cy="187.5" r="2.1"/>
		<circle cx="1581.5" cy="188.7" r="4.2"/>
		<path d="M1582.5,214.1c-1.3-0.9-0.7-1.7,0-2.7c1.8-2.2,3.4-4.6,3.3-7.7c-0.1-1.5-0.4-1.9-1.9-1.6c-0.8,0.1-1.6,0.3-2.3,0.7
			c-4.9,2-9.4,1.2-13.6-1.8c-0.8-0.6-1.7-1.1-2.5-1.6c-1.2-0.7-1.7-2.2-2.9-1.2c0.5,2.7-4.4,7.4-11.1,10.2s-16.8,0.6-20.9,0.9
			c-4.1,0.3-4.8,4.1-4.3,6.3c0.5,2.2,2.2,4.6,2.2,4.6l21,5.3l31.2-7l4.2-3.6L1582.5,214.1z"/>
		<path d="M1588.5,213c1.9-3.4,2-7.4,0-9.4c-2-2-3.2-1.5-3.2-1.5c0.4,0.2,0.5,0.7,0.5,1.6c0.1,3.1-1.5,5.4-3.3,7.7
			c-0.8,1-1.3,1.8,0,2.7c0.2,0.1,0.2,0.4,0.3,0.5c-0.4-0.1-0.6-0.2-0.8-0.4c-0.7-0.9-1.3-0.9-2.2-0.1c-2.8,2.4-6.1,4-9.7,5.1
			c-6.9,2-14,2.8-21.2,2.3c-2.9-0.2-5.8-1-8.6-1.8c-2.5-0.7-4.9-2-7.3-2.9c-0.8-0.3-1.6-0.4-2.5-0.4c-2,0.2-2.9,2-2,3.7
			c0.9,1.6,1.2,2,3.6,2.8c2.3,0.7,4.9,0.5,4.9,0.5s0.6,2.7,3.2,3.3s10.8,1.4,19.2,0.6c5.5-0.5,13.3-2.3,19.9-5.3
			C1585.7,218.9,1586.7,216.5,1588.5,213z"/>
		<path d="M1702.5,251.7c-2.7,3.3-6.3,1-6.3,1s1.9-5.9,0.5-11.1c-1.4-5.2-6.8-8.3-6.8-8.3s-0.3,7.8-4.4,16.6
			c-4.2,8.8-11.6,14.3-11.6,14.3s6.2-6.4,15.1,0.8s5.6,29.7-5.2,50c-9.5,18-31,32.5-31,32.5s20.9-7.6,34-32.3
			c7.2-13.5,11.7-27.5,13.8-40.4C1702.6,263.2,1702.5,252,1702.5,251.7z"/>
	</g>
	<g>
		<g>
			<g>
				<path fill="#F15B2A" d="M1633.7,352.4c-2.3,0.2-4.5,0.4-6.6,0.6c0.4,1.5,1,3,1.1,4.5c0.3,4.3,0.3,8.7,0.5,13.1
					c0,1.2,0.4,2.4,0.3,3.6c0,0.6-0.4,1.3-0.9,1.7c-0.5,0.4-1.3,0.5-1.9,0.7c-6.1,1.5-12.2,2.6-18.4,3c-1.9,0.1-3.8,0-5.8,0
					c0.2-0.1,0.3-0.2,0.4-0.3c2.2-0.9,4.5-1.7,6.7-2.7c2.9-1.2,4.7-3.2,4.9-5.7c0.1-2,0.1-4,0.3-6c0.4-4.8,0.5-9.8,2-14.5
					c0-0.1,0-0.2-0.1-0.5c-1.6,0-3.1,0-4.8,0c0.1,0.5,0.2,0.9,0.3,1.4c0.7,5.4-0.3,10.7-0.7,16c0,0.3-0.6,0.7-1,0.7
					c-7.3,1.3-14.6,1.9-21.9,1.2c-1-0.1-1.9-0.2-2.9-0.3c-0.8,0-1.6,0.3-1.7,1.2c-0.2,0.9,0.6,1.3,1.3,1.4c0.6,0.1,1.2,0.1,1.8,0.1
					c0.5,0,6.9,0.3,9.1,0.2s2.1,0.7,1.4,0.9c-4.1,1.5-10.2,0.9-11.3,1.8c-1.1,0.8-1,1.5,0.1,1.9s5.3,0.4,8.2-0.1
					c2.9-0.5,4.7-1.3,6.8-2.6c0.7-0.5,1.6-0.6,1.8-0.1s-0.3,1.1-1,1.4c-1.3,0.5-6.8,2.1-7,4c-0.2,1.9,0.5,3.9,3.5,3.7
					s13.3-0.9,18.8-1.6c0,0,0,0.1,0,0.1c-2,0.5-6.1,1.5-8.9,2.1c-3.8,0.8-9.2,1.7-9.4,1.7c0,0,0,0,0,0c0,0,0,0,0,0l0,0
					c-1,0.2-1.7,1.1-1.7,2.1c0,1.2,1,2.2,2.2,2.2c0.2,0,0.4,0,0.6-0.1l0,0c0,0,21-7.5,22.8-6.4c-0.4,0.7-1.1,1.6-4.7,3.5
					c-2.1,1.1-4.3,1.9-6.5,2.8c-1.3,0.6-1.7,1.4-1.3,2.7c0.3,1,1.2,1.5,2.5,1.3c1-0.2,2-0.6,2.9-1c2.7-1.3,5.3-2.5,8-3.9
					c2.2-1.2,4.4-2.4,6.4-3.8c2-1.4,2.8-3.5,2.6-6c-0.2-1.5-0.2-3-0.2-4.5c0.1-5.6,0.2-11.2,0.5-16.8
					C1632.9,355.7,1633.4,354,1633.7,352.4z"/>
			</g>
			<path fill="#FFFFFF" d="M1608.4,232.6c-3.5,19.4,5.1,32,28.8,36.5s41.6-9.3,46.4-18.3c4.8-9,6.3-20.5,6.3-20.5l-1.7,22.2l11,9.6
				l-3.2,24.2l-8.6,21.3c0,0-4.2,12.5-15.1,22.8c-10.9,10.3-22.3,16.4-29.3,19c-6.9,2.6-6.9,3.6-11.4,4s-8.3-0.5-9.6-1.4
				c-1.3-0.9-0.2-3-6.6-1.4s-4.7-2.6-10.5-1.8c-5.7,0.9-17.1,2.5-24.7,0.8c-7.7-1.7-15.5-6.4-22.1-14.4c-6.5-8,7.9-44.6,7.9-44.6
				l12.4-57.6l2.2-4.1l14.8-9L1608.4,232.6z"/>
			<path fill="#008057" d="M1568,197.9c-0.8-0.6-1.7-1.1-2.5-1.6c-1.2-0.7-0.8,0.3-2.1,0.8c0,0-4.1-8-4.1-20.8s7.5-25.9,27.6-25.9
				c20.1,0,28.9,15.3,28.9,36.7c0,11.7-3.8,20.1-5.6,28.3c-2.2,10.1-1.9,17.3-1.9,17.3s-7.6-5.1-14.6-5.8
				c-8.2-0.9-13.2,2.2-13.2,2.2s1.5-2.3,1.9-6.7c0.4-4-1.8-7.2-1.8-7.2"/>
			<path fill="#3953A4" d="M1673.9,287.9c0,0-1.9,17.3-24,19.8c-22.2,2.5-35.3-14.8-35.3-14.8s13.9,3.7,32.1,2
				C1664.8,293.1,1673.9,287.9,1673.9,287.9z"/>
			<path fill="#FFFFFF" d="M1567.6,209.4c0.4-0.3,0.9-0.6,1.3-1c1-1,1.9-2.1,2.8-3.1c0.4-0.4,0.9-1,1.5-1.1c0.6-0.1,1.5,0,1.9,0.4
				c0.3,0.3,0.2,1.4-0.1,1.8c-0.6,0.8-1.4,1.5-2.2,1.9c-1.5,0.7-3.2,1.1-4.8,1.6C1567.9,209.8,1567.8,209.6,1567.6,209.4z"/>
			<path fill="#314346" d="M1607.7,239c-4.7-3.9-11.2-7.4-16.9-8.3c-4.8-0.8-8.1-0.3-12.4,2.4c-0.2,0.1-6.7,12.5-14.4,22.9
				c-7.6,10.4-18,22.6-18,47.4s16.6,36.9,24.3,41.8c2.5,1.6,5,1.4,7.5,0.7c1.9-0.5,2.8-2,2.7-4.2c-0.1-1.5-0.3-3.1-0.8-4.5
				c-1.4-4.3-3.1-8.6-4.6-12.9c-2.9-8.1-3-16.2,0.2-24.3c3.5-8.7,9.4-15,16.4-20c0.2-0.2,0.5-0.2,0.8-0.3
				c-2.6-6.3-1.6-12.1,1.8-17.6c3.3-5.3,7.8-9,13.1-11.4c0.6-0.3,1.2-0.4,1.8-0.5C1608,246.7,1607.6,243,1607.7,239z"/>
			<circle fill="#FFFFFF" cx="1568.5" cy="184.5" r="2.1"/>
			<circle fill="#FFFFFF" cx="1581.5" cy="185.7" r="4.2"/>
			<path fill="#FBB03B" d="M1582.5,211.1c-1.3-0.9-0.7-1.7,0-2.7c1.8-2.2,3.4-4.6,3.3-7.7c-0.1-1.5-0.4-1.9-1.9-1.6
				c-0.8,0.1-1.6,0.3-2.3,0.7c-4.9,2-9.4,1.2-13.6-1.8c-0.8-0.6-1.7-1.1-2.5-1.6c-1.2-0.7-1.7-2.2-2.9-1.2
				c0.5,2.7-4.4,7.4-11.1,10.2s-16.8,0.6-20.9,0.9c-4.1,0.3-4.8,4.1-4.3,6.3c0.5,2.2,2.2,4.6,2.2,4.6l21,5.3l31.2-7l4.2-3.6
				L1582.5,211.1z"/>
			<path fill="#F79420" d="M1588.5,210c1.9-3.4,2-7.4,0-9.4c-2-2-3.2-1.5-3.2-1.5c0.4,0.2,0.5,0.7,0.5,1.6c0.1,3.1-1.5,5.4-3.3,7.7
				c-0.8,1-1.3,1.8,0,2.7c0.2,0.1,0.2,0.4,0.3,0.5c-0.4-0.1-0.6-0.2-0.8-0.4c-0.7-0.9-1.3-0.9-2.2-0.1c-2.8,2.4-6.1,4-9.7,5.1
				c-6.9,2-14,2.8-21.2,2.3c-2.9-0.2-5.8-1-8.6-1.8c-2.5-0.7-4.9-2-7.3-2.9c-0.8-0.3-1.6-0.4-2.5-0.4c-2,0.2-2.9,2-2,3.7
				c0.9,1.6,1.2,2,3.6,2.8c2.3,0.7,4.9,0.5,4.9,0.5s0.6,2.7,3.2,3.3s10.8,1.4,19.2,0.6c5.5-0.5,13.3-2.3,19.9-5.3
				C1585.7,215.9,1586.7,213.5,1588.5,210z"/>
			<path fill="#314346" d="M1702.5,248.7c-2.7,3.3-6.3,1-6.3,1s1.9-5.9,0.5-11.1c-1.4-5.2-6.8-8.3-6.8-8.3s-0.3,7.8-4.4,16.6
				c-4.2,8.8-11.6,14.3-11.6,14.3s6.2-6.4,15.1,0.8s5.6,29.7-5.2,50c-9.5,18-31,32.5-31,32.5s20.9-7.6,34-32.3
				c7.2-13.5,11.7-27.5,13.8-40.4C1702.6,260.2,1702.5,249,1702.5,248.7z"/>
		</g>
	</g>
</g>
<path fill="#4184C5" d="M1634.6,295.3c-0.1,0.6-0.1,1.2,0,1.7c0.8,5.3,7.3,8.6,14.5,7.6c7.2-1.1,12.4-6.2,11.7-11.5
	c0-0.2-0.1-0.4-0.1-0.6c-3.8,0.9-8.5,1.8-14,2.3C1642.4,295.3,1638.3,295.4,1634.6,295.3z"/>
<path fill="#51A1D9" d="M1640.9,295.2c-0.1,0.4-0.1,0.9,0,1.3c0.4,2.8,3.8,4.5,7.6,4c3.8-0.6,6.5-3.3,6.1-6c0-0.2-0.1-0.5-0.2-0.7
	c-2.4,0.4-4.9,0.8-7.8,1C1644.7,295,1642.8,295.2,1640.9,295.2z"/>
</svg>
