<?xml version="1.0" encoding="utf-8"?>
<!-- Generator: Adobe Illustrator 18.1.0, SVG Export Plug-In . SVG Version: 6.00 Build 0)  -->
<!DOCTYPE svg PUBLIC "-//W3C//DTD SVG 1.1//EN" "http://www.w3.org/Graphics/SVG/1.1/DTD/svg11.dtd">
<svg version="1.1" id="Layer_1" xmlns="http://www.w3.org/2000/svg" xmlns:xlink="http://www.w3.org/1999/xlink" x="0px" y="0px"
	 width="320px" height="280px" viewBox="0 0 320 280" enable-background="new 0 0 320 280" xml:space="preserve">
<g>
	<g opacity="0.15">
		<path d="M101.7,227.8c3.5-11.1-0.8-23.7-11.2-30.1c-4.2-2.6-8.9-3.9-13.8-3.9c-6.9,0-13.3,2.6-18.2,7.3l-23.7-14.7l98.8-159
			L157.3,42c-1.4,4.4-1.6,9.2-0.5,13.8c1.6,6.8,5.7,12.6,11.7,16.3c4.2,2.6,8.9,3.9,13.8,3.9c6.9,0,13.3-2.6,18.2-7.3l23.7,14.7
			l-98.8,159L101.7,227.8z"/>
		<path d="M135.7,36.3l14.3,8.9c-0.6,4-0.4,8.2,0.5,12.2c2,8.5,7.2,15.7,14.6,20.3c5.2,3.2,11.1,4.9,17.2,4.9
			c6.8,0,13.3-2.1,18.7-5.8l14.2,8.8l-91.9,148l-14.3-8.9c0.6-4,0.4-8.2-0.5-12.2c-2-8.5-7.2-15.7-14.6-20.3
			c-5.2-3.2-11.2-4.9-17.2-4.9c-6.8,0-13.3,2.1-18.7,5.8l-14.2-8.8L135.7,36.3 M131.5,18.4L25.9,188.4l34.1,21.2
			c3.7-6,10.2-9.3,16.8-9.3c3.6,0,7.1,1,10.4,3c9.2,5.7,12.1,17.9,6.3,27.1l34.1,21.2L233.1,81.5L199,60.3c-3.7,6-10.2,9.3-16.8,9.3
			c-3.5,0-7.1-1-10.4-3c-9.2-5.7-12.1-17.9-6.3-27.1L131.5,18.4L131.5,18.4z"/>
	</g>
	<g>
		<path fill="#B5DCE5" d="M101.7,224.8c3.5-11.1-0.8-23.7-11.2-30.1c-4.2-2.6-8.9-3.9-13.8-3.9c-6.9,0-13.3,2.6-18.2,7.3l-23.7-14.7
			l98.8-159L157.3,39c-1.4,4.4-1.6,9.2-0.5,13.8c1.6,6.8,5.7,12.6,11.7,16.3c4.2,2.6,8.9,3.9,13.8,3.9c6.9,0,13.3-2.6,18.2-7.3
			l23.7,14.7l-98.8,159L101.7,224.8z"/>
		<path fill="#FFFFFF" d="M135.7,33.3l14.3,8.9c-0.6,4-0.4,8.2,0.5,12.2c2,8.5,7.2,15.7,14.6,20.3c5.2,3.2,11.1,4.9,17.2,4.9
			c6.8,0,13.3-2.1,18.7-5.8l14.2,8.8l-91.9,148l-14.3-8.9c0.6-4,0.4-8.2-0.5-12.2c-2-8.5-7.2-15.7-14.6-20.3
			c-5.2-3.2-11.2-4.9-17.2-4.9c-6.8,0-13.3,2.1-18.7,5.8l-14.2-8.8L135.7,33.3 M131.5,15.4L25.9,185.4l34.1,21.2
			c3.7-6,10.2-9.3,16.8-9.3c3.6,0,7.1,1,10.4,3c9.2,5.7,12.1,17.9,6.3,27.1l34.1,21.2L233.1,78.5L199,57.3c-3.7,6-10.2,9.3-16.8,9.3
			c-3.5,0-7.1-1-10.4-3c-9.2-5.7-12.1-17.9-6.3-27.1L131.5,15.4L131.5,15.4z"/>
	</g>
</g>
<g>
	<g opacity="0.15">
		<path d="M128.5,234c7-9.9,6.6-23.8-1.7-33.4c-5.2-5.9-12.6-9.3-20.5-9.3c-4.3,0-8.5,1-12.3,3l-19.5-22.4L222.8,43.3l19.5,22.4
			c-7,9.9-6.6,23.8,1.7,33.4c5.1,5.9,12.6,9.3,20.5,9.3c4.3,0,8.5-1,12.3-3l19.5,22.4L147.9,256.4L128.5,234z"/>
		<path d="M222.1,52.4l12.1,14c-1.9,3.9-3.1,8.1-3.4,12.5c-0.6,8.9,2.3,17.6,8.1,24.4c6.4,7.4,15.6,11.6,25.4,11.6
			c3.6,0,7.1-0.6,10.5-1.7l12.1,14l-138.4,120l-12.1-14c1.9-3.9,3.1-8.1,3.4-12.5c0.6-8.9-2.2-17.6-8.1-24.4
			c-6.4-7.4-15.6-11.6-25.4-11.6c-3.6,0-7.1,0.6-10.5,1.7l-12.1-14L222.1,52.4 M223.4,34.1L65.4,171.2l27.5,31.7
			c3.9-3.4,8.7-5,13.5-5c5.8,0,11.5,2.4,15.6,7.1c7.4,8.6,6.5,21.6-2.1,29l27.5,31.7l158.1-137.1l-27.5-31.7c-3.9,3.4-8.7,5-13.5,5
			c-5.8,0-11.5-2.4-15.6-7.1c-7.5-8.6-6.5-21.6,2.1-29L223.4,34.1L223.4,34.1z"/>
	</g>
	<g>
		<path fill="#FFFFFF" d="M128.5,231c7-9.9,6.6-23.8-1.7-33.4c-5.2-5.9-12.6-9.3-20.5-9.3c-4.3,0-8.5,1-12.3,3l-19.5-22.4
			L222.8,40.3l19.5,22.4c-7,9.9-6.6,23.8,1.7,33.4c5.1,5.9,12.6,9.3,20.5,9.3c4.3,0,8.5-1,12.3-3l19.5,22.4L147.9,253.4L128.5,231z"
			/>
		<path fill="#D8EAEF" d="M222.1,49.4l12.1,14c-1.9,3.9-3.1,8.1-3.4,12.5c-0.6,8.9,2.3,17.6,8.1,24.4c6.4,7.4,15.6,11.6,25.4,11.6
			c3.6,0,7.1-0.6,10.5-1.7l12.1,14l-138.4,120l-12.1-14c1.9-3.9,3.1-8.1,3.4-12.5c0.6-8.9-2.2-17.6-8.1-24.4
			c-6.4-7.4-15.6-11.6-25.4-11.6c-3.6,0-7.1,0.6-10.5,1.7l-12.1-14L222.1,49.4 M223.4,31.1L65.4,168.2l27.5,31.7
			c3.9-3.4,8.7-5,13.5-5c5.8,0,11.5,2.4,15.6,7.1c7.4,8.6,6.5,21.6-2.1,29l27.5,31.7l158.1-137.1l-27.5-31.7c-3.9,3.4-8.7,5-13.5,5
			c-5.8,0-11.5-2.4-15.6-7.1c-7.5-8.6-6.5-21.6,2.1-29L223.4,31.1L223.4,31.1z"/>
	</g>
</g>
<g id="XMLID_1_">
	<g>
		<path fill="#D8EAEF" d="M218.2,152c3.8,4.5,3.1,11.3-1.4,15c-4.5,3.7-11.1,3.1-14.9-1.2c-0.1-0.1-0.1-0.1-0.2-0.2
			c-3.7-4.5-3.1-11.1,1.2-14.9c0.1,0,0.1-0.1,0.2-0.1C207.7,146.8,214.5,147.5,218.2,152z"/>
		<path fill="#D8EAEF" d="M200.6,166.8c3.6,4.5,2.9,11.1-1.6,14.8c-4.5,3.8-11.3,3.1-15-1.4c-3.7-4.5-3.1-11.1,1.2-14.8
			c0.1-0.1,0.1-0.1,0.2-0.2c4.5-3.8,11.3-3.1,15,1.4C200.5,166.7,200.6,166.8,200.6,166.8z"/>
		<path fill="#D8EAEF" d="M182.7,181.2c3.8,4.6,3.1,11.3-1.4,15c-4.6,3.8-11.3,3.1-15-1.4c-3.8-4.5-3.1-11.3,1.4-15
			C172.2,176.1,179,176.7,182.7,181.2z"/>
		<polygon fill="#D8EAEF" points="251.3,134.1 245.1,139.2 234.4,126.3 		"/>
		<path fill="#D8EAEF" d="M243.2,140.7L223.3,157c0,0-0.9-4.8-4-8c-3.2-3.2-8-4.3-8-4.3l21.3-16.9L243.2,140.7z"/>
		<polygon fill="#D8EAEF" points="162.7,191.8 156.3,197 153.2,193.2 157.7,189.5 161.3,186.5 		"/>
		<polygon fill="#D8EAEF" points="197.5,156.9 196.5,161.3 192.8,160.5 		"/>
		<polygon fill="#D8EAEF" points="179,171.4 178.7,175.6 174.5,175.7 		"/>
		<path fill="#D8EAEF" d="M229.9,126.6l-27.8,23l-17.7,14.7l-4.3,3.5L165,150.2l50.8-40.7c0,0,4,2.7,8.2,7.8
			C228.2,122.4,229.9,126.6,229.9,126.6z"/>
		<polygon fill="#D8EAEF" points="156.3,187.7 151.8,191.5 137.3,173.9 141.8,170.1 		"/>
		<path fill="#D8EAEF" d="M151.4,138.1l-19.6,16.2l26.3,31.8l19.6-16.2L151.4,138.1z M151.9,170.3l-13.5-16.3l11.8-9.8l13.5,16.3
			L151.9,170.3z"/>
		<polygon fill="#D8EAEF" points="192.3,125.1 184.6,132.1 176.4,122.2 183.7,116.2 		"/>
		<polygon fill="#D8EAEF" points="185.5,111.5 172,123.4 169.1,120.2 183.1,108.6 		"/>
		<polygon fill="#D8EAEF" points="155.3,133 126.8,155.2 124.4,152.3 152.7,128.9 		"/>
	</g>
	<g>
	</g>
</g>
</svg>
