<?xml version="1.0" encoding="utf-8"?>
<!-- Generator: Adobe Illustrator 18.1.0, SVG Export Plug-In . SVG Version: 6.00 Build 0)  -->
<!DOCTYPE svg PUBLIC "-//W3C//DTD SVG 1.1//EN" "http://www.w3.org/Graphics/SVG/1.1/DTD/svg11.dtd">
<svg version="1.1" id="Layer_1" xmlns="http://www.w3.org/2000/svg" xmlns:xlink="http://www.w3.org/1999/xlink" x="0px" y="0px"
	 width="236px" height="188px" viewBox="0 0 236 188" enable-background="new 0 0 236 188" xml:space="preserve">
<g>
	<g opacity="0.15">
		
			<ellipse transform="matrix(0.9752 -0.2213 0.2213 0.9752 -16.1308 16.893)" fill="#231F20" cx="67.3" cy="80.4" rx="29.6" ry="16.8"/>
		
			<ellipse transform="matrix(0.9752 -0.2213 0.2213 0.9752 -15.5516 16.6234)" fill="#231F20" cx="66.4" cy="77.7" rx="29.6" ry="16.8"/>
	</g>
	<g>
		<g>
			
				<ellipse transform="matrix(0.9752 -0.2213 0.2213 0.9752 -15.6882 16.8434)" fill="#F15A38" cx="67.3" cy="78.4" rx="29.6" ry="16.8"/>
			
				<ellipse transform="matrix(0.9752 -0.2213 0.2213 0.9752 -15.109 16.5738)" fill="#F79375" cx="66.4" cy="75.7" rx="29.6" ry="16.8"/>
		</g>
	</g>
</g>
<path opacity="0.5" fill="#E27961" d="M83.5,86.9c0,0-19.4,1.1-24-11.2c-4.4-12-14.9-8-14.9-8l-9,9.6l29.8,15.6
	c0,0,6.1-0.2,12.2-3.1C83.5,86.9,83.5,86.9,83.5,86.9z"/>
<g>
	<g opacity="0.15">
		<ellipse transform="matrix(0.9727 0.232 -0.232 0.9727 23.4851 -6.1856)" fill="#231F20" cx="38" cy="96.8" rx="29.6" ry="16.8"/>
		
			<ellipse transform="matrix(0.9727 0.232 -0.232 0.9727 22.8359 -6.3515)" fill="#231F20" cx="38.4" cy="93.9" rx="29.6" ry="16.8"/>
	</g>
	<g>
		<g>
			
				<ellipse transform="matrix(0.9727 0.232 -0.232 0.9727 23.0211 -6.2401)" fill="#F15A38" cx="38" cy="94.8" rx="29.6" ry="16.8"/>
			
				<ellipse transform="matrix(0.9727 0.232 -0.232 0.9727 22.3719 -6.4061)" fill="#F79375" cx="38.4" cy="91.9" rx="29.6" ry="16.8"/>
		</g>
	</g>
</g>
<g>
	<g opacity="0.15">
		
			<ellipse transform="matrix(0.9886 -0.1504 0.1504 0.9886 -21.5396 17.2713)" fill="#231F20" cx="103.4" cy="151.1" rx="24.3" ry="27.6"/>
		<path fill="#231F20" d="M102.5,119c8.7-1.7,17.7-3,26.2-5.4c14.9-4.1,30-10.3,41.9-20.2c5.4-4.4,11.7-10.1,12.3-16.3
			c0.6-6.3-0.8-9.2-2.5-12.2c-2.3-3.8-5.2-7.1-8.3-10.3c-3-3-6.1-5.7-9.5-8.3c-1.8-1.4-4.1-3.3-6-4.3C147,37,143.7,24,149.6,14.8
			c3.5-5.6,9.9-8.9,16.4-8.8c7.4,0.1,14,4.8,20.1,8.6c12.7,7.9,24.7,17.9,33,30.5c4.2,6.4,7.4,13.6,9,21.1c1.5,7.2,1.4,14.6,0,21.8
			c-3.1,15.9-12,30.2-23.2,41.6c-11.2,11.5-24.7,20.6-39,27.9c-13.4,6.9-27.6,12.3-42,16.3c-6.4,1.7-12.8,3.9-19.5,3.7
			c-5-0.1-10.1-1.5-14.3-4.2c-9.8-6.4-13.5-19.3-12.4-30.5c0.5-4.9,2.2-9.7,5.3-13.5c3.1-3.8,7.3-6.5,11.8-8.2
			C97.3,120.2,99.9,119.5,102.5,119z"/>
		<path fill="#231F20" d="M127.5,144.8c2.3,15.1-6.6,28.9-19.9,30.9c-13.3,2-25.9-8.5-28.2-23.6c-2.3-15.1,4.5-25.9,18.1-29.9
			C110.4,118.5,125.2,129.8,127.5,144.8z"/>
		<path fill="#231F20" d="M179.8,84.5c9.2-8.3,11-24.9,2-38.3c-9-13.4-24-7.3-30.2-14.1c-5.5-6-3.5-14.3-3.5-14.3s-7.1,13.9,2.3,23
			c9.6,9.2,23.5,15.6,29.9,27.7C185.6,78.5,179.8,84.5,179.8,84.5z"/>
		<path fill="#231F20" d="M127.9,138.2c0,0,3.1,11.1,1.8,16.4c-1.3,5.3-2.6,11.4-6.6,16c-4,4.6-8.5,5.4-8.5,5.4s24.9-5.3,43.4-14.5
			c21-10.4,28.7-16.4,28.7-16.4s-7.3-9.4-26.1-12.4S127.9,138.2,127.9,138.2z"/>
		<path opacity="0.5" fill="#231F20" d="M125.4,139.1c0,0-2.6,10.6-12.8,17.6c-10.2,7-31.3,2.6-31.3,2.6s14.2,25.2,33.2,14.2
			C134.8,161.7,125.4,139.1,125.4,139.1z"/>
	</g>
	<g>
		<g>
			<g>
				<g opacity="0.15">
					
						<ellipse transform="matrix(0.9886 -0.1504 0.1504 0.9886 -21.2389 17.2486)" fill="#231F20" cx="103.4" cy="149.1" rx="24.3" ry="27.6"/>
				</g>
				<g>
					<g>
						<path fill="#F15A38" d="M102.5,117c8.7-1.7,17.7-3,26.2-5.4c14.9-4.1,30-10.3,41.9-20.2c5.4-4.4,11.7-10.1,12.3-16.3
							c0.6-6.3-0.8-9.2-2.5-12.2c-2.3-3.8-5.2-7.1-8.3-10.3c-3-3-6.1-5.7-9.5-8.3c-1.8-1.4-4.1-3.3-6-4.3
							C147,35,143.7,22,149.6,12.8c3.5-5.6,9.9-8.9,16.4-8.8c7.4,0.1,14,4.8,20.1,8.6c12.7,7.9,24.7,17.9,33,30.5
							c4.2,6.4,7.4,13.6,9,21.1c1.5,7.2,1.4,14.6,0,21.8c-3.1,15.9-12,30.2-23.2,41.6c-11.2,11.5-24.7,20.6-39,27.9
							c-13.4,6.9-27.6,12.3-42,16.3c-6.4,1.7-12.8,3.9-19.5,3.7c-5-0.1-10.1-1.5-14.3-4.2c-9.8-6.4-13.5-19.3-12.4-30.5
							c0.5-4.9,2.2-9.7,5.3-13.5c3.1-3.8,7.3-6.5,11.8-8.2C97.3,118.2,99.9,117.5,102.5,117z"/>
					</g>
					<path fill="#F79375" d="M127.5,142.8c2.3,15.1-6.6,28.9-19.9,30.9c-13.3,2-25.9-8.5-28.2-23.6c-2.3-15.1,4.5-25.9,18.1-29.9
						C110.4,116.5,125.2,127.8,127.5,142.8z"/>
				</g>
			</g>
			<path fill="#D14730" d="M179.8,82.5c9.2-8.3,11-24.9,2-38.3c-9-13.4-24-7.3-30.2-14.1c-5.5-6-3.5-14.3-3.5-14.3s-7.1,13.9,2.3,23
				c9.6,9.2,23.5,15.6,29.9,27.7C185.6,76.5,179.8,82.5,179.8,82.5z"/>
			<path fill="#D14730" d="M127.9,136.2c0,0,3.1,11.1,1.8,16.4c-1.3,5.3-2.6,11.4-6.6,16c-4,4.6-8.5,5.4-8.5,5.4s24.9-5.3,43.4-14.5
				c21-10.4,28.7-16.4,28.7-16.4s-7.3-9.4-26.1-12.4S127.9,136.2,127.9,136.2z"/>
			<path opacity="0.5" fill="#E27961" d="M125.4,137.1c0,0-2.6,10.6-12.8,17.6c-10.2,7-31.3,2.6-31.3,2.6s14.2,25.2,33.2,14.2
				C134.8,159.7,125.4,137.1,125.4,137.1z"/>
		</g>
	</g>
</g>
</svg>
