<?xml version="1.0" encoding="utf-8"?>
<!-- Generator: Adobe Illustrator 18.1.0, SVG Export Plug-In . SVG Version: 6.00 Build 0)  -->
<!DOCTYPE svg PUBLIC "-//W3C//DTD SVG 1.1//EN" "http://www.w3.org/Graphics/SVG/1.1/DTD/svg11.dtd">
<svg version="1.1" id="Layer_1" xmlns="http://www.w3.org/2000/svg" xmlns:xlink="http://www.w3.org/1999/xlink" x="0px" y="0px"
	 width="345.1px" height="255px" viewBox="-112.5 -53.1 345.1 255" enable-background="new -112.5 -53.1 345.1 255"
	 xml:space="preserve">
<path opacity="0.1" enable-background="new    " d="M12.8,162.1c-7.3-14.1-15-50.8-7.9-56.7c6.2-5.2,32.3,2.4,46.8,1.9
	c17.5-2.1,56.1-15.5,64.6-5.5c3.9,4.6,4.2,14.6,1.5,30.9s-10.3,34.1-15.5,41.4c-10.5,14.6-25,23.2-43.4,23.3
	C37.1,197.6,21.9,179.9,12.8,162.1z"/>
<path opacity="0.1" enable-background="new    " d="M-5.8-37c0,0-18.5-2.8-30.3-2.6s-28.9,3-28.9,3s14.4-11.9,30-11.4
	C-19.3-47.3-5.8-37-5.8-37z"/>
<path opacity="0.1" enable-background="new    " d="M-49.6-26.6c0,0-9.2,1.4-15.4,3.2c-6.1,1.7-15.4,5.1-15.4,5.1s9.1-6.5,17.1-8.4
	C-55.2-28.7-49.6-26.6-49.6-26.6z"/>
<path opacity="0.1" enable-background="new    " d="M201.6-12.3c0,0-8.3-4.2-14.3-6.4s-15.5-4.9-15.5-4.9s11.2,0,18.8,3.2
	C198.3-17.2,201.6-12.3,201.6-12.3z"/>
<path opacity="0.1" enable-background="new    " d="M157.3-52.5c22.1,3.2,39.3,23.8,39.3,23.8s-23.4-8.3-39.9-11.8
	c-16.4-3.5-43.3-4.3-43.3-4.3S135.2-55.7,157.3-52.5z"/>
<path opacity="0.1" enable-background="new    " d="M85.9,24.8c-1.9-2.3-7.3-4.2-11.2-4.5c-2.4-0.2-4.7-0.2-7.7,0
	c-10.3,1-19.9,5.4-29.1,9.7c-9.1,4.2-18,9.3-27.7,12.2c-0.2,0-0.3,0.1-0.5,0.1c-3.3,0.8-6.7-0.3-9-2.4c-1.2-1-2-2.4-2.5-3.8
	s-0.6-3-0.6-4.4c0.3-2.9,1.9-5.7,4.2-7.3c0.8-0.6,1.6-1,2.4-1.3c0,0-0.1,0,0,0c6.1-2.1,18.1-6.3,18.1-6.3s-11.3-4.4-18.2-2.5
	c-6.8,1.9-11.7,5.8-13.3,8.2c-1.6,2.4-2.7,5.2-3,8.1c-0.3,3.1,0,6,1.1,8.9c1.1,2.9,2.9,5.5,5.2,7.6c4.6,4.2,11.5,5.8,17.5,4.2
	c4.4-1.1,8.6-3.3,12.6-5.4c10-5.3,19.4-11.7,29.4-17c6.6-3.5,14.2-6.6,21.9-7.3c-4.2,1.1-7.8,4.7-7.8,9.7c0,2.1,4.2-3.8,9.2-4.9
	C82.8,25.3,89.1,28.6,85.9,24.8z"/>
<g>
	<defs>
		<path id="SVGID_1_" d="M111.5,107.5c-1.7-2.4-40.9,6.2-58.1,7.5c-17.1,1.3-44.4-2.6-46.8-1.8s-0.1,22,4.1,33.5
			c5.5,14.8,16.1,41.1,56.9,35.2C107.9,176,113.2,109.9,111.5,107.5z"/>
	</defs>
	<use xlink:href="#SVGID_1_"  overflow="visible" fill="#824741"/>
	<clipPath id="SVGID_2_">
		<use xlink:href="#SVGID_1_"  overflow="visible"/>
	</clipPath>
	<path clip-path="url(#SVGID_2_)" fill="#D33C3C" d="M56.7,184c-16.5,1.2-30.2-8.8-38.9-22.1c3.7-7.2,13-13.5,20.9-14.6
		c9.3-1.3,14.2,0.6,14.2,0.6s-4.4,2.6-6.6,6.5c-2.2,3.8-2.6,10.9-0.1,18.8c-0.8-6.9,0.6-14.1,5.4-19.7c5.9-6.9,15.3-8.8,24-7.8
		c10.8,1.5,15.8,12.4,17.5,22C86.2,177.9,68.4,183.3,56.7,184z"/>
	<g clip-path="url(#SVGID_2_)">
		<g>
			<g>
				<path fill="#FFFFFF" d="M80.5,101.9c6.8-1,12.5-1.8,19.4-2.5c0.1,4.8,0.1,7.2,0.1,12c0,3.8-1.7,6.6-5,7.4
					c-3.2,0.8-5.4,1.3-8.4,1.2c-3.1-0.1-4.5-2.2-4.9-6C81.3,109.1,81,106.8,80.5,101.9z"/>
				<path fill="#FFFFFF" d="M100.9,99.4c4.2-1.2,7.7-1.7,12-2.5c-0.1,4.6-0.1,7-0.3,11.6c-0.1,3.7-2.1,6.6-3.5,7.3
					c-1.4,0.7-3,1-4.8,1.1c-1.7,0.1-3.1-1.7-3.2-5.4C100.9,106.8,101,104.4,100.9,99.4z"/>
				<path fill="#FFFFFF" d="M50.1,104.6c9.6-0.5,19.2-1.4,28.8-2.6c0.4,4.6,0.8,7.1,1.2,12c0.4,3.7-2.2,6.5-6,7.5
					c-3.9,0.9-11.8,1.8-15.5,1.6c-3.8-0.2-5.7-2.9-6.7-6.6C50.7,111.8,50.5,109.3,50.1,104.6z"/>
				<path fill="#FFFFFF" d="M20,106.3c9.5-0.5,19.1-1.3,28.5-2.5c0.4,4.9,0.7,8.2,1.5,13c0.6,3.7-2.7,7.1-5.4,7.9
					c-2.8,0.8-13.1,0.4-17.2,0.1c-4.1-0.3-6.1-3-6.5-6.7C20.4,113.4,20.3,110.9,20,106.3z"/>
				<path fill="#FFFFFF" d="M1.3,104.2c5.9,0.6,11.8,0.9,17.6,0.9c0.1,4.9,0.1,7.3,0.5,12c0.3,3.7-1.1,6-3.5,6.3
					c-2.5,0.4-6.8-0.8-9.7-3.2C3.1,117.5,1.4,108.9,1.3,104.2z"/>
			</g>
		</g>
	</g>
</g>
<circle opacity="0.1" fill="#E0B8D0" cx="-66" cy="51.4" r="33.6"/>
<circle opacity="0.1" fill="#E0B8D0" cx="167.5" cy="44.6" r="42.5"/>
</svg>
