<?xml version="1.0" encoding="utf-8"?>
<!-- Generator: Adobe Illustrator 18.1.0, SVG Export Plug-In . SVG Version: 6.00 Build 0)  -->
<!DOCTYPE svg PUBLIC "-//W3C//DTD SVG 1.1//EN" "http://www.w3.org/Graphics/SVG/1.1/DTD/svg11.dtd">
<svg version="1.1" id="Layer_1" xmlns="http://www.w3.org/2000/svg" xmlns:xlink="http://www.w3.org/1999/xlink" x="0px" y="0px"
	 width="247px" height="176px" viewBox="0 0 247 176" enable-background="new 0 0 247 176" xml:space="preserve">
<path opacity="0.1" d="M56,141.1c-7.8-21.9-8.9-55.7-5.2-58c3.7-2.3,42.4,3.9,49.3,3.5c55.1-3.5,69.5-2,71.8,1.2s2.5,29.3-4.7,45.1
	c-3.6,7.9-7.3,15.9-12.7,22.6c-9.6,11.9-25.2,21.1-49.5,20.5C80.8,175.4,63.9,162.9,56,141.1z"/>
<path fill="#534741" d="M144.2,147.9c4.5-3.7,8.7-7.8,11.9-12.6c9.2-13.8,10.9-42.2,9.5-43.6c-1.4-1.4-30.6,3-57.4,2.4
	c-20.5-0.4-32-0.9-55.5-2.7c0.6,7-1.9,9.7-1.3,16.8c0.6,6.2,1.1,12.4,2.8,18.4c6.1,21.7,26.2,36,48.8,35.5
	C117.5,161.7,133,157,144.2,147.9z"/>
<path fill="#D4145A" d="M106.2,163.6c-19.8,0.4-36.1-8-43.8-22c6-7.9,16-15.1,25.6-16.3s14.1,1.2,14.1,1.2s-4.6,2.3-7.2,6.1
	c-2.6,3.7-3.7,10.7-2,18.5c-0.1-6.8,2-13.9,7.4-19.2s11.6-8.1,24.6-6.3c12.9,1.8,16.3,18.5,17.3,22.9
	C143.6,154.3,121.2,163.3,106.2,163.6z"/>
<path opacity="0.1" d="M228.2,91.9c-10.8-3-20.2-10-27.8-18.3s-13.6-17.9-19.6-27.5c-5.9,12-0.7,27.4,9.6,35.8
	C200.8,90.5,214.9,92.9,228.2,91.9z"/>
<path opacity="0.1" d="M2.7,94.3C13.9,78.7,19.4,64,26.3,46.1c4.8,9,2.3,20.4-3.2,29.2S10.5,89.1,2.7,94.3z"/>
<path opacity="0.1" d="M117.2,15.8c1.3,0.6,1.8,2.3,1.9,3.7c0.4,3.8-0.5,7.7-2.4,11c-1.2,2.1-3,4-5.3,4.6c-2.3,0.7-5.2-0.3-6.1-2.6
	c-0.3-0.8-0.3-1.6-0.7-2.3c-1.2-2.6-4.9-2.3-7.6-1.7c-9.9,2.3-40.4,16.7-47.6,0.1S88.8,3.4,88.8,3.4S65.5,11,61.3,13.8
	s-4.2,9.7-1.3,12.4c2.8,2.7,7,3.5,10.9,3.4c15.1-0.1,28.3-9.8,42.8-13.9C114.9,15.5,116.1,15.2,117.2,15.8z"/>
<g>
	<defs>
		<path id="SVGID_1_" d="M144.2,147.9c4.5-3.7,8.7-7.8,11.9-12.6c9.2-13.8,10.9-42.2,9.5-43.6c-1.4-1.4-26.4-0.4-49.3-1.4
			c-20.5-0.9-64.6,0.7-64.6,0.7s-0.9,10.2-0.3,17.2c0.6,6.2,1.1,12.4,2.8,18.4c6.1,21.7,26.2,36,48.8,35.5
			C117.5,161.7,133,157,144.2,147.9z"/>
	</defs>
	<clipPath id="SVGID_2_">
		<use xlink:href="#SVGID_1_"  overflow="visible"/>
	</clipPath>
	<g clip-path="url(#SVGID_2_)">
		<path fill="#FFFFFF" d="M139.1,92.7c9.3-0.6,18.7-1.5,27.9-2.7c0.6,4.6,0.9,7,1.5,11.6c0.5,3.7-2.3,7.1-6.2,7.5c-6,0.7-9,1-15,1.4
			c-3.9,0.3-7.2-2.5-7.5-6.2C139.6,99.7,139.4,97.4,139.1,92.7z"/>
		<path fill="#FFFFFF" d="M109.9,93.7c9.3,0,18.7-0.3,28-0.9c0.3,4.7,0.4,7,0.7,11.7c0.2,3.7-2.7,6.9-6.6,7.1c-6,0.3-9,0.4-15.1,0.5
			c-3.9,0.1-7-3-7-6.7C110,100.7,110,98.3,109.9,93.7z"/>
		<path fill="#FFFFFF" d="M80.8,92.8c9.3,0.6,18.7,0.9,28,0.9c0,4.7,0,7,0,11.7c0,3.7-3.2,6.8-7,6.7c-6-0.1-9-0.2-15.1-0.5
			c-3.9-0.2-6.8-3.4-6.6-7.1C80.3,99.8,80.5,97.4,80.8,92.8z"/>
		<path fill="#FFFFFF" d="M51.7,90c9.3,1.2,18.6,2.1,27.9,2.7c-0.3,4.7-0.5,7-0.8,11.7c-0.2,3.7-3.6,6.5-7.5,6.2
			c-6-0.5-9-0.8-15-1.4c-3.9-0.4-6.6-3.8-6.2-7.5C50.8,97,51.1,94.7,51.7,90z"/>
	</g>
</g>
</svg>
