<?xml version="1.0" encoding="utf-8"?>
<!-- Generator: Adobe Illustrator 18.1.0, SVG Export Plug-In . SVG Version: 6.00 Build 0)  -->
<!DOCTYPE svg PUBLIC "-//W3C//DTD SVG 1.1//EN" "http://www.w3.org/Graphics/SVG/1.1/DTD/svg11.dtd">
<svg version="1.1" id="Layer_1" xmlns="http://www.w3.org/2000/svg" xmlns:xlink="http://www.w3.org/1999/xlink" x="0px" y="0px"
	 width="81.6px" height="82.3px" viewBox="-139 61 81.6 82.3" enable-background="new -139 61 81.6 82.3" xml:space="preserve">
<g>
	<g opacity="0.15">
		<path d="M-81.8,67.9c1.9,9.4-2.8,19.3-2.4,25.5c-0.1,1.1,0.3,1.9,1.1,2.2c4.2,2.8,15.1,3.2,22.9,6.5c3.2,0.7,2.1,5.4-1.7,7.4
			c-9.9,6.4-20.3,4-26.5,6.2c-1.1,0.3-1.8,0.8-1.9,1.6c-1.7,4.4,0.9,14.2,1.2,23c0.7,3.4-3.7,4.2-7.1,0.9
			c-9.9-7.8-10.4-18.4-13.9-23.1c-0.5-0.9-1.2-1.4-2-1.4c-4.8-0.8-13.1,4.6-21.7,8.5c-3.2,2-5.4-1-3.2-5c4.7-11.2,15-16.3,18.4-20.9
			c0.7-0.7,0.9-1.5,0.6-2.3c-1-4.7-7.7-10.6-13.8-17.9c-2.8-2.5-1.4-5.5,2.8-4.7c11.1,1,19,8.3,25.2,10.2c1,0.5,2,0.4,2.7-0.2
			c4.7-2.6,8.2-12,14.1-18.4C-85.4,63.5-82.1,64.3-81.8,67.9z"/>
	</g>
	<g>
		<path fill="#FBCA3B" d="M-81.8,64.9c1.9,9.4-2.8,19.3-2.4,25.5c-0.1,1.1,0.3,1.9,1.1,2.2c4.2,2.8,15.1,3.2,22.9,6.5
			c3.2,0.7,2.1,5.4-1.7,7.4c-9.9,6.4-20.3,4-26.5,6.2c-1.1,0.3-1.8,0.8-1.9,1.6c-1.7,4.4,0.9,14.2,1.2,23c0.7,3.4-3.7,4.2-7.1,0.9
			c-9.9-7.8-10.4-18.4-13.9-23.1c-0.5-0.9-1.2-1.4-2-1.4c-4.8-0.8-13.1,4.6-21.7,8.5c-3.2,2-5.4-1-3.2-5c4.7-11.2,15-16.3,18.4-20.9
			c0.7-0.7,0.9-1.5,0.6-2.3c-1-4.7-7.7-10.6-13.8-17.9c-2.8-2.5-1.4-5.5,2.8-4.7c11.1,1,19,8.3,25.2,10.2c1,0.5,2,0.4,2.7-0.2
			c4.7-2.6,8.2-12,14.1-18.4C-85.4,60.5-82.1,61.3-81.8,64.9z"/>
	</g>
</g>
</svg>
