<?xml version="1.0" encoding="utf-8"?>
<!-- Generator: Adobe Illustrator 18.1.0, SVG Export Plug-In . SVG Version: 6.00 Build 0)  -->
<!DOCTYPE svg PUBLIC "-//W3C//DTD SVG 1.1//EN" "http://www.w3.org/Graphics/SVG/1.1/DTD/svg11.dtd">
<svg version="1.1" id="Layer_1" xmlns="http://www.w3.org/2000/svg" xmlns:xlink="http://www.w3.org/1999/xlink" x="0px" y="0px"
	 width="80px" height="82.5px" viewBox="-139 61 80 82.5" enable-background="new -139 61 80 82.5" xml:space="preserve">
<g>
	<g opacity="0.15">
		<path d="M-63,81.4c-2.7,9.2-7.2,14.9-10.3,21.8c-0.7,1.1-0.8,2.2-0.1,3c2.9,5.3,8.1,9,13.5,15.5c2.5,2.1-0.7,5.8-5,5.7
			c-11.7,1-17.6-1.9-25.4-2.9c-1.3-0.3-2.4-0.1-3,0.6c-4.2,3.7-6.3,9-10.1,16.9c-1,3.4-5.3,1.9-6.7-2.5c-5.1-11.5-3.5-17.7-4.6-24.6
			c0-1.2-0.5-2.2-1.4-2.6c-4.6-3.5-10.4-3.9-19.8-4.4c-3.8,0.3-4.3-3.4-0.5-6c9.4-7.7,17-8.7,23.1-11.7c1.1-0.4,1.9-1.1,1.9-2.1
			c1.6-5.5,0.7-10.8-1.3-20.1c-1.3-3.5,1.3-5.5,4.7-2.8c9.4,6,13.1,12.3,18.6,17.7c0.8,1.1,1.9,1.6,2.9,1.3c6.4-0.1,11.3-4,19.4-6.9
			C-64.1,75.8-61.6,78.1-63,81.4z"/>
	</g>
	<g>
		<path fill="#FBDB3B" d="M-63,78.4c-2.7,9.2-7.2,14.9-10.3,21.8c-0.7,1.1-0.8,2.2-0.1,3c2.9,5.3,8.1,9,13.5,15.5
			c2.5,2.1-0.7,5.8-5,5.7c-11.7,1-17.6-1.9-25.4-2.9c-1.3-0.3-2.4-0.1-3,0.6c-4.2,3.7-6.3,9-10.1,16.9c-1,3.4-5.3,1.9-6.7-2.5
			c-5.1-11.5-3.5-17.7-4.6-24.6c0-1.2-0.5-2.2-1.4-2.6c-4.6-3.5-10.4-3.9-19.8-4.4c-3.8,0.3-4.3-3.4-0.5-6c9.4-7.7,17-8.7,23.1-11.7
			c1.1-0.4,1.9-1.1,1.9-2.1c1.6-5.5,0.7-10.8-1.3-20.1c-1.3-3.5,1.3-5.5,4.7-2.8c9.4,6,13.1,12.3,18.6,17.7c0.8,1.1,1.9,1.6,2.9,1.3
			c6.4-0.1,11.3-4,19.4-6.9C-64.1,72.8-61.6,75.1-63,78.4z"/>
	</g>
</g>
</svg>
