<?xml version="1.0" encoding="utf-8"?>
<!-- Generator: Adobe Illustrator 18.1.0, SVG Export Plug-In . SVG Version: 6.00 Build 0)  -->
<!DOCTYPE svg PUBLIC "-//W3C//DTD SVG 1.1//EN" "http://www.w3.org/Graphics/SVG/1.1/DTD/svg11.dtd">
<svg version="1.1" id="Layer_1" xmlns="http://www.w3.org/2000/svg" xmlns:xlink="http://www.w3.org/1999/xlink" x="0px" y="0px"
	 width="194px" height="180px" viewBox="149.1 -57.6 194 180" enable-background="new 149.1 -57.6 194 180" xml:space="preserve">
<circle fill="#DDD3C7" cx="172.3" cy="68.3" r="19"/>
<path fill="#D3C2AF" d="M344.3-29.2c-1.8-0.1-6.1-0.7-11,1.1c0,0,4.8-2.8,6.1-2.4c1.6,0.4,3.4-1.6,1.6-1.9s-7.7-0.2-8.7,0.5
	s-11.5,5.1-15.4,5.2c-7.6,4.5-36.5,0.1-42.3,2.2l0,0.1C264.9-22,239-11.5,227.5-3l14.3,10.2c7.9-3.9,29.1-21.1,35.1-21.5l0-0.4
	l0.1,0.3c6.7-2.7,25.8-0.4,39.6-4.2c5,0.8,11.1,0.9,13.8,1.8c1.2,0.4,4.5,1.4,5.2,1.4c2.6,0.4,2.6-2.2,1.1-2.6
	c-0.6-0.1-2.9-0.7-4.4-1.3c-2-0.9-3.2-1.9-3.2-1.9s0.8-0.3,1.9-0.7c0.2,0.2,0.4,0.5,0.6,0.9c0.5,0.7,1.3,1.6,1.8,1.4
	c0.4-0.2,0.6-0.9,0.1-1.8c-0.1-0.3-0.3-0.6-0.4-0.9c0.7-0.1,1.5-0.2,2.2-0.2c2.5,0.1,4.3,0.8,5.5,1.1c1.7,0.3,1-2.2-0.9-2.9
	c-2-0.8-5.2-1-5.2-1s2.6-1.1,5-1.1c2.4-0.1,4.1,0.2,5.5-0.4C346.6-27.4,346.3-29.1,344.3-29.2z"/>
<path fill="#D3C2AF" d="M329.3,52.1c0-1.3-1.1-2.4-2.4-2.4c-0.9,0-1.7,0.5-2.1,1.3c-0.3-0.6-1-0.9-1.6-0.7c-0.5,0.1-0.9,0.4-1.1,0.8
	c-0.1,0.1-0.2,0.3-0.3,0.5c-0.3-0.2-0.7-0.2-1.1,0c-0.4,0.1-1,0.8-1.4,1.5c-0.3-0.1-0.6-0.2-0.8-0.1c-0.9,0.1-1.2,2.8-2.8,3.7
	s-11.6,4.9-24,5.6c-13.8,0.7-24.1-3.4-39.8-9.2c-1-0.5-2.1-0.8-3.2-0.9l0,0c-22.2-1.2-56.8-4.4-78.7-0.6l16,32.9
	c16.5-14.7,39-20.9,60.8-16.6l0,0c0.5,0.1,1,0.1,1.5,0.1c0.8,0,1.6-0.1,2.3-0.3l0,0c22.4,17.8,33.9-4.6,56.1,4.9
	c1,0.5,2.1,0.8,3.2,0.8c3.2,0,5.8-2.1,6.8-4.9c1.2-2.7,4.7-6.9,4.7-6.9s2.9-1.8,4.7-3.8c1.5-1.7,1.1-2.6,1.9-3.6
	C328.8,53.8,329.3,53,329.3,52.1z"/>
<path fill="#EAD9C5" d="M309.1,21.4c-7.6,1-9.4,2.6-10.3,2.4c-1.5-1-3.3-2.1-5.3-3.4c-9.2-5.6-21.2-11.9-28.5-14
	c-1.8-1.2-0.3-4.7-0.3-4.7l-0.1,0c7.1,0.7,14.7-2.2,19.5-8.3c8.3-10.5,9-22.6,0.5-30.2c-8.5-7.6-19.4-8.5-27.5,0.6
	c-3.3,3.6-6.1,10.4-7,15c-0.6,3.4-1,6.8-0.6,9.9l-0.3-0.3c-1.1,4.3-29.7-1.1-61.2,24.8c-23.1,19-37.1,45.9-38.1,58.7l7.5,28.6
	l23.2,5.6C196.3,90.5,218.4,83,240.3,86c0.1,0,0.1,0,0.2,0c13.6,24.7,46.8,15.6,63.9,32.1c1.6,1.9,4,3.3,6.3,3.3
	c3.5,0,6.3-2.5,7-5.8c2.6-5.4,10.9-4.8,15.3-6.1c2.5-0.7,2.7-1.8,4.1-2.1c1.2-0.3,2.3-0.9,3.1-1.9c0.3-0.6,0-2.4-2.5-2
	c-0.1,0-0.4,0-0.5,0c0.3-1.2-0.4-2.5-2.5-1.6c-0.1,0-0.3,0.1-0.3,0.1c0.1-1.1-0.7-2-2.6-1.1l-0.1,0c-0.4-0.5-1.4-0.6-2.8,0.3
	c-2.3,1.4-8.8,1.5-10.1,2.1c-3.6,1.2-6.3,0.5-11.4,2.2c-23.8-3.6-43.7-17.5-60-32.7c-1.5-1.6-3.6-2.6-5.9-2.6
	c-16,0.1-38.4-0.7-57.8,0.7c6.6-12.8,19-35.7,45.2-39.5c16.4-2.4,21.4-6.9,22.2-7.4c3.7-1,8.5,0.7,13.2,1.7
	c7.6,1.7,16.9,3.5,23.8,5.4c3.7,1,9.2,3.6,12.7,3.6c3.5,0.2,8.7-2.2,11.8-3.4"/>
<path fill="#ED1C24" d="M186.6,65.3c0.1-0.1,0.1-0.2,0.1-0.2S186.6,65.1,186.6,65.3z"/>
<path fill="#652EAA" d="M169.1,91.8c-1.3-9.6,10.6-20.3,18.1-21.1c1.3-0.1,2.7-0.1,4-0.2c-0.8-2.6-1.4-6.3-0.6-11
	c0-0.1,0.1-0.3,0.1-0.4c-1.3,1.8-2.4,3.6-3.5,5.3c0,0,0,0,0,0c0,0,0,0,0,0.1c-0.4,0.6-0.7,1.2-1.1,1.7c-2,2.7-6.7,7.1-15,6.3
	c-4.8-0.4-21.2-0.4-21.2-0.4s-1.4,5.9,0.2,17.1c0.7,5.4,3.3,13,9.3,16.6c5.7,3.3,13.9,3.9,21.2,0.6C174.6,104,170,98.6,169.1,91.8z"
	/>
<path fill="#D3C2AF" d="M337.7,103.5c-0.1,0-0.4,0-0.5,0c0.3-1.2-0.4-2.5-2.5-1.6c-0.1,0-0.3,0.1-0.3,0.1c0.1-1.1-0.7-2-2.6-1.1
	l-0.1,0c-0.4-0.5-1.4-0.6-2.8,0.3c-2.3,1.4-8.8,1.5-10.1,2.1c-3.6,1.2-6.3,0.5-11.4,2.2c-0.4-0.1-0.8-0.1-1.2-0.2
	c0.1,0,0.3,0.1,0.5,0.1c6.6,0.7,5.5,2.1,9.2,2.4c3.7,0.3,6.5-2.1,10.7-1.3c3.9,0.7,12.6,0.1,13.4-2.5
	C339.4,103.6,338.7,103.3,337.7,103.5z"/>
<path fill="#8C6265" d="M289.1-30.8c0,0,0.5,5-4.5,6.2s-4.5,7-5.2,7c-0.7,0-1-4.2-4.2-2.9c-3.2,1.3-1.2,6.8-2.2,9
	c-1.1,2.1-7.9,4.4-7.9,4.4s-2.5-1-7.6-1.7c-5.8-0.8-8.3-4.1-8.3-4.1s-13.8-6.5-20.8-8.5c-7-2.1-15.4-1-15.4-1s4.1-3.7,8.7-4.5
	c4.6-0.8,13.1,1.7,13.1,1.7s-4.8-2.7-6.9-6.5c-2.1-4-10.3-5.2-10.3-5.2s8.7-1.3,12-1s7.3,3.1,7.3,3.1s2.3-3.1-0.6-5.4
	c-2.9-2.2-10.2-5.8-10.2-9.3c0,0,4.7,2.6,8.2,2.2c3.5-0.4,5.6-2.7,10.9-2c5.4,0.7,6.6,2.6,6.6,2.6s-1.2-1.5-1.8-5.2
	c-0.4-3.7-4.5-5.7-4.5-5.7s3.4,0.1,7.3,1.5c4.1,1.6,8,7.4,16.9,7.5c8.9,0.2,19.4,6.9,21,10.4S289.1-30.8,289.1-30.8z"/>
<g>
	<path fill="#D3C2AF" d="M344.8,13.2c0,0,3.4-4.1,4.4-5.1c0.9-0.9,1.5-1.2,2-0.7c0.3,0.3-0.4,1.8-1,2.6c-0.6,0.8-1.2,1.7-1.2,1.7
		L344.8,13.2z"/>
	<path fill="#EAD9C5" d="M308,21.5c8.9-1.9,20.6-0.9,25.4-4.6c1.9-6.2,4.8-6.1,4.9-8.1c0.1-1.1,1.1-2.6,1.4-3.8
		c0.5-2.2,2.8-1.4,2.5-0.2c-0.2,1.2-1.2,3.1-0.9,4.5c0.4,2,3.6,3.8,7.8,1.7c4.1-2,7-4,8.5-5c0.7-0.5,1.6-0.2,1.9,0.3
		c0.2,0.5-0.2,1.3-1,2c-1.5,1.5-6.9,5.5-6.9,5.5s3.1,0,5.4-0.4c2.3-0.4,3.8-0.8,5.4-0.5c0.8,0.2,0.9,0.5,0.9,1c0,0.5-0.2,1-1.1,1.3
		c-1.5,0.4-9,1.8-9,1.8s2.8,1.2,4.8,0.6c1.7-0.5,2.9,1,1.2,1.6c-1.7,0.7-5.3,1.1-7.3,0.4c-2.1-0.9-9.7-0.2-12.6,3.2
		c-6.7,1.4-26,9.5-33.8,11.1"/>
	<path fill="#D3C2AF" d="M357.9,17.7c1.7-0.5,2.9,1,1.2,1.6c-1.7,0.7-4.6,0.6-6.5-0.2c-0.9-0.4-1.7-1.3-1.7-1.3l2.3-0.8
		C353.1,17.1,355.9,18.3,357.9,17.7z"/>
</g>
<path fill="#D3C2AF" d="M255,23.8c0,0-9.9-2.7-19.6-1.7c-5.5,0.5-15.8,8.4-22.4,9.1s-12.5,11.2-17.8,12.4S186.4,57,181.6,59
	s9.1,0,9.1,0s11.8-18.6,25-23.8s16.7-3.2,24.9-5C248.3,28.5,255,23.8,255,23.8z"/>
</svg>
