<?xml version="1.0" encoding="utf-8"?>
<!-- Generator: Adobe Illustrator 18.1.0, SVG Export Plug-In . SVG Version: 6.00 Build 0)  -->
<!DOCTYPE svg PUBLIC "-//W3C//DTD SVG 1.1//EN" "http://www.w3.org/Graphics/SVG/1.1/DTD/svg11.dtd">
<svg version="1.1" id="Layer_1" xmlns="http://www.w3.org/2000/svg" xmlns:xlink="http://www.w3.org/1999/xlink" x="0px" y="0px"
	 width="80px" height="80px" viewBox="0 0 80 80" enable-background="new 0 0 80 80" xml:space="preserve">
<path fill="#FBDB3B" d="M24.1,80C23,68.6,24,57,26.8,46C17.3,43.4,8.2,39.3,0,33.8c4.7-1.5,9-4.3,13.6-6.2s9.8-3.1,14.5-1.5
	C26.8,17.3,27.7,8.3,30.7,0c3.9,2.5,5.3,7.5,7.7,11.5c2.9,4.7,7.5,8.3,9.1,13.6c10,1.5,20.4,0.9,30.2-1.7c-2.2,4.4-5.1,8.4-8.1,12.3
	c-2.6,3.5-5.9,7.4-10.3,7.3c7.8,6.2,14.8,13.5,20.7,21.6c-12.7,4.1-27.3,1.2-37.5-7.5C36.4,64.7,30.2,72.3,24.1,80z"/>
</svg>
