<?xml version="1.0" encoding="utf-8"?>
<!-- Generator: Adobe Illustrator 18.1.0, SVG Export Plug-In . SVG Version: 6.00 Build 0)  -->
<!DOCTYPE svg PUBLIC "-//W3C//DTD SVG 1.1//EN" "http://www.w3.org/Graphics/SVG/1.1/DTD/svg11.dtd">
<svg version="1.1" id="Layer_1" xmlns="http://www.w3.org/2000/svg" xmlns:xlink="http://www.w3.org/1999/xlink" x="0px" y="0px"
	 width="80px" height="80px" viewBox="0 0 80 80" enable-background="new 0 0 80 80" xml:space="preserve">
<path fill="#FBB03B" d="M0,55.9C11.4,57,23,56,34,53.2c2.5,9.5,6.7,18.6,12.2,26.8c1.5-4.7,4.3-9,6.2-13.6c2-4.6,3.1-9.8,1.5-14.5
	c8.7,1.3,17.8,0.4,26.1-2.6c-2.5-3.9-7.5-5.3-11.5-7.7c-4.7-2.9-8.3-7.5-13.6-9.1c-1.5-10-0.9-20.4,1.7-30.2
	c-4.4,2.2-8.4,5.1-12.3,8.1c-3.5,2.6-7.4,5.9-7.3,10.3C30.9,12.8,23.6,5.9,15.5,0c-4.1,12.7-1.2,27.3,7.5,37.5
	C15.3,43.6,7.7,49.8,0,55.9z"/>
</svg>
