<?xml version="1.0" encoding="utf-8"?>
<!-- Generator: Adobe Illustrator 18.1.0, SVG Export Plug-In . SVG Version: 6.00 Build 0)  -->
<!DOCTYPE svg PUBLIC "-//W3C//DTD SVG 1.1//EN" "http://www.w3.org/Graphics/SVG/1.1/DTD/svg11.dtd">
<svg version="1.1" id="Layer_1" xmlns="http://www.w3.org/2000/svg" xmlns:xlink="http://www.w3.org/1999/xlink" x="0px" y="0px"
	 width="216px" height="180px" viewBox="0 0 216 180" enable-background="new 0 0 216 180" xml:space="preserve">
<g>
	<g id="XMLID_5_">
		<g opacity="0.15">
			<path fill="#231F20" d="M204.1,71.9c-6,2.5-8.9,3.8-14.8,6.4c0,0,0,0,0,0c-6,2.7-9,4.1-14.9,6.8c-0.2,0.1-0.4,0.3-0.5,0.4
				c-1.7,3.2-2.6,4.7-4.3,7.9c-1.9,3.5-2.8,5.3-4.7,8.8c-0.1,0.2-0.3,0.4-0.5,0.4c-1.4,0.7-2.1,1-3.5,1.7
				c-23,11.8-45.3,24.5-67.2,38.1c-0.4-26.7-0.7-53.3-1.1-80c0-0.2,0.1-0.4,0.2-0.6c0.1-0.2,0.3-0.3,0.4-0.4
				c37.4-17.1,75.6-31.8,114.8-44.3c0.5-0.1,0.7-0.5,0.8-0.9c-1.3,18.2-2.7,36.4-4.1,54.6C204.7,71.5,204.5,71.8,204.1,71.9z"/>
			<path fill="#231F20" d="M74.3,149.3c-2.7,2.6-4.5,7.5-4.5,13.1c-1.5,0.8-2.2,1.2-3.7,1.9c-0.1,0-0.2,0.1-0.3,0.1
				c-0.1-0.1-0.3-0.2-0.5-0.2c-0.1,0-0.1,0-0.2,0c0.5,0,1-0.5,1-1.1c-0.4-9.5-0.9-19-1.3-28.5c0-0.3-0.2-0.6-0.4-0.8
				c0.1,0,0.2-0.1,0.4-0.1c9.1-4,21.9-10.7,22.8-21.8c-0.1-6.8-0.2-10.2-0.3-17c0-0.7-0.8-1.2-1.4-0.9c-9.3,3.5-13.9,5.3-23,9.1
				c-0.1,0-0.2-0.1-0.3-0.1c-18.1-1.9-36.2-3.3-54.4-4.3c-0.6,0-1.2,0.5-1.1,1.2c-0.1-1.3-0.2-1.9-0.4-3.2c0.1-0.3,0.2-0.5,0.3-0.8
				c0.2-0.2,0.5-0.4,0.9-0.4c18.5,1,36.8,2.5,55.2,4.4c0.2,0,0.4,0,0.5-0.1c10.1-4.3,15.2-6.4,25.5-10.4c0.5-0.2,1,0,1.3,0.4
				c0.1,0.2,0.1,0.3,0.2,0.5c0.3,19.2,0.6,38.5,1,57.7c-0.1,0-0.3,0.1-0.4,0.2c-1.7,1.4-2.5,2.1-4.2,3.6c-0.1,0.1-0.3,0.2-0.4,0.2
				c-1.8-3.1-4.4-5-7.3-4.9C77.2,147.3,75.7,148.1,74.3,149.3z"/>
			<path fill="#231F20" d="M41.8,161.8c-5.7-0.5-8.6-0.8-14.3-1.2c-0.1-1-0.1-1.9,0-2.8c0,0,0,0,0,0c1.6,0.1,2.3,0.2,3.9,0.3
				c0.6,0,1.1-0.5,1.1-1.1c-0.2-2.7-0.3-4-0.6-6.7c0-0.5-0.4-0.9-0.9-1c-0.2,0-0.3,0-0.5,0c0.9-1,1.9-1.6,3.1-1.7
				c4-0.3,7.7,5.4,8.2,12.7C41.8,160.8,41.8,161.3,41.8,161.8z"/>
			<path fill="#231F20" d="M60.3,160.4c0.6,0.1,1.1-0.5,1.1-1.1c-0.1-2.7-0.2-4-0.4-6.7c0-0.5-0.4-0.9-0.9-1
				c-5.4-0.6-8-0.9-13.4-1.4c-0.6-0.1-1.1,0.5-1.1,1.1c0.2,2.7,0.3,4,0.5,6.7c0,0.5,0.4,0.9,0.9,1C52.4,159.5,55,159.8,60.3,160.4z
				 M27.5,160.6c-5.3-0.4-8-0.6-13.3-0.9c-0.5,0-0.9-0.4-0.9-0.9c-1-9.4-2.1-18.9-3.1-28.3c-0.1-0.6,0.4-1.1,0.9-1.2c0,0,0,0,0,0
				c17.5,1.1,35,2.5,52.4,4.4c0.1,0,0.1,0,0.1,0c0,0,0,0,0,0c0.1,0,0.1,0,0.1,0c0.2,0,0.4,0.1,0.5,0.2c0.2,0.2,0.4,0.5,0.4,0.8
				c0.4,9.5,0.9,19,1.3,28.5c0,0.6-0.4,1.1-1,1.1c-0.3,0-0.5-0.1-0.8-0.1c-8.9-1.1-13.4-1.6-22.4-2.4c0-0.5,0-1-0.1-1.6
				c-0.6-7.3-4.2-13-8.2-12.7c-1.2,0.1-2.2,0.7-3.1,1.7c-5.2-0.4-7.8-0.6-13-0.9c-0.6,0-1.1,0.5-1.1,1.1c0.3,2.7,0.4,4,0.7,6.7
				c0.1,0.5,0.5,0.9,0.9,0.9c3.8,0.2,5.7,0.4,9.5,0.7C27.5,158.7,27.5,159.6,27.5,160.6z"/>
			<path fill="#231F20" d="M116.2,138.4c0-0.6-0.1-1.2-0.1-1.8c0-0.4,0-0.8,0.1-1.3c1.5-0.9,2.3-1.3,3.8-2.2c0.2,1,0.4,2.2,0.3,3.5
				c0,2.5-0.6,4.6-1.3,5.5c-0.3,0.2-0.5,0.3-0.8,0.5C117.2,142.6,116.4,140.8,116.2,138.4z"/>
			<path fill="#231F20" d="M140.5,129.7c-1.2,0-2-2.8-1.9-6.1c0-0.4,0-0.7,0.1-1.1c1.6-0.9,2.3-1.3,3.9-2.1c0.2,1,0.3,2.1,0.2,3.4
				c-0.1,2.5-0.7,4.6-1.5,5.5C141,129.4,140.8,129.5,140.5,129.7z"/>
			<path fill="#231F20" d="M137.9,127.1c-0.1,3.3-1.2,6-2.3,5.9c-1.2,0-2-2.8-1.9-6.1c0-0.6,0.1-1.2,0.2-1.8c1.5-0.8,2.2-1.2,3.7-2
				C137.8,124.2,137.9,125.6,137.9,127.1z"/>
			<path fill="#231F20" d="M133.7,127c-0.1,3.3,0.7,6,1.9,6.1c-6.7,3.6-10.1,5.4-16.7,9.1c0.7-0.9,1.3-3,1.3-5.5
				c0-1.3-0.1-2.5-0.3-3.5c5.5-3.2,8.3-4.8,13.9-7.9C133.7,125.8,133.7,126.4,133.7,127z"/>
			<path fill="#231F20" d="M141.3,129.2c0.8-0.9,1.4-3,1.5-5.5c0.1-1.3,0-2.4-0.2-3.4c5.7-3.1,8.5-4.6,14.3-7.5
				c-0.1,0.5-0.1,1.1-0.2,1.6c-0.2,3.3,0.6,6,1.8,6.1C151.6,124,148.1,125.7,141.3,129.2z"/>
			<path fill="#231F20" d="M158.5,120.6c-1.2-0.1-2-2.8-1.8-6.1c0-0.6,0.1-1.1,0.2-1.6c1.5-0.8,2.3-1.2,3.8-2
				c0.2,1.1,0.3,2.4,0.3,3.9C160.8,118,159.7,120.6,158.5,120.6z"/>
			<path fill="#231F20" d="M162.8,109.8c-0.8-1.4-1.4-3.2-1.8-5.3c1.4-0.7,2.1-1,3.5-1.7c0.2-0.1,0.4-0.2,0.5-0.4
				c1.8-3.5,2.8-5.3,4.7-8.8c0.7,0.3,1,0.4,1.6,0.7c-1,2.1-1.6,4.6-1.8,7.3c-0.5,6.4,1.7,11.9,5,13.4c-2.9-0.8-9.2-2.5-9.8-3
				C163.9,111.5,163.3,110.7,162.8,109.8z"/>
			<path fill="#231F20" d="M82.7,156.6c-0.9-1.6-2.2-2.6-3.6-2.6c-0.8,0-1.6,0.4-2.3,1.1c-0.9-0.2-1.3-0.3-2.2-0.5
				c-0.3-0.1-0.4-0.2-0.7-0.3c1-2.1,2.3-3.6,3.9-4.1c0,0,0,0,0,0c1.7,0.4,2.6,0.7,4.4,1.1c1.5,1.3,2.6,3.4,3.4,6
				C84.4,157,83.9,156.9,82.7,156.6z"/>
			<path fill="#231F20" d="M73.9,154.3c-1.1,2.4-1.8,5.7-1.6,9.3c0.3,6.4,2.8,11.6,6,12.8c-2.8-0.5-8.7-1.5-9.3-2
				c-0.6-0.4-1.2-1-1.7-1.8c1.2-0.7,1.8-1,3-1.7c0.4-0.2,0.6-0.8,0.5-1.2c-0.5-1.9-0.9-3.9-1-6c0-0.4,0-0.8,0-1.2
				c0-5.6,1.8-10.5,4.5-13.1c1.4,0.3,2.1,0.5,3.5,0.9C76.3,150.7,74.9,152.2,73.9,154.3z"/>
			<path fill="#231F20" d="M79.1,154c1.4,0,2.6,1,3.6,2.6c-2.3-0.6-3.5-0.9-5.9-1.5C77.5,154.4,78.3,154,79.1,154z"/>
			<path fill="#231F20" d="M72.3,163.6c-0.1-3.6,0.5-6.8,1.6-9.3c0.3,0.1,0.4,0.2,0.7,0.3c0.9,0.2,1.3,0.3,2.2,0.5
				c-1.5,1.6-2.5,4.8-2.4,8.4c0.2,5.1,2.5,9.2,5.2,9.2c2.7-0.1,4.8-4.3,4.7-9.5c-0.1-2.6-0.7-4.9-1.6-6.6c1.2,0.3,1.8,0.5,2.9,0.8
				c0.5,1.7,0.8,3.7,0.8,5.8c0.2,7.4-2.8,13.4-6.7,13.5c0,0-0.6-0.1-1.5-0.2C75.1,175.2,72.6,169.9,72.3,163.6z"/>
			<path fill="#231F20" d="M82.9,163.2c-0.1-3.6-1.7-6.5-3.7-6.4c-1.9,0.1-3.4,3-3.3,6.6c0.1,3.6,1.8,6.5,3.7,6.4
				C81.5,169.8,83,166.8,82.9,163.2z M84.3,163.2c0.1,5.1-2,9.4-4.7,9.5c-2.7,0.1-5-4-5.2-9.2c-0.1-3.6,0.8-6.8,2.4-8.4
				c2.3,0.6,3.5,0.9,5.9,1.5C83.6,158.3,84.3,160.6,84.3,163.2z"/>
			<path fill="#231F20" d="M91.2,148.2c0,2.9,0.1,4.3,0.1,7.1c0,0.3-0.1,0.6-0.4,0.8c-0.5,0.5-0.8,0.7-1.3,1.1
				c-0.6,0.5-1.4,0.2-1.6-0.5c-0.5-1.7-1.1-3.3-1.9-4.6c0.2,0,0.3-0.1,0.4-0.2c1.7-1.4,2.5-2.1,4.2-3.6
				C90.9,148.3,91.1,148.3,91.2,148.2z"/>
			<path fill="#231F20" d="M92.9,62.1c-0.1,0.2-0.2,0.4-0.2,0.6c0.4,26.7,0.7,53.3,1.1,80c0,2.5,0.1,3.8,0.1,6.3c-0.1,0-0.3,0-0.4,0
				c-0.7-0.2-1-0.4-1.7-0.6c-0.2-0.1-0.3-0.1-0.5,0c-0.3-19.2-0.6-38.5-1-57.7c0-0.2-0.1-0.4-0.2-0.5c-0.4-1.2-0.5-1.7-0.9-2.9
				C89.1,87,89.1,87,89,87c0.1-0.2,0.2-0.4,0.2-0.6C89,79.2,89,75.7,88.8,68.5c0-0.5-0.4-0.9-0.9-1c-17.2-2.4-34.3-4.4-51.6-6.1
				c-0.1-1.3-0.1-2-0.2-3.4c0-0.2,0.1-0.5,0.2-0.7C55.2,58.5,73.9,60,92.7,62C92.8,62,92.8,62,92.9,62.1z"/>
			<path fill="#231F20" d="M62.9,96.3c-0.2,0.6,0.2,1.2,0.8,1.3C45.3,95.7,27,94.3,8.6,93.3c-0.3,0-0.6-0.2-0.8-0.4
				c-0.2-0.2-0.3-0.6-0.2-0.9c0.7-3.3,3.3-12.9,10-20.1c7.2-7.7,12.4-10.3,13.6-10.8c0.2-0.1,0.4-0.1,0.6-0.1
				c1.8,0.2,2.7,0.2,4.6,0.4c17.3,1.7,34.4,3.7,51.6,6.1c-0.2,0-0.4,0-0.7,0.1c-2.2,1.1-6.8,3.7-12.9,9.5
				C67.9,83.3,64.1,92.4,62.9,96.3z"/>
			<path fill="#231F20" d="M90.3,90.5c-0.1-0.2-0.1-0.3-0.2-0.5C90.2,90.1,90.3,90.3,90.3,90.5z"/>
			<path fill="#231F20" d="M88.8,89.6c-10.3,4-15.4,6.1-25.5,10.4c-0.2,0.1-0.4,0.1-0.5,0.1c-18.4-1.9-36.7-3.4-55.2-4.4
				c-0.3,0-0.7,0.1-0.9,0.4c0.4-1.2,0.6-1.8,1-3c0.2,0.2,0.5,0.3,0.8,0.4c18.4,1,36.7,2.4,55.1,4.3c0,0,0,0,0,0c0.1,0,0.1,0,0.2,0
				c0.1,0,0.3,0,0.4-0.1c9.6-4.2,14.4-6.3,24.2-10.2c0.2-0.1,0.4-0.2,0.5-0.4c0.1,0,0.1,0.1,0.2,0.1c0.4,1.2,0.5,1.7,0.9,2.9
				C89.8,89.6,89.3,89.4,88.8,89.6z"/>
			<path fill="#231F20" d="M63.7,97.6c0.1,0,0.1,0,0.2,0C63.8,97.6,63.7,97.6,63.7,97.6z"/>
			<path fill="#231F20" d="M63.7,97.6c-0.6-0.1-1-0.7-0.8-1.3c1.2-3.9,5-13,11.5-19.2c6-5.8,10.6-8.4,12.9-9.5
				c0.2-0.1,0.5-0.1,0.7-0.1c0.5,0.1,0.9,0.5,0.9,1c0.1,7.1,0.2,10.7,0.3,17.8c0,0.2-0.1,0.4-0.2,0.6c-0.1,0.2-0.3,0.3-0.5,0.4
				c-9.8,4-14.6,6-24.2,10.2c-0.2,0.1-0.3,0.1-0.4,0.1C63.8,97.6,63.8,97.6,63.7,97.6C63.7,97.6,63.7,97.6,63.7,97.6z"/>
			<path fill="#231F20" d="M85.7,94.1c0.7-0.3,1.4,0.2,1.4,0.9c0.1,6.8,0.2,10.2,0.3,17c-0.9,11.1-13.8,17.8-22.8,21.8
				c-0.1,0-0.2,0.1-0.4,0.1c-0.2-0.1-0.3-0.2-0.5-0.2c-0.1,0-0.1,0-0.1,0c0.5,0,1-0.5,1-1.1c-0.4-9.5-0.9-19-1.3-28.5
				c0-0.4-0.3-0.7-0.6-0.9C71.8,99.5,76.4,97.7,85.7,94.1z"/>
			<path fill="#231F20" d="M62.7,103.2c0.4,0.2,0.6,0.5,0.6,0.9c0.4,9.5,0.9,19,1.3,28.5c0,0.6-0.4,1.1-1,1.1c0,0,0,0,0,0
				c-17.5-1.9-34.9-3.4-52.4-4.4c-0.1,0-0.1,0-0.1,0c0,0,0,0,0,0c-0.1,0-0.1,0-0.2,0c-0.5,0-0.9-0.4-1-0.9
				c-1.2-10.8-1.8-16.2-2.9-27c-0.1-0.5-0.1-0.8-0.1-1.3c-0.1-0.6,0.5-1.2,1.1-1.2c18.2,1,36.3,2.4,54.4,4.3
				C62.5,103.2,62.6,103.2,62.7,103.2z"/>
			<path fill="#231F20" d="M6.8,96c-0.1,0.3-0.2,0.5-0.3,0.8C6.5,96.5,6.6,96.2,6.8,96z"/>
			<path fill="#231F20" d="M85.7,152.2c-1.4-0.4-2.1-0.5-3.5-0.9c-1-0.9-2.1-1.3-3.2-1.3c-0.4,0-0.7,0.1-1.1,0.2c0,0,0,0,0,0
				c-1.4-0.3-2.1-0.5-3.5-0.9c1.3-1.3,2.9-2,4.5-2.1c2.8-0.1,5.4,1.8,7.3,4.9C86,152.2,85.9,152.2,85.7,152.2z"/>
			<path fill="#231F20" d="M82.2,151.3c-1.7-0.4-2.6-0.7-4.4-1.1c0.4-0.1,0.7-0.2,1.1-0.2C80.1,150,81.2,150.4,82.2,151.3z"/>
			<path fill="#231F20" d="M200.1,79.4c4.3,0.4,7.1,6.8,6.3,14.1c-0.8,7.3-4.8,12.9-9,12.4c0,0-0.6-0.2-1.6-0.5
				c-3.3-1.6-5.3-7.2-4.7-13.5C191.7,84.6,195.8,79,200.1,79.4z M204.1,93.2c0.6-5.1-1.4-9.5-4.4-9.8c-3-0.3-5.8,3.6-6.3,8.7
				c-0.5,5.1,1.5,9.5,4.4,9.8C200.7,102.2,203.5,98.3,204.1,93.2z"/>
			<path fill="#231F20" d="M199.7,83.4c3,0.3,5,4.7,4.4,9.8c-0.6,5.1-3.4,9-6.3,8.7c-2.9-0.3-4.9-4.7-4.4-9.8
				C193.9,87,196.7,83.1,199.7,83.4z M202.5,93.1c0.4-3.6-1-6.7-3.1-6.9c-2.1-0.2-4.1,2.5-4.4,6.1c-0.4,3.6,1,6.7,3.1,6.9
				C200.1,99.4,202.1,96.6,202.5,93.1z"/>
			<path fill="#231F20" d="M199.4,86.2c2.1,0.2,3.5,3.3,3.1,6.9c-0.4,3.6-2.4,6.3-4.4,6.1c-2.1-0.2-3.5-3.3-3.1-6.9
				C195.3,88.7,197.3,86,199.4,86.2z"/>
			<path fill="#231F20" d="M208.9,16.5c0,0.4-0.3,0.7-0.8,0.9c-39.2,12.5-77.4,27.2-114.8,44.3c-0.2,0.1-0.3,0.2-0.4,0.4
				c-0.1,0-0.1-0.1-0.2-0.1c-18.8-2-37.5-3.5-56.4-4.6c0.1-0.1,0.2-0.3,0.4-0.3c37.7-19.9,76.2-37.2,116.1-52.3
				c0.2-0.1,0.4-0.1,0.7-0.1c18.3,3.2,36.4,6.7,54.5,10.6C208.6,15.5,208.9,16.1,208.9,16.5z"/>
			<path fill="#231F20" d="M182.3,91.7c-1.1-1.6-2.6-2.6-4.2-2.8c-2.7-0.2-5.2,1.9-6.8,5.4c-0.7-0.3-1-0.4-1.6-0.7
				c1.7-3.2,2.5-4.8,4.3-7.9c0.1-0.2,0.3-0.4,0.5-0.4c5.9-2.8,8.9-4.1,14.9-6.8c0,0,0,0,0,0c4.3,0.4,6.5,0.6,10.8,1
				c-4.3-0.4-8.3,5.2-9,12.5c-0.6,6.4,1.5,11.9,4.7,13.5c-3-0.9-9.2-2.7-9.8-3.3c-0.5-0.4-0.9-0.9-1.3-1.5
				C184.6,97.1,183.7,93.8,182.3,91.7z"/>
			<path fill="#231F20" d="M184.7,100.7c0,0.7,0,1.4-0.1,2.2c-0.6,7.3-4.5,13-8.6,12.6c0,0-0.6-0.2-1.5-0.4c-3.3-1.5-5.5-7-5-13.4
				c0.2-2.8,0.9-5.3,1.8-7.3c1.6-3.4,4.1-5.6,6.8-5.4c1.6,0.1,3.1,1.1,4.2,2.8C182.3,95.3,183.2,98.5,184.7,100.7z M182.3,102.6
				c0.4-5.1-1.6-9.5-4.6-9.7c-3-0.2-5.7,3.8-6,8.9s1.7,9.5,4.6,9.7C179.2,111.7,181.9,107.8,182.3,102.6z"/>
			<path fill="#231F20" d="M184.7,100.7c-1.5-2.2-2.4-5.4-2.4-9C183.7,93.8,184.6,97.1,184.7,100.7z"/>
			<path fill="#231F20" d="M177.7,92.9c3,0.2,5,4.6,4.6,9.7s-3.1,9.1-6,8.8c-2.9-0.2-4.9-4.6-4.6-9.7S174.8,92.7,177.7,92.9z
				 M180.7,102.5c0.3-3.6-1.2-6.6-3.2-6.8c-2.1-0.2-4,2.6-4.2,6.2s1.2,6.6,3.2,6.8C178.5,108.9,180.4,106.1,180.7,102.5z"/>
			<path fill="#231F20" d="M177.5,95.7c2.1,0.2,3.5,3.2,3.2,6.8c-0.3,3.6-2.2,6.4-4.2,6.2c-2-0.2-3.5-3.2-3.2-6.8
				S175.4,95.5,177.5,95.7z"/>
			<path fill="#231F20" d="M162.8,109.8c-0.8,0.4-1.2,0.6-2.1,1.1c-0.3-1.4-0.9-2.2-1.5-2.3c-0.3,0-0.6,0.1-0.9,0.4
				c-7,3.4-10.5,5.1-17.4,8.7c-1,0-2,2-2.3,4.8c-0.5,0.3-0.7,0.4-1.2,0.6c-0.3-1.3-0.9-2.1-1.5-2.1c-0.3,0-0.6,0.1-0.8,0.4
				c-6.8,3.6-10.2,5.4-16.9,9.1c-1,0-1.9,2-2.1,4.7c-8.9,5.3-13.3,7.9-21.9,13.4c-0.1,0.1-0.3,0.1-0.4,0.1c0-2.5-0.1-3.8-0.1-6.3
				c21.9-13.6,44.3-26.3,67.2-38.1C161.4,106.6,162,108.4,162.8,109.8z"/>
			<path fill="#231F20" d="M159.2,108.6c0.7,0,1.2,0.9,1.5,2.3c-1.5,0.8-2.3,1.2-3.8,2c0.3-1.7,0.8-3.1,1.4-3.8
				C158.7,108.8,158.9,108.8,159.2,108.6z"/>
			<path fill="#231F20" d="M141,117.7c6.9-3.5,10.4-5.3,17.4-8.7c-0.6,0.7-1.2,2.1-1.4,3.8c-5.8,3-8.6,4.5-14.3,7.5
				C142.3,118.8,141.7,117.7,141,117.7z"/>
			<path fill="#231F20" d="M142.6,120.4c-1.6,0.9-2.4,1.3-3.9,2.1c0.3-2.8,1.2-4.9,2.3-4.8C141.7,117.7,142.3,118.8,142.6,120.4z"/>
			<path fill="#231F20" d="M136,121.1c0.6,0,1.2,0.8,1.5,2.1c-1.5,0.8-2.2,1.2-3.7,2c0.2-1.7,0.7-3,1.3-3.7
				C135.5,121.3,135.7,121.2,136,121.1z"/>
			<path fill="#231F20" d="M118.3,130.6c6.7-3.7,10.1-5.5,16.9-9.1c-0.6,0.7-1.1,2-1.3,3.7c-5.6,3.1-8.4,4.7-13.9,7.9
				C119.6,131.6,119,130.6,118.3,130.6z"/>
			<path fill="#231F20" d="M119.9,133.1c-1.5,0.9-2.3,1.3-3.8,2.2c0.2-2.7,1.1-4.7,2.1-4.7C119,130.6,119.6,131.6,119.9,133.1z"/>
			<path fill="#231F20" d="M79.2,156.8c1.9-0.1,3.6,2.8,3.7,6.4c0.1,3.6-1.4,6.6-3.3,6.6c-1.9,0.1-3.5-2.8-3.7-6.4
				C75.8,159.8,77.3,156.9,79.2,156.8z"/>
			<path fill="#231F20" d="M70.8,169.7c0.1,0.5,0,1-0.5,1.2c-1.2,0.7-1.8,1-3,1.7c-0.3-0.4-0.6-0.8-0.8-1.3c-0.1-2.4-0.2-3.6-0.3-6
				c0-0.3-0.2-0.6-0.4-0.8c0.1,0,0.2-0.1,0.3-0.1c1.5-0.8,2.2-1.2,3.7-1.9c0,0.4,0,0.8,0,1.2C69.9,165.8,70.3,167.8,70.8,169.7z"/>
			<path fill="#231F20" d="M66.4,171.3c0,0.2,0,0.3,0,0.5c0,0.7-0.5,1.2-1.1,1.1c-10-1.2-15.1-1.7-25.2-2.7c1.1-2.2,1.7-5.1,1.6-8.4
				c9,0.8,13.5,1.3,22.4,2.4C64.6,167,65.4,169.4,66.4,171.3z"/>
			<path fill="#231F20" d="M66.2,165.3c0.1,2.4,0.2,3.6,0.3,6c-1.1-1.9-1.8-4.4-2.2-7.1c0.3,0,0.5,0.1,0.8,0.1c0.1,0,0.1,0,0.2,0
				c0.2,0,0.3,0.1,0.5,0.2C66,164.7,66.1,165,66.2,165.3z"/>
			<path fill="#231F20" d="M61.1,152.6c0.1,2.7,0.2,4,0.4,6.7c0,0.6-0.5,1.2-1.1,1.1c-5.3-0.6-8-0.9-13.3-1.4c-0.5,0-0.9-0.5-0.9-1
				c-0.2-2.7-0.3-4-0.5-6.7c0-0.6,0.5-1.2,1.1-1.1c5.4,0.5,8.1,0.8,13.4,1.4C60.7,151.6,61,152,61.1,152.6z"/>
			<path fill="#231F20" d="M27.5,160.7c5.7,0.4,8.6,0.7,14.3,1.2c0.1,3.3-0.6,6.2-1.6,8.4c-4.2-0.4-6.2-0.5-10.4-0.9
				c-1.1-2.2-1.9-4.9-2.2-8C27.6,161.2,27.5,160.9,27.5,160.7z"/>
			<path fill="#231F20" d="M29.8,169.4c4.2,0.3,6.2,0.5,10.4,0.9c-1.1,2.2-2.6,3.7-4.4,3.8c0,0-0.6-0.1-1.5-0.2
				C32.6,173.4,31,171.8,29.8,169.4z"/>
			<path fill="#231F20" d="M31.9,150.2c0.2,2.7,0.3,4,0.6,6.7c0.1,0.6-0.4,1.2-1.1,1.1c-1.6-0.1-2.3-0.2-3.9-0.3
				c0.2-3.6,1.3-6.8,2.9-8.6c0.2,0,0.3,0,0.5,0C31.5,149.3,31.9,149.7,31.9,150.2z"/>
			<path fill="#231F20" d="M17.4,148.3c5.2,0.3,7.8,0.5,13,0.9c-1.6,1.8-2.7,4.9-2.9,8.6c0,0,0,0,0,0c-3.8-0.3-5.7-0.4-9.5-0.7
				c-0.5,0-0.9-0.4-0.9-0.9c-0.3-2.7-0.4-4-0.7-6.7C16.3,148.8,16.8,148.3,17.4,148.3z"/>
			<path fill="#231F20" d="M34.3,173.9c-2.8-0.3-8.9-1-9.5-1.5c-1.2-0.8-2.2-2-3.1-3.6c3.3,0.2,4.9,0.3,8.1,0.6
				C31,171.8,32.6,173.4,34.3,173.9z"/>
			<path fill="#231F20" d="M29.8,169.4c-3.2-0.3-4.9-0.4-8.1-0.6c-1.2-2.2-2.1-5-2.4-8.1c0-0.2,0-0.3,0-0.5c3.3,0.2,4.9,0.3,8.2,0.6
				c0,0.2,0,0.5,0,0.8C27.9,164.5,28.7,167.2,29.8,169.4z"/>
			<path fill="#231F20" d="M21.7,168.8c-3.1-0.2-4.7-0.3-7.8-0.5c-0.5,0-0.9-0.4-0.9-0.9c-0.3-2.6-0.4-3.9-0.7-6.5
				c-0.1-0.6,0.4-1.2,1-1.2c2.4,0.1,3.7,0.2,6.1,0.4c0,0.2,0,0.3,0,0.5C19.6,163.8,20.5,166.6,21.7,168.8z"/>
		</g>
		<g>
			<path fill="#C0E5ED" d="M204.4,68.8c-6,2.5-9,3.8-14.9,6.4c0,0,0,0,0,0c-6,2.7-9,4-15,6.8c-0.2,0.1-0.4,0.3-0.5,0.4
				c-1.7,3.2-2.6,4.7-4.3,7.9c-1.9,3.5-2.8,5.3-4.7,8.8c-0.1,0.2-0.3,0.4-0.5,0.4c-1.4,0.7-2.1,1-3.5,1.7
				c-23,11.8-45.5,24.5-67.5,38.1c-0.4-26.7-0.7-53.3-1.1-80c0-0.2,0.1-0.4,0.2-0.6c0.1-0.2,0.3-0.3,0.4-0.4
				c37.6-17.1,75.8-31.8,115.2-44.3c0.5-0.1,0.7-0.5,0.8-0.9c-1.3,18.2-2.7,36.4-4.1,54.6C205,68.4,204.8,68.7,204.4,68.8z"/>
			<path fill="#3AD9E2" d="M74.2,146.2c-2.8,2.6-4.6,7.5-4.6,13.1c-1.5,0.8-2.2,1.2-3.7,1.9c-0.1,0-0.2,0.1-0.3,0.1
				c-0.1-0.1-0.3-0.2-0.5-0.2c-0.1,0-0.1,0-0.2,0c0.5,0,1-0.5,1-1.1c-0.4-9.5-0.9-19-1.3-28.5c0-0.3-0.2-0.6-0.4-0.8
				c0.1,0,0.2-0.1,0.4-0.1c9.1-4,22-10.7,22.9-21.8c-0.1-6.8-0.2-10.2-0.3-17c0-0.7-0.8-1.2-1.5-0.9c-9.3,3.5-14,5.3-23.1,9.1
				c-0.1,0-0.2-0.1-0.3-0.1C44,98.2,25.9,96.7,7.6,95.7c-0.6,0-1.2,0.5-1.1,1.2c-0.1-1.3-0.2-1.9-0.4-3.2c0.1-0.3,0.2-0.5,0.3-0.8
				c0.2-0.2,0.5-0.4,0.9-0.4c18.5,1,36.9,2.5,55.4,4.4c0.2,0,0.4,0,0.5-0.1c10.1-4.3,15.2-6.4,25.5-10.4c0.5-0.2,1,0,1.3,0.4
				c0.1,0.2,0.1,0.3,0.2,0.5c0.3,19.2,0.6,38.5,1,57.7c-0.1,0-0.3,0.1-0.4,0.2c-1.7,1.4-2.5,2.1-4.2,3.6c-0.1,0.1-0.3,0.2-0.4,0.2
				c-1.8-3.1-4.5-5-7.3-4.9C77.1,144.2,75.6,144.9,74.2,146.2z"/>
			<path fill="#009FBC" d="M41.6,158.7c-5.7-0.5-8.6-0.8-14.4-1.2c-0.1-1-0.1-1.9,0-2.8c0,0,0,0,0,0c1.6,0.1,2.3,0.2,3.9,0.3
				c0.6,0,1.1-0.5,1.1-1.1c-0.2-2.7-0.3-4-0.6-6.7c0-0.5-0.4-0.9-0.9-1c-0.2,0-0.3,0-0.5,0c0.9-1,2-1.6,3.1-1.7
				c4-0.3,7.7,5.4,8.2,12.7C41.6,157.7,41.6,158.2,41.6,158.7z"/>
			<path fill="#009FBC" d="M60.2,157.3c0.6,0.1,1.1-0.5,1.1-1.1c-0.1-2.7-0.2-4-0.4-6.7c0-0.5-0.4-0.9-0.9-1
				c-5.4-0.6-8.1-0.9-13.5-1.4c-0.6-0.1-1.1,0.5-1.1,1.1c0.2,2.7,0.3,4,0.5,6.7c0,0.5,0.4,0.9,0.9,1
				C52.2,156.4,54.9,156.7,60.2,157.3z M27.3,157.5c-5.3-0.4-8-0.6-13.4-0.9c-0.5,0-0.9-0.4-0.9-0.9c-1-9.4-2.1-18.9-3.1-28.3
				c-0.1-0.6,0.4-1.1,0.9-1.2c0,0,0,0,0,0c17.6,1.1,35.1,2.5,52.6,4.4c0.1,0,0.1,0,0.1,0c0,0,0,0,0,0c0.1,0,0.1,0,0.1,0
				c0.2,0,0.4,0.1,0.5,0.2c0.2,0.2,0.4,0.5,0.4,0.8c0.4,9.5,0.9,19,1.3,28.5c0,0.6-0.4,1.1-1,1.1c-0.3,0-0.5-0.1-0.8-0.1
				c-9-1.1-13.5-1.6-22.5-2.4c0-0.5,0-1-0.1-1.6c-0.6-7.3-4.2-13-8.2-12.7c-1.2,0.1-2.2,0.7-3.1,1.7c-5.2-0.4-7.8-0.6-13.1-0.9
				c-0.6,0-1.1,0.5-1.1,1.1c0.3,2.7,0.4,4,0.7,6.7c0.1,0.5,0.5,0.9,0.9,0.9c3.8,0.2,5.7,0.4,9.5,0.7
				C27.2,155.6,27.2,156.5,27.3,157.5z"/>
			<path fill="#7EA8AA" d="M116.2,135.3c0-0.6-0.1-1.2-0.1-1.8c0-0.4,0-0.8,0.1-1.3c1.5-0.9,2.3-1.3,3.8-2.2c0.2,1,0.4,2.2,0.3,3.5
				c0,2.5-0.6,4.6-1.3,5.5c-0.3,0.2-0.5,0.3-0.8,0.5C117.2,139.5,116.4,137.7,116.2,135.3z"/>
			<path fill="#7EA8AA" d="M140.6,126.5c-1.2,0-2-2.8-1.9-6.1c0-0.4,0-0.7,0.1-1.1c1.6-0.9,2.4-1.3,3.9-2.1c0.2,1,0.3,2.1,0.2,3.4
				c-0.1,2.5-0.7,4.6-1.5,5.5C141.1,126.3,141,126.4,140.6,126.5z"/>
			<path fill="#CCF3FF" d="M138,124c-0.1,3.3-1.2,6-2.3,5.9s-2-2.8-1.9-6.1c0-0.6,0.1-1.2,0.2-1.8c1.5-0.8,2.2-1.2,3.7-2
				C137.9,121.1,138.1,122.5,138,124z"/>
			<path fill="#CCF3FF" d="M133.8,123.9c-0.1,3.3,0.7,6,1.9,6.1c-6.8,3.6-10.1,5.4-16.7,9.1c0.7-0.9,1.3-3,1.3-5.5
				c0-1.3-0.1-2.5-0.3-3.5c5.5-3.2,8.3-4.8,14-7.9C133.8,122.6,133.8,123.2,133.8,123.9z"/>
			<path fill="#CCF3FF" d="M141.5,126.1c0.8-0.9,1.4-3,1.5-5.5c0.1-1.3,0-2.4-0.2-3.4c5.7-3.1,8.5-4.6,14.3-7.5
				c-0.1,0.5-0.1,1.1-0.2,1.6c-0.2,3.3,0.6,6,1.8,6.1C151.7,120.8,148.3,122.6,141.5,126.1z"/>
			<path fill="#CCF3FF" d="M158.7,117.4c-1.2-0.1-2-2.8-1.8-6.1c0-0.6,0.1-1.1,0.2-1.6c1.5-0.8,2.3-1.2,3.9-2
				c0.2,1.1,0.3,2.4,0.3,3.9C161,114.9,159.9,117.5,158.7,117.4z"/>
			<path fill="#253F3F" d="M163,106.7c-0.8-1.4-1.4-3.2-1.8-5.3c1.4-0.7,2.1-1,3.5-1.7c0.2-0.1,0.4-0.2,0.5-0.4
				c1.9-3.5,2.8-5.3,4.7-8.8c0.7,0.3,1,0.4,1.6,0.7c-1,2.1-1.6,4.6-1.8,7.3c-0.5,6.4,1.7,11.9,5,13.4c-3-0.8-9.2-2.5-9.9-3
				C164.1,108.3,163.5,107.6,163,106.7z"/>
			<path fill="#122D2C" d="M82.6,153.5c-0.9-1.6-2.2-2.6-3.6-2.6c-0.8,0-1.6,0.4-2.3,1.1c-0.9-0.2-1.3-0.3-2.2-0.5
				c-0.3-0.1-0.4-0.2-0.7-0.3c1-2.1,2.3-3.6,3.9-4.1c0,0,0,0,0,0c1.8,0.4,2.6,0.7,4.4,1.1c1.5,1.3,2.7,3.4,3.4,6
				C84.4,153.9,83.8,153.8,82.6,153.5z"/>
			<path fill="#253F3F" d="M73.8,151.2c-1.1,2.4-1.8,5.7-1.6,9.3c0.3,6.4,2.8,11.6,6,12.8c-2.8-0.5-8.7-1.5-9.4-2
				c-0.6-0.4-1.2-1-1.7-1.8c1.2-0.7,1.8-1,3.1-1.7c0.4-0.2,0.6-0.8,0.5-1.2c-0.5-1.9-0.9-3.9-1-6c0-0.4,0-0.8,0-1.2
				c0-5.6,1.8-10.5,4.6-13.1c1.4,0.3,2.1,0.5,3.5,0.9C76.2,147.6,74.8,149.1,73.8,151.2z"/>
			<path d="M79,150.9c1.4,0,2.7,1,3.6,2.6c-2.3-0.6-3.5-0.9-5.9-1.5C77.4,151.3,78.2,150.9,79,150.9z"/>
			<path fill="#122D2C" d="M72.2,160.4c-0.1-3.6,0.5-6.8,1.6-9.3c0.3,0.1,0.4,0.2,0.7,0.3c0.9,0.2,1.3,0.3,2.2,0.5
				c-1.5,1.6-2.5,4.8-2.4,8.4c0.2,5.1,2.5,9.2,5.3,9.2c2.7-0.1,4.8-4.3,4.7-9.5c-0.1-2.6-0.7-4.9-1.6-6.6c1.2,0.3,1.8,0.5,2.9,0.8
				c0.5,1.7,0.8,3.7,0.9,5.8c0.2,7.4-2.8,13.4-6.7,13.5c0,0-0.6-0.1-1.5-0.2C75,172.1,72.4,166.8,72.2,160.4z"/>
			<path d="M82.8,160.1c-0.1-3.6-1.7-6.5-3.7-6.4c-1.9,0.1-3.4,3-3.3,6.6c0.1,3.6,1.8,6.5,3.7,6.4C81.4,166.6,82.9,163.7,82.8,160.1
				z M84.3,160c0.1,5.1-2,9.4-4.7,9.5c-2.7,0.1-5.1-4-5.3-9.2c-0.1-3.6,0.8-6.8,2.4-8.4c2.4,0.6,3.5,0.9,5.9,1.5
				C83.6,155.1,84.2,157.4,84.3,160z"/>
			<path fill="#3AD9E2" d="M91.2,145.1c0,2.9,0.1,4.3,0.1,7.1c0,0.3-0.1,0.6-0.4,0.8c-0.5,0.5-0.8,0.7-1.4,1.1
				c-0.6,0.5-1.4,0.2-1.6-0.5c-0.5-1.7-1.1-3.3-1.9-4.6c0.2,0,0.3-0.1,0.4-0.2c1.7-1.4,2.5-2.1,4.2-3.6
				C90.9,145.2,91,145.1,91.2,145.1z"/>
			<path fill="#A7CDD3" d="M92.8,58.9c-0.1,0.2-0.2,0.4-0.2,0.6c0.4,26.7,0.7,53.3,1.1,80c0,2.5,0.1,3.8,0.1,6.3c-0.1,0-0.3,0-0.4,0
				c-0.7-0.2-1-0.4-1.7-0.6c-0.2-0.1-0.3-0.1-0.5,0c-0.3-19.2-0.6-38.5-1-57.7c0-0.2-0.1-0.4-0.2-0.5c-0.4-1.2-0.5-1.7-0.9-2.9
				c-0.1,0-0.1-0.1-0.2-0.1c0.1-0.2,0.2-0.4,0.2-0.6c-0.1-7.1-0.2-10.7-0.3-17.8c0-0.5-0.4-0.9-0.9-1C70.7,62,53.5,60,36.1,58.3
				C36,57,36,56.3,35.9,55c0-0.2,0.1-0.5,0.2-0.7c18.9,1.1,37.7,2.6,56.6,4.5C92.7,58.9,92.7,58.9,92.8,58.9z"/>
			<path fill="#009FBC" d="M62.7,93.2c-0.2,0.6,0.2,1.2,0.8,1.3c-18.4-1.9-36.8-3.3-55.3-4.3c-0.3,0-0.6-0.2-0.8-0.4
				c-0.2-0.2-0.3-0.6-0.2-0.9c0.7-3.3,3.3-12.9,10.1-20.1C24.5,61.2,29.8,58.6,31,58c0.2-0.1,0.4-0.1,0.6-0.1
				c1.8,0.2,2.7,0.2,4.6,0.4C53.5,60,70.7,62,87.9,64.4c-0.2,0-0.4,0-0.7,0.1c-2.2,1.1-6.9,3.7-12.9,9.5
				C67.8,80.2,63.9,89.3,62.7,93.2z"/>
			<path fill="#3AD9E2" d="M90.2,87.4c-0.1-0.2-0.1-0.3-0.2-0.5C90.1,87,90.2,87.2,90.2,87.4z"/>
			<path fill="#253F3F" d="M88.8,86.4c-10.3,4-15.4,6.1-25.5,10.4c-0.2,0.1-0.4,0.1-0.5,0.1C44.2,95,25.8,93.5,7.3,92.5
				c-0.3,0-0.7,0.1-0.9,0.4c0.4-1.2,0.6-1.8,1-3c0.2,0.2,0.5,0.3,0.8,0.4c18.5,1,36.9,2.4,55.3,4.3c0,0,0,0,0,0c0.1,0,0.1,0,0.2,0
				c0.1,0,0.3,0,0.4-0.1c9.6-4.2,14.5-6.3,24.3-10.2c0.2-0.1,0.4-0.2,0.5-0.4c0.1,0,0.1,0.1,0.2,0.1c0.4,1.2,0.5,1.7,0.9,2.9
				C89.8,86.4,89.2,86.2,88.8,86.4z"/>
			<path fill="#3AD9E2" d="M63.5,94.5c0.1,0,0.1,0,0.2,0C63.7,94.5,63.6,94.5,63.5,94.5z"/>
			<path fill="#3AD9E2" d="M63.5,94.5c-0.6-0.1-1-0.7-0.8-1.3c1.2-3.9,5-13,11.6-19.2c6-5.8,10.7-8.4,12.9-9.5
				c0.2-0.1,0.5-0.1,0.7-0.1c0.5,0.1,0.9,0.5,0.9,1c0.1,7.1,0.2,10.7,0.3,17.8c0,0.2-0.1,0.4-0.2,0.6c-0.1,0.2-0.3,0.3-0.5,0.4
				c-9.8,4-14.7,6-24.3,10.2c-0.2,0.1-0.3,0.1-0.4,0.1C63.7,94.5,63.6,94.5,63.5,94.5C63.5,94.5,63.5,94.5,63.5,94.5z"/>
			<path fill="#141864" d="M85.6,91c0.7-0.3,1.4,0.2,1.5,0.9c0.1,6.8,0.2,10.2,0.3,17c-0.9,11.1-13.8,17.8-22.9,21.8
				c-0.1,0-0.2,0.1-0.4,0.1c-0.2-0.1-0.3-0.2-0.5-0.2c-0.1,0-0.1,0-0.1,0c0.5,0,1-0.5,1-1.1c-0.4-9.5-0.9-19-1.3-28.5
				c0-0.4-0.3-0.7-0.6-0.9C71.7,96.4,76.3,94.5,85.6,91z"/>
			<path fill="#2E3E92" d="M62.5,100.1c0.4,0.2,0.6,0.5,0.6,0.9c0.4,9.5,0.9,19,1.3,28.5c0,0.6-0.4,1.1-1,1.1c0,0,0,0,0,0
				c-17.5-1.9-35-3.4-52.6-4.4c-0.1,0-0.1,0-0.2,0c0,0,0,0,0,0c-0.1,0-0.1,0-0.2,0c-0.5,0-0.9-0.4-1-0.9c-1.2-10.8-1.8-16.2-2.9-27
				c-0.1-0.5-0.1-0.8-0.1-1.3c-0.1-0.6,0.5-1.2,1.1-1.2c18.2,1,36.4,2.4,54.6,4.3C62.3,100,62.4,100.1,62.5,100.1z"/>
			<path fill="#3AD9E2" d="M6.4,92.8c-0.1,0.3-0.2,0.5-0.3,0.8C6.1,93.3,6.2,93.1,6.4,92.8z"/>
			<path fill="#7EA8AA" d="M85.7,149.1c-1.4-0.4-2.1-0.5-3.5-0.9c-1-0.9-2.1-1.3-3.3-1.3c-0.4,0-0.8,0.1-1.1,0.2c0,0,0,0,0,0
				c-1.4-0.3-2.1-0.5-3.5-0.9c1.3-1.3,2.9-2,4.6-2.1c2.8-0.1,5.4,1.8,7.3,4.9C85.9,149.1,85.8,149.1,85.7,149.1z"/>
			<path fill="#1A1A1A" d="M82.1,148.2c-1.7-0.4-2.6-0.7-4.4-1.1c0.4-0.1,0.7-0.2,1.1-0.2C80,146.8,81.1,147.3,82.1,148.2z"/>
			<path fill="#122D2C" d="M200.4,76.3c4.3,0.4,7.1,6.8,6.3,14.1c-0.8,7.3-4.9,12.9-9,12.4c0,0-0.6-0.2-1.6-0.5
				c-3.3-1.6-5.4-7.2-4.8-13.5C192,81.5,196.1,75.8,200.4,76.3z M204.4,90.1c0.6-5.1-1.4-9.5-4.4-9.8c-3-0.3-5.8,3.6-6.3,8.7
				s1.5,9.5,4.4,9.8S203.9,95.2,204.4,90.1z"/>
			<path d="M200,80.3c3,0.3,5,4.7,4.4,9.8c-0.6,5.1-3.4,9-6.3,8.7s-4.9-4.7-4.4-9.8S197,80,200,80.3z M202.8,89.9
				c0.4-3.6-1-6.7-3.1-6.9c-2.1-0.2-4.1,2.5-4.4,6.1c-0.4,3.6,1,6.7,3.1,6.9C200.4,96.2,202.4,93.5,202.8,89.9z"/>
			<path fill="#C0E5ED" d="M199.7,83c2.1,0.2,3.5,3.3,3.1,6.9c-0.4,3.6-2.4,6.3-4.4,6.1c-2.1-0.2-3.5-3.3-3.1-6.9
				C195.6,85.6,197.6,82.8,199.7,83z"/>
			<path fill="#CCF3FF" d="M209.2,13.4c0,0.4-0.3,0.7-0.8,0.9c-39.3,12.5-77.6,27.1-115.2,44.3c-0.2,0.1-0.3,0.2-0.4,0.4
				c-0.1,0-0.1-0.1-0.2-0.1c-18.8-2-37.7-3.5-56.6-4.5c0.1-0.1,0.2-0.3,0.4-0.3C74.3,34.1,113,16.7,152.9,1.7
				c0.2-0.1,0.4-0.1,0.7-0.1c18.3,3.2,36.5,6.7,54.7,10.7C208.9,12.4,209.2,12.9,209.2,13.4z"/>
			<path fill="#253F3F" d="M182.5,88.6c-1.1-1.6-2.6-2.7-4.2-2.8c-2.7-0.2-5.2,1.9-6.8,5.4c-0.7-0.3-1-0.4-1.6-0.7
				c1.7-3.2,2.6-4.8,4.3-7.9c0.1-0.2,0.3-0.4,0.5-0.4c6-2.8,9-4.1,15-6.8c0,0,0,0,0,0c4.3,0.4,6.5,0.6,10.8,1
				c-4.3-0.4-8.4,5.2-9,12.5c-0.6,6.4,1.5,11.9,4.8,13.5c-3-0.9-9.2-2.7-9.9-3.3c-0.5-0.4-0.9-0.9-1.3-1.5
				C184.9,93.9,184,90.7,182.5,88.6z"/>
			<path fill="#122D2C" d="M184.9,97.5c0,0.7,0,1.4-0.1,2.2c-0.6,7.3-4.5,13-8.7,12.6c0,0-0.6-0.2-1.5-0.4c-3.3-1.5-5.5-7-5-13.4
				c0.2-2.8,0.9-5.3,1.8-7.3c1.6-3.4,4.2-5.6,6.8-5.4c1.6,0.1,3.1,1.1,4.2,2.8C182.6,92.2,183.5,95.4,184.9,97.5z M182.6,99.5
				c0.4-5.1-1.6-9.5-4.6-9.7s-5.7,3.8-6.1,8.9s1.7,9.5,4.6,9.7C179.4,108.6,182.1,104.6,182.6,99.5z"/>
			<path fill="#122D2C" d="M184.9,97.5c-1.5-2.2-2.4-5.4-2.4-9C184,90.7,184.9,93.9,184.9,97.5z"/>
			<path d="M178,89.8c3,0.2,5,4.6,4.6,9.7c-0.4,5.1-3.1,9.1-6.1,8.8c-2.9-0.2-5-4.6-4.6-9.7S175,89.5,178,89.8z M181,99.4
				c0.3-3.6-1.2-6.6-3.2-6.8c-2.1-0.2-4,2.6-4.2,6.2c-0.3,3.6,1.2,6.6,3.2,6.8C178.8,105.7,180.7,103,181,99.4z"/>
			<path fill="#C0E5ED" d="M177.8,92.6c2.1,0.2,3.5,3.2,3.2,6.8c-0.3,3.6-2.2,6.4-4.2,6.2c-2-0.2-3.5-3.2-3.2-6.8
				C173.8,95.2,175.7,92.4,177.8,92.6z"/>
			<path fill="#253F3F" d="M163,106.7c-0.8,0.4-1.2,0.6-2.1,1.1c-0.3-1.4-0.9-2.2-1.5-2.3c-0.3,0-0.6,0.1-0.9,0.4
				c-7,3.4-10.5,5.1-17.4,8.7c-1,0-2,2-2.3,4.8c-0.5,0.3-0.7,0.4-1.2,0.6c-0.3-1.3-0.9-2.1-1.5-2.1c-0.3,0-0.6,0.1-0.8,0.4
				c-6.8,3.6-10.2,5.4-16.9,9.1c-1,0-1.9,2-2.1,4.7c-8.9,5.3-13.3,7.9-22,13.4c-0.1,0.1-0.3,0.1-0.4,0.1c0-2.5-0.1-3.8-0.1-6.3
				c22-13.6,44.4-26.2,67.5-38.1C161.6,103.4,162.2,105.2,163,106.7z"/>
			<path fill="#CCF3FF" d="M159.4,105.5c0.7,0,1.2,0.9,1.5,2.3c-1.5,0.8-2.3,1.2-3.9,2c0.3-1.7,0.8-3.1,1.5-3.8
				C158.9,105.7,159.1,105.6,159.4,105.5z"/>
			<path fill="#CCF3FF" d="M141.1,114.5c6.9-3.5,10.4-5.3,17.4-8.7c-0.6,0.7-1.2,2.1-1.5,3.8c-5.8,3-8.6,4.5-14.3,7.5
				C142.4,115.6,141.8,114.6,141.1,114.5z"/>
			<path fill="#7EA8AA" d="M142.8,117.2c-1.6,0.9-2.4,1.3-3.9,2.1c0.3-2.8,1.2-4.9,2.3-4.8C141.8,114.6,142.4,115.6,142.8,117.2z"/>
			<path fill="#CCF3FF" d="M136.1,117.9c0.6,0,1.2,0.8,1.5,2.1c-1.5,0.8-2.2,1.2-3.7,2c0.2-1.7,0.7-3,1.3-3.7
				C135.6,118.2,135.8,118.1,136.1,117.9z"/>
			<path fill="#CCF3FF" d="M118.3,127.5c6.7-3.7,10.1-5.5,16.9-9.1c-0.6,0.7-1.1,2-1.3,3.7c-5.6,3.1-8.4,4.7-14,7.9
				C119.6,128.5,119,127.5,118.3,127.5z"/>
			<path fill="#7EA8AA" d="M120,130c-1.5,0.9-2.3,1.3-3.8,2.2c0.2-2.7,1.1-4.7,2.1-4.7C119,127.5,119.6,128.5,120,130z"/>
			<path fill="#C0E5ED" d="M79.1,153.7c1.9-0.1,3.6,2.8,3.7,6.4s-1.4,6.6-3.3,6.6c-1.9,0.1-3.6-2.8-3.7-6.4
				C75.7,156.7,77.2,153.7,79.1,153.7z"/>
			<path fill="#93B8BC" d="M70.7,166.6c0.1,0.5,0,1-0.5,1.2c-1.2,0.7-1.8,1-3.1,1.7c-0.3-0.4-0.6-0.8-0.8-1.3
				c-0.1-2.4-0.2-3.6-0.3-6c0-0.3-0.2-0.6-0.4-0.8c0.1,0,0.2-0.1,0.3-0.1c1.5-0.8,2.2-1.2,3.7-1.9c0,0.4,0,0.8,0,1.2
				C69.8,162.7,70.1,164.7,70.7,166.6z"/>
			<path fill="#A7CDD3" d="M66.3,168.2c0,0.2,0,0.3,0,0.5c0,0.7-0.5,1.2-1.1,1.1c-10.1-1.2-15.1-1.7-25.3-2.7
				c1.1-2.2,1.7-5.1,1.6-8.4c9,0.8,13.5,1.3,22.5,2.3C64.5,163.8,65.2,166.3,66.3,168.2z"/>
			<path fill="#A7CDD3" d="M66,162.2c0.1,2.4,0.2,3.6,0.3,6c-1.1-1.9-1.8-4.4-2.2-7.1c0.3,0,0.5,0.1,0.8,0.1c0.1,0,0.1,0,0.2,0
				c0.2,0,0.3,0.1,0.5,0.2C65.8,161.6,66,161.9,66,162.2z"/>
			<path fill="#E0D521" d="M60.9,149.4c0.1,2.7,0.2,4,0.4,6.7c0,0.6-0.5,1.2-1.1,1.1c-5.3-0.6-8-0.9-13.3-1.4c-0.5,0-0.9-0.5-0.9-1
				c-0.2-2.7-0.3-4-0.5-6.7c0-0.6,0.5-1.2,1.1-1.1c5.4,0.5,8.1,0.8,13.5,1.4C60.5,148.5,60.9,148.9,60.9,149.4z"/>
			<path fill="#A7CDD3" d="M27.3,157.6c5.7,0.4,8.6,0.7,14.3,1.2c0.1,3.3-0.6,6.2-1.6,8.4c-4.2-0.4-6.3-0.5-10.4-0.9
				c-1.1-2.2-1.9-4.9-2.2-8C27.3,158.1,27.3,157.8,27.3,157.6z"/>
			<path fill="#1A1A1A" d="M29.5,166.3c4.2,0.3,6.3,0.5,10.4,0.9c-1.1,2.2-2.6,3.7-4.4,3.8c0,0-0.6-0.1-1.5-0.2
				C32.3,170.3,30.8,168.6,29.5,166.3z"/>
			<path fill="#E0D521" d="M31.6,147.1c0.2,2.7,0.3,4,0.6,6.7c0.1,0.6-0.5,1.2-1.1,1.1c-1.6-0.1-2.3-0.2-3.9-0.3
				c0.2-3.6,1.3-6.8,2.9-8.6c0.2,0,0.3,0,0.5,0C31.2,146.2,31.6,146.6,31.6,147.1z"/>
			<path fill="#E0D521" d="M17.1,145.2c5.2,0.3,7.8,0.5,13.1,0.9c-1.6,1.8-2.7,4.9-2.9,8.6c0,0,0,0,0,0c-3.8-0.3-5.7-0.4-9.5-0.7
				c-0.5,0-0.9-0.4-0.9-0.9c-0.3-2.7-0.4-4-0.7-6.7C16,145.7,16.5,145.1,17.1,145.2z"/>
			<path fill="#4D4D4D" d="M34.1,170.8c-2.8-0.3-8.9-1-9.6-1.5c-1.2-0.8-2.2-2-3.1-3.6c3.3,0.2,4.9,0.3,8.2,0.6
				C30.8,168.6,32.3,170.3,34.1,170.8z"/>
			<path fill="#A7CDD3" d="M29.5,166.3c-3.3-0.3-4.9-0.4-8.2-0.6c-1.2-2.2-2.1-5-2.4-8.1c0-0.2,0-0.3,0-0.5c3.3,0.2,5,0.3,8.3,0.6
				c0,0.2,0,0.5,0,0.8C27.6,161.4,28.4,164.1,29.5,166.3z"/>
			<path fill="#A7CDD3" d="M21.4,165.7c-3.1-0.2-4.7-0.3-7.9-0.5c-0.5,0-0.9-0.4-0.9-0.9c-0.3-2.6-0.4-3.9-0.7-6.5
				c-0.1-0.6,0.4-1.2,1-1.2c2.5,0.1,3.7,0.2,6.1,0.4c0,0.2,0,0.3,0,0.5C19.3,160.7,20.2,163.5,21.4,165.7z"/>
		</g>
	</g>
	<path fill="#141864" d="M60.9,134.7c0,0-0.7,0-2-0.1c-1.3-0.1-3.1-0.2-5.2-0.3c-2.2-0.2-4.7-0.3-7.4-0.5c-2.7-0.2-5.6-0.4-8.5-0.6
		c-2.9-0.2-5.8-0.5-8.5-0.7c-2.7-0.2-5.3-0.4-7.4-0.6c-2.2-0.2-4-0.4-5.3-0.5c-1.3-0.1-2-0.2-2-0.2s0.7,0,2,0c1.3,0,3.1,0,5.3,0.1
		c2.2,0.1,4.7,0.1,7.5,0.3c2.7,0.2,5.6,0.3,8.5,0.5c2.9,0.2,5.8,0.5,8.5,0.8c2.7,0.3,5.2,0.6,7.4,0.8c2.2,0.3,4,0.5,5.2,0.7
		C60.2,134.6,60.9,134.7,60.9,134.7z"/>
	<path fill="#141864" d="M15,136.1c0,0,0.7,0,2,0c1.3,0,3.1,0,5.3,0.1c2.2,0.1,4.7,0.1,7.4,0.3c2.7,0.1,5.6,0.3,8.5,0.5
		c2.9,0.2,5.8,0.5,8.5,0.7c2.7,0.2,5.2,0.6,7.4,0.8c2.2,0.2,3.9,0.5,5.2,0.7c1.2,0.2,2,0.3,2,0.3s-0.7,0-2-0.1
		c-1.3-0.1-3.1-0.1-5.2-0.3c-2.2-0.2-4.7-0.3-7.4-0.5c-2.7-0.2-5.6-0.4-8.5-0.6c-2.9-0.2-5.8-0.4-8.5-0.6c-2.7-0.2-5.2-0.4-7.4-0.6
		c-2.2-0.2-4-0.4-5.2-0.5C15.7,136.2,15,136.1,15,136.1z"/>
	<path fill="#141864" d="M61.4,144c0,0-0.7,0-2-0.1c-1.3-0.1-3-0.1-5.2-0.3c-2.1-0.2-4.7-0.3-7.3-0.5c-2.7-0.2-5.5-0.4-8.4-0.6
		c-2.9-0.2-5.7-0.4-8.4-0.6c-2.7-0.2-5.2-0.4-7.4-0.6c-2.2-0.2-4-0.4-5.2-0.5c-1.3-0.1-2-0.2-2-0.2s0.7,0,2,0c1.3,0,3.1,0,5.2,0.1
		c2.2,0.1,4.7,0.1,7.4,0.3c2.7,0.1,5.6,0.3,8.4,0.5c2.9,0.2,5.7,0.5,8.4,0.7c2.7,0.2,5.2,0.6,7.3,0.8c2.1,0.2,3.9,0.5,5.2,0.7
		C60.7,143.9,61.4,144,61.4,144z"/>
</g>
</svg>
