<?xml version="1.0" encoding="utf-8"?>
<!-- Generator: Adobe Illustrator 18.1.0, SVG Export Plug-In . SVG Version: 6.00 Build 0)  -->
<!DOCTYPE svg PUBLIC "-//W3C//DTD SVG 1.1//EN" "http://www.w3.org/Graphics/SVG/1.1/DTD/svg11.dtd">
<svg version="1.1" id="Layer_1" xmlns="http://www.w3.org/2000/svg" xmlns:xlink="http://www.w3.org/1999/xlink" x="0px" y="0px"
	 width="313.4px" height="217.8px" viewBox="0 0 313.4 217.8" enable-background="new 0 0 313.4 217.8" xml:space="preserve">
<g>
	<g opacity="0.15">
		<path d="M0,167.6c-1.7-31.2,67.1-60.2,153.7-64.8s158,16.9,159.7,48.1c1.7,31.2-67.1,60.2-153.7,64.8
			C73.2,220.3,1.7,198.7,0,167.6z"/>
	</g>
	<g>
		<path fill="#0071BC" d="M0,164.6c-1.7-31.2,67.1-60.2,153.7-64.8s158,16.9,159.7,48.1c1.7,31.2-67.1,60.2-153.7,64.8
			C73.2,217.3,1.7,195.7,0,164.6z"/>
	</g>
</g>
<g id="XMLID_1_">
	<g opacity="0.15">
		<path d="M283.8,64.7c1.6,0.3,2.4,1.6,2.4,2.9c0,0.1,0,0.3,0,0.4c-0.1,0.8-0.6,1.6-1.4,2.1l-29.2,16.9c0,0-37.3-13.8-68.2-16.4
			c-30.9-2.6-60.8-14.6-60.8-14.6l28.8-14c0.6-0.3,1.2-0.4,1.8-0.3l4.6,0.8c-0.6,0.8-1,1.6-1.2,2.3c-1.8,6.6,2.5,12.3,14,12.8
			c11.5,0.4,45,9.2,55.1,8.8c0,0,9-4.8,19.9-4c3.2,0.3,5.9-0.9,8.3-2.6l23.1,4.2L283.8,64.7z"/>
		<path d="M275,103.8l8.3-5.2c0,0-0.3,2.7-0.6,6.6l-7.4,4.7C275.1,106.5,275,104.2,275,103.8z"/>
		<path d="M275.2,109.8l7.4-4.7c-1,9.9-3.1,27.3-4.7,27.3C276.4,132.5,275.6,118.3,275.2,109.8z"/>
		<path d="M252.8,117.7l22.3-14c0,0.4,0.1,2.8,0.2,6l-109.1,68.4c0.4-3.8,0.6-6.5,0.6-6.5l0,0l74.2-46.6L252.8,117.7z"/>
		<path d="M233.3,55.6l24.6,4.4c-2.3,1.7-5.1,2.8-8.3,2.6c-10.9-0.9-19.9,4-19.9,4s-4.2-2.1,2.8-10.2
			C232.8,56.1,233,55.8,233.3,55.6z"/>
		<path d="M255.5,87.1L255.5,87.1l-15.2,8.8c0,0-18.3-8.2-49.2-10.9c-30.9-2.6-85.1-18.8-85.1-18.8l20.6-10c0,0,29.9,11.9,60.8,14.6
			C218.2,73.3,255.5,87.1,255.5,87.1z"/>
		<polygon points="255.5,87.1 252.8,117.7 240.9,125.2 240.3,95.9 		"/>
		<path d="M240.3,95.9l0.6,29.3l-74.2,46.6l-0.8,0.5c-2.9,1.8-6.3,2.3-9.6,1.4l-4-1.1l-115.4-33c0-0.1,0-0.2,0-0.2l-8.5-2.2
			l-2.2-30.3l0.2,0c0,1.3,0.8,2.5,2.2,2.9l126.9,31.7c2.7,0.7,5.6,0.3,8-1.1L240.3,95.9z"/>
		<path d="M161.8,42.7l71.4,12.9c-0.2,0.2-0.5,0.5-0.7,0.8c-7,8.1-2.8,10.2-2.8,10.2c-10.1,0.4-43.6-8.4-55.1-8.8
			c-11.5-0.4-15.8-6.2-14-12.8C160.8,44.3,161.3,43.5,161.8,42.7z"/>
		<path d="M166.7,171.7L166.7,171.7c0,0-0.2,2.7-0.6,6.5l-0.3,0.2c-2.9,1.8-6.3,2.3-9.6,1.4l-2.9-0.8c-0.7-3.7-1.2-6.3-1.2-6.3
			l0-0.2l4,1.1c3.2,0.9,6.7,0.4,9.6-1.4L166.7,171.7z"/>
		<path d="M165.8,178.4l0.3-0.2c-0.9,9.9-3,27.7-5.1,27.7s-5.8-17.4-7.6-27l2.9,0.8C159.5,180.7,163,180.2,165.8,178.4z"/>
		<path d="M153.4,179L36.8,145.6c0-3.2,0.1-5.5,0.1-6.2l115.4,33l0,0.2C152.2,172.7,152.7,175.2,153.4,179z"/>
		<path d="M28.4,137l8.5,2.4c0,0.7,0,3-0.1,6.2l-7.8-2.2C28.6,139.5,28.4,137,28.4,137z"/>
		<path d="M29,143.4l7.8,2.2c-0.1,11.9-0.7,36.2-2.4,36.2C32.7,181.8,30.1,155.7,29,143.4z"/>
	</g>
	<g>
		<polygon fill="#C69C6D" points="289.2,22.1 285,77.8 157.2,38.8 157.4,3.3 		"/>
		<path fill="#F2F2F2" d="M283.8,61.7c1.6,0.3,2.4,1.6,2.4,2.9c0,0.1,0,0.3,0,0.4c-0.1,0.8-0.6,1.6-1.4,2.1l-34.4,22.7
			c0,0-37.3-16.6-68.2-19.2c-30.9-2.6-60.7-15.1-60.7-15.1l33.9-16.5c0.6-0.3,1.2-0.4,1.8-0.3L281,61.2L283.8,61.7z"/>
		<path fill="#A06E40" d="M285.8,99.8l4.8-77.7l-7.3,4.6L281,61.2v0l2.8,0.5c1.6,0.3,2.4,1.6,2.4,2.9c0,0.1-3.5,37.3-3.5,37.5
			L285.8,99.8z"/>
		<polygon fill="#B58555" points="290.6,22.1 283.3,26.7 157.4,3.3 164.7,0.2 		"/>
		<path fill="#E6E6E6" d="M286.2,65.1l-1.4,14.5l0,0.1l-1.5,15.8l-8.3,5.2c0,0,0,0,0,0l-34.1,21.4l2.7-30.6v0l41.1-24.3
			C285.6,66.7,286.1,65.9,286.2,65.1z"/>
		<path fill="#B58555" d="M275.2,106.8l7.4-4.7c-1,9.9-3.1,27.3-4.7,27.3C276.4,129.5,275.6,115.3,275.2,106.8z"/>
		<path fill="#FFFFFF" d="M255.5,84.1L255.5,84.1l-15.2,8.8c0,0-18.3-8.2-49.2-10.9c-30.9-2.6-85.1-18.8-85.1-18.8l20.6-10
			c0,0,29.9,11.9,60.8,14.6C218.2,70.3,255.5,84.1,255.5,84.1z"/>
		<polygon fill="#F2F2F2" points="255.5,84.1 252.8,114.7 240.9,122.2 240.3,92.9 		"/>
		<path fill="#D3E4EA" d="M242.6,91.4l-76.7,57.1c-2.4,1.4-5.3,1.8-8,1.1L28.7,106.6c-1.5-0.4-2.2-1.6-2.2-2.9c0-1,0.5-2.1,1.7-2.7
			l77.8-37.9c0,0,56.5,14.8,87.4,17.4C224.2,83.2,242.6,91.4,242.6,91.4z"/>
		<path fill="#C7DDE2" d="M242.6,91.4l0.6,29.3l-76.6,48l-0.8,0.5c-2.9,1.8-6.3,2.3-9.6,1.4l-4-1.1l-115.4-33c0-0.1,0-0.2,0-0.2
			l-8.5-2.2l-2.2-30.3l0.2,0c0,1.3,0.8,2.5,2.2,2.9l126.9,31.7c2.7,0.7,5.6,0.3,8-1.1L242.6,91.4z"/>
		<path fill="#FFFFFF" d="M237.2,31c-25.5-2.6-35.2-2.6-43.6-5.7c-8.4-3.1-14.5,2.6-14.5,2.6s-13,5.8-17.3,11.7
			c-0.6,0.8-1,1.6-1.2,2.3c-1.8,6.6,2.5,12.3,14,12.8c11.5,0.4,45,9.2,55.1,8.8c0,0,7.8-0.8,14.8-8.9c0.3-0.3,3.1-4.6,3.3-4.9
			c6.4-6.8,18.8-4.7,18.8-4.7S262.8,33.7,237.2,31z"/>
		<path fill="#C69C6D" d="M165.8,169.3c-2.9,1.8-6.3,2.3-9.6,1.4L28.4,134c0,0,0.2,2.5,0.6,6.3c1.1,12.4,3.7,38.5,5.5,38.5
			c1.7,0,2.2-24.4,2.4-36.2L153.4,176c1.8,9.6,5.4,27,7.6,27s4.2-17.8,5.1-27.7l116.6-73.1c0.4-3.9,0.6-6.6,0.6-6.6L165.8,169.3z"/>
	</g>
</g>
<path fill="#E6E6E6" d="M242.6,46.2c-14,5.6-12.8,17.4-12.8,17.4s12-0.3,22.1-4.6c10.2-4.3,14.8-13.9,14.8-13.9
	S256.5,40.5,242.6,46.2z"/>
</svg>
