<?xml version="1.0" encoding="utf-8"?>
<!-- Generator: Adobe Illustrator 18.1.0, SVG Export Plug-In . SVG Version: 6.00 Build 0)  -->
<!DOCTYPE svg PUBLIC "-//W3C//DTD SVG 1.1//EN" "http://www.w3.org/Graphics/SVG/1.1/DTD/svg11.dtd">
<svg version="1.1" id="Layer_2" xmlns="http://www.w3.org/2000/svg" xmlns:xlink="http://www.w3.org/1999/xlink" x="0px" y="0px"
	 width="280px" height="160px" viewBox="0 0 280 160" enable-background="new 0 0 280 160" xml:space="preserve">
<g>
	<path fill="#F15A24" d="M205.1,42c0,0,7.3,13.7,14.5,27.3c7.2,13.7,14.5,27.4,14.5,27.4c0.2,0.4,0.1,1-0.4,1.2
		c-0.4,0.2-1,0.1-1.2-0.4c0,0-7.3-13.6-14.7-27.3c-7.3-13.6-14.6-27.3-14.6-27.3c-0.3-0.5-0.1-1.2,0.4-1.5
		C204.1,41.3,204.8,41.5,205.1,42L205.1,42z"/>
</g>
<g>
	<path fill="#F15A24" d="M41.7,100.2c0,0,0.2-0.1,0.5-0.3c0.3-0.2,0.8-0.5,1.5-0.9c0.6-0.4,1.4-0.9,2.3-1.5c0.9-0.6,1.8-1.3,2.8-2.1
		c1-0.8,2.1-1.7,3.2-2.6c1.1-1,2.3-2,3.4-3.1c1.1-1.1,2.3-2.3,3.3-3.6c1.1-1.3,2.1-2.6,3-4l0.7-1c0.1-0.2,0.2-0.4,0.3-0.5l0.3-0.6
		c0.4-0.8,0.9-1.5,1.3-2.2c0.8-1.5,1.6-2.9,2.4-4.4c1.5-2.9,2.9-5.6,4-7.9c1.1-2.3,2-4.3,2.5-5.7c0.3-0.7,0.5-1.2,0.7-1.6
		c0.1-0.4,0.2-0.5,0.2-0.5l0,0c0.6-1.5,2.4-2.3,3.9-1.7c1.5,0.6,2.3,2.4,1.7,3.9c0,0.1-0.1,0.1-0.1,0.2c0,0-0.1,0.2-0.3,0.6
		c-0.2,0.4-0.5,0.9-0.8,1.6c-0.7,1.4-1.7,3.4-3,5.7c-1.3,2.3-2.9,5-4.6,7.9c-0.9,1.4-1.8,2.9-2.8,4.3c-0.5,0.7-1,1.4-1.5,2.2
		l-0.4,0.5c-0.1,0.2-0.3,0.4-0.4,0.6l-0.8,1.1c-1.1,1.5-2.3,2.8-3.6,4.1c-1.2,1.3-2.5,2.5-3.8,3.6c-1.3,1.1-2.5,2.1-3.8,3
		c-1.2,0.9-2.4,1.8-3.5,2.5c-1.1,0.7-2.2,1.4-3.1,1.9c-0.9,0.6-1.8,1-2.4,1.4c-0.7,0.4-1.2,0.7-1.6,0.9c-0.4,0.2-0.6,0.3-0.6,0.3
		c-0.5,0.3-1.2,0.1-1.5-0.5C41,101.1,41.2,100.5,41.7,100.2L41.7,100.2z"/>
</g>
<g>
	<g opacity="0.25">
		<path fill="#231F20" d="M188.8,87.1l-8.2,0.4c-1.4,0-2.5-0.9-2.5-1.9v0c0-1.1,1.1-1.9,2.5-1.9l8.2,0.4c1.1,0,2,0.7,2,1.5v0
			C190.8,86.4,189.9,87.1,188.8,87.1z"/>
		<path fill="#231F20" d="M118.3,101l-8.7,0.4c-1.4,0-2.6-0.9-2.6-2v0c0-1.1,1.2-2,2.6-2l8.7,0.4c1.2,0,2.1,0.7,2.1,1.6v0
			C120.4,100.3,119.5,101,118.3,101z"/>
		<path fill="none" stroke="#231F20" stroke-linecap="round" stroke-miterlimit="10" d="M78.6,33.5c0,0-7.2,7-9.8,18.2
			C66.1,63,69.6,74,69.6,74"/>
		<path fill="#231F20" d="M138.2,55.2c0,0,0.1-0.3,0.2-0.9c0.1-0.6,0.2-1.5,0.4-2.6c0.1-1.1,0.2-2.3,0.3-3.7
			c0.1-0.7,0.1-1.4,0.1-2.1c0-0.3,0-0.7,0-1c0-0.4,0-0.8,0-1.1c0-0.6-0.1-1.3-0.2-2c-0.1-0.7-0.2-1.4-0.3-2
			c-0.2-1.3-0.5-2.6-0.7-3.6c-0.2-1.1-0.5-1.9-0.7-2.5c-0.2-0.6-0.3-0.9-0.3-0.9l0-0.1c-0.3-1.1,0.3-2.2,1.3-2.5s2.2,0.3,2.5,1.3
			c0,0,0,0.1,0,0.1c0,0,0.1,0.4,0.2,1c0.1,0.6,0.3,1.6,0.6,2.7c0.2,1.1,0.5,2.4,0.7,3.8c0.1,0.7,0.2,1.4,0.3,2.2
			c0.1,0.8,0.2,1.5,0.2,2.4c0,0.4,0,0.8,0,1.1c0,0.4,0,0.8,0,1.2c0,0.7-0.1,1.5-0.1,2.2c-0.1,1.4-0.2,2.7-0.3,3.9
			c-0.1,1.1-0.2,2.1-0.3,2.7c-0.1,0.7-0.1,1.1-0.1,1.1c-0.2,1.1-1.2,1.9-2.3,1.7s-1.9-1.2-1.7-2.3C138.2,55.3,138.2,55.3,138.2,55.2
			L138.2,55.2z"/>
		<path fill="#231F20" d="M75,61.5c0,0,0.1-0.4,0.1-1.1c0.1-0.7,0.2-1.7,0.4-2.9c0.4-2.4,1-5.6,2-8.8c0.2-0.7,0.5-1.6,0.6-2.1
			c0.1-0.7,0.2-1.4,0.3-2.1c0.1-1.4,0.1-2.7,0-3.8c-0.1-1.1-0.2-2.1-0.3-2.7c-0.1-0.3-0.1-0.6-0.1-0.7c0-0.2,0-0.2,0-0.2l0-0.1
			c-0.2-0.8,0.3-1.6,1.1-1.7c0.8-0.2,1.5,0.3,1.7,1.1c0,0,0,0.1,0.1,0.3c0,0.2,0.1,0.5,0.2,0.8c0.2,0.7,0.3,1.7,0.5,3
			c0.1,1.2,0.2,2.7,0.1,4.3c0,0.8-0.1,1.6-0.3,2.5c-0.2,1-0.3,1.6-0.6,2.5c-0.8,2.9-1.2,6-1.5,8.4c-0.1,1.2-0.2,2.1-0.3,2.8
			C79,61.5,79,61.8,79,61.8l0,0c-0.1,1.1-1.1,1.9-2.2,1.8C75.7,63.6,74.9,62.7,75,61.5C75,61.5,75,61.5,75,61.5z"/>
		<path fill="#231F20" d="M222.6,27.3c0,0-0.2,0.3-0.5,1c-0.3,0.6-0.7,1.4-1.2,2.4c-0.5,1-1.1,2.1-1.8,3.3c-0.4,0.6-0.7,1.2-1.1,1.8
			c-0.4,0.6-0.8,1.2-1.2,1.8l-0.7,0.9c-0.2,0.3-0.5,0.6-0.7,0.9c-0.5,0.6-1,1.1-1.5,1.6c-1,1-1.9,1.9-2.8,2.6
			c-0.8,0.7-1.6,1.3-2.1,1.7c-0.3,0.2-0.5,0.4-0.6,0.5c-0.2,0.1-0.3,0.2-0.3,0.2l-0.2,0.1c-0.9,0.6-2.2,0.4-2.8-0.5
			c-0.6-0.9-0.4-2.2,0.5-2.8c0.2-0.1,0.4-0.2,0.5-0.3c0,0,0,0,0.2-0.1c0.1-0.1,0.3-0.1,0.6-0.3c0.5-0.3,1.2-0.7,2.1-1.2
			c0.8-0.6,1.8-1.3,2.7-2.1c0.5-0.4,0.9-0.9,1.4-1.4c0.2-0.2,0.4-0.5,0.6-0.7l0.6-0.8c1.6-2.1,2.8-4.6,3.5-6.5
			c0.4-1,0.6-1.8,0.7-2.3c0.1-0.3,0.1-0.5,0.2-0.7c0-0.1,0-0.2,0-0.2c0.2-1.1,1.3-1.8,2.4-1.6c1.1,0.2,1.8,1.3,1.6,2.4
			C222.7,27,222.7,27.2,222.6,27.3L222.6,27.3z"/>
		<path fill="#231F20" d="M28.2,92.2c0,0,2.4,1.6,5.8,4.2c1.7,1.3,3.7,2.8,5.8,4.5c1,0.8,2.1,1.7,3.2,2.6c1.1,0.9,2.2,1.8,3.3,2.7
			c1.1,0.9,2.2,1.9,3.2,2.8c1.1,0.9,2.1,1.8,3.1,2.7c2,1.8,3.8,3.5,5.4,5c3.1,2.9,5,5,5,5s-2.4-1.6-5.8-4.2
			c-1.7-1.3-3.7-2.8-5.8-4.5c-1-0.8-2.1-1.7-3.2-2.6c-1.1-0.9-2.2-1.8-3.3-2.7c-1.1-0.9-2.2-1.9-3.2-2.8c-1.1-0.9-2.1-1.8-3.1-2.7
			c-2-1.8-3.8-3.5-5.4-5C30.2,94.3,28.2,92.2,28.2,92.2z"/>
		<path fill="#231F20" d="M40.4,135c0,0,0.3-3.6,1-8.9c0.4-2.7,0.8-5.7,1.3-9c0.3-1.6,0.5-3.4,0.8-5.1c0.3-1.7,0.6-3.5,0.9-5.2
			c0.3-1.8,0.7-3.5,1-5.2c0.3-1.7,0.7-3.4,1-5.1c0.7-3.3,1.3-6.3,1.9-8.9c1.2-5.2,2.2-8.7,2.2-8.7s-0.3,3.6-1,8.9
			c-0.4,2.7-0.8,5.7-1.3,9c-0.3,1.6-0.5,3.4-0.8,5.1c-0.3,1.7-0.6,3.5-0.9,5.2c-0.3,1.8-0.7,3.5-1,5.2c-0.3,1.7-0.7,3.4-1,5.1
			c-0.7,3.3-1.3,6.3-1.9,8.9C41.4,131.5,40.4,135,40.4,135z"/>
		<path fill="#231F20" d="M60.2,101.7c0,0-1.7,1-4.4,2.2c-1.3,0.6-2.9,1.3-4.6,2c-0.9,0.3-1.7,0.7-2.6,1c-0.9,0.3-1.8,0.7-2.7,1
			c-0.9,0.3-1.8,0.6-2.7,0.9c-0.9,0.3-1.8,0.6-2.7,0.9c-1.7,0.5-3.4,1-4.8,1.4c-2.8,0.8-4.8,1.1-4.8,1.1s1.7-1,4.4-2.2
			c1.3-0.6,2.9-1.3,4.6-2c0.9-0.3,1.7-0.7,2.6-1c0.9-0.3,1.8-0.7,2.7-1c0.9-0.3,1.8-0.6,2.7-0.9c0.9-0.3,1.8-0.6,2.7-0.9
			c1.7-0.5,3.4-1,4.8-1.4C58.3,102,60.2,101.7,60.2,101.7z"/>
		<path fill="#231F20" d="M252.4,85.4c0,0-2.1,2-5.4,4.7c-1.6,1.4-3.6,2.9-5.7,4.6c-1.1,0.8-2.1,1.7-3.2,2.5
			c-1.1,0.8-2.3,1.7-3.4,2.6c-1.1,0.8-2.3,1.7-3.4,2.5c-1.1,0.8-2.3,1.6-3.4,2.4c-2.2,1.5-4.2,2.9-6,4.1c-3.6,2.4-6.1,3.8-6.1,3.8
			s2.1-2,5.4-4.7c1.6-1.4,3.6-2.9,5.7-4.6c1.1-0.8,2.1-1.7,3.2-2.5c1.1-0.8,2.3-1.7,3.4-2.6c1.1-0.8,2.3-1.7,3.4-2.5
			c1.1-0.8,2.3-1.6,3.4-2.4c2.2-1.5,4.2-2.9,6-4.1C249.9,86.9,252.4,85.4,252.4,85.4z"/>
		<path fill="#231F20" d="M207.9,87.7c0,0,3.4,1.1,8.4,3c2.5,0.9,5.4,2.1,8.5,3.3c1.5,0.6,3.2,1.3,4.8,2c1.6,0.7,3.3,1.4,4.9,2.1
			c1.6,0.7,3.3,1.4,4.9,2.1c1.6,0.7,3.2,1.4,4.7,2.1c3,1.4,5.9,2.7,8.3,3.9c4.8,2.3,8,4.1,8,4.1s-3.4-1.1-8.4-3
			c-2.5-0.9-5.4-2.1-8.5-3.3c-1.5-0.6-3.2-1.3-4.8-2c-1.6-0.7-3.3-1.4-4.9-2.1c-1.6-0.7-3.3-1.4-4.9-2.1c-1.6-0.7-3.2-1.4-4.7-2.1
			c-3-1.4-5.9-2.7-8.3-3.9C211.1,89.4,207.9,87.7,207.9,87.7z"/>
		<path fill="#231F20" d="M235.9,114.5c0,0-0.6-1.9-1.1-4.8c-0.3-1.4-0.6-3.1-0.9-4.9c-0.1-0.9-0.3-1.8-0.4-2.8
			c-0.1-1-0.2-1.9-0.4-2.9c-0.1-1-0.2-1.9-0.3-2.9c-0.1-1-0.2-1.9-0.2-2.8c-0.1-1.8-0.2-3.5-0.3-5c-0.1-2.9,0-4.9,0-4.9
			s0.6,1.9,1.1,4.8c0.3,1.4,0.6,3.1,0.9,4.9c0.1,0.9,0.3,1.8,0.4,2.8c0.1,1,0.2,1.9,0.4,2.9c0.1,1,0.2,1.9,0.3,2.9
			c0.1,1,0.2,1.9,0.2,2.8c0.1,1.8,0.2,3.5,0.3,5C236,112.5,235.9,114.5,235.9,114.5z"/>
		<circle fill="none" stroke="#231F20" stroke-width="4" stroke-miterlimit="10" cx="234.1" cy="99" r="34.8"/>
		<circle fill="none" stroke="#231F20" stroke-width="4" stroke-miterlimit="10" cx="45.5" cy="107" r="34.8"/>
		<circle fill="none" stroke="#231F20" stroke-width="4" stroke-miterlimit="10" cx="234.1" cy="99" r="36.8"/>
		<circle fill="none" stroke="#231F20" stroke-width="4" stroke-miterlimit="10" cx="45.5" cy="107" r="36.8"/>
		<path fill="#231F20" d="M47,107.5c0,0,0.2-0.1,0.5-0.4c0.3-0.3,0.8-0.6,1.3-1.1c0.6-0.5,1.3-1.1,2-1.8c0.8-0.7,1.6-1.5,2.5-2.4
			c0.9-0.9,1.9-1.9,2.9-3c1-1.1,2-2.3,3-3.6c1-1.3,1.9-2.6,2.8-4c0.9-1.4,1.7-2.9,2.5-4.4l0.5-1.1c0.1-0.2,0.2-0.4,0.3-0.6l0.3-0.6
			c0.3-0.8,0.7-1.6,1-2.4c0.6-1.6,1.2-3.1,1.8-4.6c1.1-3,2.1-5.9,2.9-8.4c0.8-2.5,1.4-4.5,1.8-6c0.2-0.7,0.3-1.3,0.4-1.7
			c0.1-0.4,0.1-0.6,0.1-0.6l0,0c0.4-1.6,2-2.6,3.6-2.2c1.6,0.4,2.6,2,2.2,3.6c0,0.1,0,0.1-0.1,0.2c0,0-0.1,0.2-0.2,0.6
			c-0.1,0.4-0.3,1-0.6,1.7c-0.5,1.5-1.3,3.6-2.2,6.1c-1,2.5-2.2,5.4-3.5,8.4c-0.7,1.5-1.4,3.1-2.2,4.7c-0.4,0.8-0.8,1.6-1.2,2.3
			l-0.3,0.6c-0.1,0.2-0.2,0.4-0.3,0.6l-0.7,1.2c-0.9,1.6-1.9,3.1-3,4.6c-1.1,1.4-2.2,2.8-3.3,4c-1.1,1.3-2.2,2.4-3.4,3.5
			c-1.1,1.1-2.2,2.1-3.2,2.9c-1,0.9-2,1.7-2.8,2.3c-0.8,0.7-1.6,1.2-2.2,1.7c-0.6,0.5-1.1,0.8-1.5,1.1c-0.4,0.2-0.5,0.4-0.5,0.4
			c-0.5,0.3-1.2,0.2-1.5-0.3C46.4,108.5,46.5,107.8,47,107.5L47,107.5z"/>
		<path fill="#231F20" d="M118.9,113c0.1,0,0.2-0.1,0.3-0.1c2.5-0.9,5-1.6,7.4-2.4c2.5-0.8,5-1.5,7.5-2.2c2.5-0.7,5-1.4,7.5-2
			c2.5-0.7,5-1.3,7.6-1.9l7.6-1.7c2.5-0.5,5.1-1.1,7.6-1.6l3.8-0.8c1.3-0.3,2.6-0.5,3.8-0.7l3.8-0.7l3.9-0.6c2.6-0.4,5.2-0.7,7.8-1
			c2.6-0.3,5.2-0.5,7.8-0.8c2.6-0.2,5.2-0.4,7.8-0.5c2.6-0.2,5.2-0.2,7.8-0.3c2.6,0,5.2-0.1,7.8,0c2.6,0,5.2,0.1,7.8,0.2
			c2.6,0.1,5.2,0.3,7.9,0.5l-2.2,4.2l0,0c-1.3-1.4-3-2.9-4.6-4.3c-1.6-1.4-3.3-2.8-5-4.1c-1.7-1.3-3.4-2.6-5.2-3.8
			c-1.8-1.2-3.5-2.4-5.4-3.6c-1.8-1.2-3.7-2.2-5.5-3.3c-1.9-1.1-3.8-2.1-5.7-3.1c-1.9-1-3.8-2-5.8-2.9c-2-0.9-3.9-1.9-5.9-2.6
			l-3-1.2c-0.5-0.2-1-0.4-1.5-0.6l-1.5-0.6c-2-0.8-4.1-1.6-6.1-2.3c-2-0.8-4.1-1.5-6.1-2.2c-2-0.7-4.1-1.4-6.2-2.1
			c-2.1-0.6-4.1-1.3-6.2-1.9c-2.1-0.6-4.2-1.2-6.2-1.7c-2.1-0.5-4.2-1-6.3-1.4c-1-0.2-2.1-0.4-3.1-0.5c-0.5-0.1-1-0.1-1.5-0.2
			c-0.5-0.1-1.1-0.1-1.4-0.1l2.6-2.4l0,0c-0.1,1.6-0.3,3-0.5,4.5c-0.2,1.5-0.4,2.9-0.7,4.4c-0.5,2.9-1.1,5.8-1.8,8.7
			c-0.4,1.4-0.7,2.9-1.1,4.3c-0.4,1.4-0.8,2.8-1.3,4.2l-0.7,2.1c-0.3,0.8-0.5,1.4-0.8,2.1c-0.6,1.4-1.2,2.8-1.8,4.1
			c-2.6,5.4-5.8,10.3-9.2,15.1c-1.7,2.4-3.5,4.7-5.3,7C119.3,112.5,119.1,112.8,118.9,113z M110.9,116.2c1.8-0.3,2.6-1.5,3.5-2.6
			c0.9-1.1,1.8-2.2,2.7-3.4c1.8-2.3,3.5-4.6,5.2-6.9c1.6-2.4,3.2-4.8,4.7-7.2c1.4-2.5,2.8-5,4-7.6c0.6-1.3,1.1-2.6,1.6-3.9
			c0.2-0.6,0.5-1.4,0.7-2l0.6-2.1c0.4-1.4,0.8-2.8,1.1-4.1c0.3-1.4,0.7-2.8,0.9-4.2c0.6-2.8,1-5.6,1.3-8.5c0.2-1.4,0.3-2.8,0.4-4.2
			c0.1-1.4,0.2-2.9,0.1-4.2l0,0l0-0.1c0-1.4,1.2-2.4,2.5-2.4c0,0,0,0,0.1,0c0.7,0,1.2,0.1,1.8,0.2c0.6,0.1,1.1,0.1,1.7,0.2
			c1.1,0.2,2.2,0.4,3.3,0.6c2.2,0.4,4.4,0.9,6.5,1.5c2.2,0.5,4.3,1.1,6.4,1.7c2.1,0.6,4.2,1.3,6.3,1.9c2.1,0.7,4.2,1.4,6.3,2.1
			c2.1,0.7,4.2,1.5,6.2,2.2c2.1,0.8,4.1,1.6,6.2,2.3l1.5,0.6c0.5,0.2,1,0.4,1.6,0.6l3.1,1.3c2.1,0.8,4,1.8,6.1,2.7c2,0.9,4,2,6,3
			c2,1.1,3.9,2.1,5.8,3.2c1.9,1.1,3.8,2.2,5.7,3.5c1.9,1.2,3.7,2.4,5.6,3.7c1.8,1.3,3.6,2.6,5.4,4c1.8,1.4,3.5,2.8,5.2,4.3
			c1.7,1.5,3.3,3,5,4.7l0,0l0.1,0.1c0.9,1,0.8,2.6-0.2,3.5c-0.6,0.5-1.4,0.7-2.1,0.6c-2.4-0.4-5-0.7-7.5-1c-2.5-0.3-5.1-0.5-7.6-0.6
			c-2.6-0.1-5.1-0.2-7.7-0.2c-2.6,0-5.1,0-7.7,0.1c-2.6,0.1-5.1,0.2-7.7,0.4c-2.6,0.2-5.1,0.4-7.7,0.7c-2.5,0.3-5.1,0.6-7.6,1
			l-3.8,0.6l-3.8,0.7c-1.3,0.2-2.6,0.5-3.8,0.7l-3.8,0.8c-2.5,0.5-5,1.1-7.5,1.7c-2.5,0.6-5,1.2-7.5,1.8c-2.5,0.7-5,1.3-7.4,2
			c-2.5,0.7-4.9,1.4-7.4,2.2l-3.7,1.2l-3.6,1.2c-2.4,0.8-4.8,1.7-7.2,2.6c-2.4,0.9-4.8,1.9-7,2.9L110.9,116.2z"/>
		
			<line fill="none" stroke="#231F20" stroke-width="5" stroke-linecap="round" stroke-linejoin="round" stroke-miterlimit="10" x1="73.4" y1="70" x2="112.7" y2="117.9"/>
		<path fill="#231F20" d="M183.4,101.7c0,0-0.4-0.2-1.1-0.6c-0.7-0.4-1.8-0.9-3.2-1.6c-1.4-0.7-3.1-1.5-5.1-2.3
			c-1-0.4-2.1-0.9-3.2-1.4c-1.1-0.5-2.3-0.9-3.6-1.4c-2.5-0.9-5.3-1.9-8.2-2.9c-2.9-0.9-6-1.9-9.3-2.8c-1.6-0.5-3.3-0.8-5-1.3
			c-1.7-0.4-3.4-0.8-5.1-1.1c-1.7-0.4-3.5-0.6-5.2-1c-1.7-0.3-3.5-0.5-5.3-0.8c-1.8-0.3-3.6-0.6-5.4-0.8c-1.8-0.3-3.6-0.7-5.4-1.1
			c-1.8-0.4-3.5-0.9-5.2-1.4c-1.7-0.5-3.4-1.1-5-1.6c-1.6-0.6-3.2-1.2-4.8-1.8c-1.5-0.6-3-1.3-4.5-1.9c-1.4-0.6-2.8-1.3-4.2-1.9
			c-1.3-0.7-2.6-1.3-3.9-1.9c-1.2-0.7-2.4-1.3-3.5-1.9c-1.1-0.6-2.1-1.2-3.1-1.8c-1-0.6-1.9-1.1-2.7-1.7c-0.8-0.5-1.6-1-2.2-1.5
			c-1.3-0.9-2.4-1.6-3.1-2.2c-0.7-0.5-1.1-0.8-1.1-0.8c-1.1-0.8-1.3-2.4-0.5-3.5s2.4-1.3,3.5-0.5c0,0,0,0,0,0l0.1,0.1
			c0,0,0.3,0.3,1,0.7c0.7,0.5,1.6,1.2,2.9,2.1c0.6,0.4,1.3,0.9,2.1,1.4c0.8,0.5,1.6,1.1,2.5,1.6c0.9,0.6,1.9,1.2,2.9,1.8
			c1.1,0.6,2.2,1.2,3.3,1.9c1.2,0.6,2.4,1.3,3.7,1.9c1.3,0.6,2.6,1.3,4,1.9c1.4,0.6,2.8,1.3,4.3,1.9c1.5,0.6,3,1.2,4.6,1.8
			c1.6,0.5,3.2,1.1,4.8,1.6c1.6,0.4,3.3,1,5,1.4c0.8,0.2,1.7,0.4,2.5,0.6c0.8,0.2,1.7,0.4,2.6,0.5c1.8,0.3,3.5,0.6,5.3,0.8
			c1.8,0.3,3.6,0.5,5.4,0.8c1.8,0.3,3.6,0.6,5.4,1c1.8,0.4,3.5,0.8,5.2,1.2c1.7,0.4,3.4,0.8,5.1,1.3c3.3,0.9,6.5,1.9,9.5,2.9
			c3,1,5.8,1.9,8.4,2.9c2.6,1,4.9,1.9,7,2.6c2.1,0.8,3.9,1.6,5.4,2.2c1.5,0.6,2.7,1.1,3.4,1.5c0.8,0.3,1.2,0.5,1.2,0.5
			c1.3,0.6,1.8,2,1.3,3.3c-0.6,1.3-2,1.8-3.3,1.3C183.5,101.8,183.5,101.8,183.4,101.7L183.4,101.7z"/>
		<path fill="#231F20" d="M178.3,97.2c0-1.4,0.1-2.8,0.2-4.1c0.1-1.4,0.2-2.7,0.4-4.1c0.3-2.7,0.8-5.4,1.3-8
			c0.5-2.7,1.2-5.3,2.1-7.9c0.4-1.3,0.9-2.6,1.4-3.9c0.5-1.3,1-2.6,1.6-3.8c0.3-0.6,0.6-1.3,0.9-1.9c0.3-0.7,0.7-1.2,1-1.8
			c0.6-1.2,1.4-2.3,2.2-3.5c0.8-1.1,1.6-2.3,2.5-3.3c0.8-1.1,1.7-2.1,2.6-3.2c0.9-1,1.9-2.1,2.8-3c1-1,2-1.9,3-2.9
			c1-0.9,2.1-1.8,3.2-2.7c1.1-0.9,2.2-1.7,3.5-2.5l0,0l0.1,0c1.2-0.7,2.7-0.2,3.3,0.9c0,0.1,0.1,0.2,0.1,0.2l24.4,56.9
			c0.2,0.5,0,1-0.5,1.2c-0.4,0.2-1,0-1.2-0.4l-27.3-55.6l3.5,1.1l0,0c-1,0.5-2.1,1.3-3.2,2c-1.1,0.7-2.1,1.5-3.1,2.3
			c-1,0.8-2,1.6-3,2.5c-1,0.9-1.9,1.8-2.8,2.7c-0.9,0.9-1.8,1.9-2.6,2.9c-0.9,1-1.6,2-2.5,3c-0.7,1.1-1.5,2-2.2,3.2l-1.1,1.6
			c-0.3,0.6-0.7,1.1-1,1.7c-0.7,1.1-1.3,2.3-1.9,3.5c-0.6,1.2-1.1,2.4-1.6,3.6c-0.5,1.2-0.9,2.5-1.3,3.7c-0.4,1.3-0.8,2.5-1.1,3.8
			c-0.6,2.6-1.1,5.2-1.4,7.8c-0.1,1.3-0.3,2.6-0.3,4c0,1.3-0.1,2.7,0.1,3.9l0,0c0,0.6-0.4,1.1-1,1.2c-0.6,0-1.1-0.4-1.2-1
			C178.3,97.2,178.3,97.2,178.3,97.2z"/>
		<path fill="#231F20" d="M141.8,43c0,0,0.5-0.1,1.4-0.3c0.9-0.2,2.2-0.4,3.7-0.8c1.5-0.3,3.3-0.7,5.2-1.2c1.9-0.5,3.9-1.1,5.7-1.8
			c0.4-0.2,0.9-0.4,1.2-0.6c0.2-0.1,0.3-0.2,0.3-0.2c0,0,0,0,0,0c0,0,0,0.1-0.1,0.2l0.1-0.2l0-0.1l0-0.3c0-0.2,0-0.4,0.1-0.6
			c0-0.4,0-0.9,0-1.4c0-1.9-0.2-3.7-0.4-5.2c-0.2-1.5-0.4-2.8-0.5-3.7c-0.1-0.9-0.2-1.4-0.2-1.4l0,0c-0.1-0.8,0.4-1.5,1.2-1.7
			c0.8-0.1,1.5,0.4,1.7,1.2c0,0,0.1,0.5,0.3,1.4c0.2,0.9,0.4,2.2,0.7,3.8c0.2,1.6,0.5,3.4,0.6,5.5c0,0.5,0,1.1,0,1.6
			c0,0.3,0,0.6-0.1,0.9l-0.1,0.5c0,0.2-0.1,0.5-0.1,0.6l-0.1,0.2c-0.1,0.2-0.1,0.4-0.2,0.5c-0.2,0.3-0.4,0.5-0.5,0.6
			c-0.3,0.3-0.6,0.5-0.9,0.7c-0.6,0.4-1.1,0.6-1.6,0.9c-2.1,0.9-4.1,1.6-6.1,2.1c-1.9,0.6-3.7,1-5.3,1.4c-1.6,0.4-2.9,0.7-3.8,0.9
			c-0.9,0.2-1.4,0.3-1.4,0.3c-1.1,0.2-2.1-0.4-2.4-1.5C139.9,44.3,140.6,43.3,141.8,43C141.7,43,141.7,43,141.8,43L141.8,43z"/>
		<path fill="none" stroke="#231F20" stroke-width="7" stroke-miterlimit="10" d="M243.7,76.6c0,0,2.9,1,6.3,4.6
			c3.2,3.3,4.4,6.9,4.4,6.9"/>
		<path fill="none" stroke="#231F20" stroke-width="7" stroke-miterlimit="10" d="M35.4,128.9c0,0-2.9-1-6.3-4.6
			c-3.2-3.3-4.4-6.9-4.4-6.9"/>
		<path fill="#231F20" d="M188.7,116.5l-10.2,0.5c-1.7,0-3.1-1.1-3.1-2.4v0c0-1.3,1.4-2.4,3.1-2.4l10.2,0.5c1.4,0,2.5,0.9,2.5,1.9v0
			C191.1,115.6,190,116.5,188.7,116.5z"/>
		<path fill="#231F20" d="M115.8,140.2l-10.9,0.5c-1.8,0-3.3-1.1-3.3-2.6v0c0-1.4,1.5-2.6,3.3-2.6l10.9,0.5c1.4,0,2.6,0.9,2.6,2v0
			C118.4,139.3,117.3,140.2,115.8,140.2z"/>
	</g>
	<g>
		<g>
			<path fill="#030033" d="M188.8,84.1l-8.2,0.4c-1.4,0-2.5-0.9-2.5-1.9v0c0-1.1,1.1-1.9,2.5-1.9l8.2,0.4c1.1,0,2,0.7,2,1.5v0
				C190.8,83.4,189.9,84.1,188.8,84.1z"/>
			<path fill="#030033" d="M118.3,98l-8.7,0.4c-1.4,0-2.6-0.9-2.6-2v0c0-1.1,1.2-2,2.6-2l8.7,0.4c1.2,0,2.1,0.7,2.1,1.6v0
				C120.4,97.3,119.5,98,118.3,98z"/>
			<path fill="none" stroke="#FFFFFF" stroke-linecap="round" stroke-miterlimit="10" d="M78.6,30.5c0,0-7.2,7-9.8,18.2
				C66.1,60,69.6,71,69.6,71"/>
			<g>
				<path fill="#AAA7A7" d="M138.2,52.2c0,0,0.1-0.3,0.2-0.9c0.1-0.6,0.2-1.5,0.4-2.6c0.1-1.1,0.2-2.3,0.3-3.7
					c0.1-0.7,0.1-1.4,0.1-2.1c0-0.3,0-0.7,0-1c0-0.4,0-0.8,0-1.1c0-0.6-0.1-1.3-0.2-2c-0.1-0.7-0.2-1.4-0.3-2
					c-0.2-1.3-0.5-2.6-0.7-3.6c-0.2-1.1-0.5-1.9-0.7-2.5c-0.2-0.6-0.3-0.9-0.3-0.9l0-0.1c-0.3-1.1,0.3-2.2,1.3-2.5s2.2,0.3,2.5,1.3
					c0,0,0,0.1,0,0.1c0,0,0.1,0.4,0.2,1c0.1,0.6,0.3,1.6,0.6,2.7c0.2,1.1,0.5,2.4,0.7,3.8c0.1,0.7,0.2,1.4,0.3,2.2
					c0.1,0.8,0.2,1.5,0.2,2.4c0,0.4,0,0.8,0,1.1c0,0.4,0,0.8,0,1.2c0,0.7-0.1,1.5-0.1,2.2c-0.1,1.4-0.2,2.7-0.3,3.9
					c-0.1,1.1-0.2,2.1-0.3,2.7c-0.1,0.7-0.1,1.1-0.1,1.1c-0.2,1.1-1.2,1.9-2.3,1.7s-1.9-1.2-1.7-2.3
					C138.2,52.3,138.2,52.3,138.2,52.2L138.2,52.2z"/>
			</g>
			<g>
				<path fill="#AAA7A7" d="M75,58.5c0,0,0.1-0.4,0.1-1.1c0.1-0.7,0.2-1.7,0.4-2.9c0.4-2.4,1-5.6,2-8.8c0.2-0.7,0.5-1.6,0.6-2.1
					c0.1-0.7,0.2-1.4,0.3-2.1c0.1-1.4,0.1-2.7,0-3.8c-0.1-1.1-0.2-2.1-0.3-2.7c-0.1-0.3-0.1-0.6-0.1-0.7c0-0.2,0-0.2,0-0.2l0-0.1
					c-0.2-0.8,0.3-1.6,1.1-1.7c0.8-0.2,1.5,0.3,1.7,1.1c0,0,0,0.1,0.1,0.3c0,0.2,0.1,0.5,0.2,0.8c0.2,0.7,0.3,1.7,0.5,3
					c0.1,1.2,0.2,2.7,0.1,4.3c0,0.8-0.1,1.6-0.3,2.5c-0.2,1-0.3,1.6-0.6,2.5c-0.8,2.9-1.2,6-1.5,8.4c-0.1,1.2-0.2,2.1-0.3,2.8
					C79,58.5,79,58.8,79,58.8l0,0c-0.1,1.1-1.1,1.9-2.2,1.8C75.7,60.6,74.9,59.7,75,58.5C75,58.5,75,58.5,75,58.5z"/>
			</g>
			<g>
				<path fill="#AAA7A7" d="M222.6,24.3c0,0-0.2,0.3-0.5,1c-0.3,0.6-0.7,1.4-1.2,2.4c-0.5,1-1.1,2.1-1.8,3.3
					c-0.4,0.6-0.7,1.2-1.1,1.8c-0.4,0.6-0.8,1.2-1.2,1.8l-0.7,0.9c-0.2,0.3-0.5,0.6-0.7,0.9c-0.5,0.6-1,1.1-1.5,1.6
					c-1,1-1.9,1.9-2.8,2.6c-0.8,0.7-1.6,1.3-2.1,1.7c-0.3,0.2-0.5,0.4-0.6,0.5c-0.2,0.1-0.3,0.2-0.3,0.2l-0.2,0.1
					c-0.9,0.6-2.2,0.4-2.8-0.5c-0.6-0.9-0.4-2.2,0.5-2.8c0.2-0.1,0.4-0.2,0.5-0.3c0,0,0,0,0.2-0.1c0.1-0.1,0.3-0.1,0.6-0.3
					c0.5-0.3,1.2-0.7,2.1-1.2c0.8-0.6,1.8-1.3,2.7-2.1c0.5-0.4,0.9-0.9,1.4-1.4c0.2-0.2,0.4-0.5,0.6-0.7l0.6-0.8
					c1.6-2.1,2.8-4.6,3.5-6.5c0.4-1,0.6-1.8,0.7-2.3c0.1-0.3,0.1-0.5,0.2-0.7c0-0.1,0-0.2,0-0.2c0.2-1.1,1.3-1.8,2.4-1.6
					c1.1,0.2,1.8,1.3,1.6,2.4C222.7,24,222.7,24.2,222.6,24.3L222.6,24.3z"/>
			</g>
			<g>
				<path fill="#FFFFFF" d="M28.2,89.2c0,0,2.4,1.6,5.8,4.2c1.7,1.3,3.7,2.8,5.8,4.5c1,0.8,2.1,1.7,3.2,2.6c1.1,0.9,2.2,1.8,3.3,2.7
					c1.1,0.9,2.2,1.9,3.2,2.8c1.1,0.9,2.1,1.8,3.1,2.7c2,1.8,3.8,3.5,5.4,5c3.1,2.9,5,5,5,5s-2.4-1.6-5.8-4.2
					c-1.7-1.3-3.7-2.8-5.8-4.5c-1-0.8-2.1-1.7-3.2-2.6c-1.1-0.9-2.2-1.8-3.3-2.7c-1.1-0.9-2.2-1.9-3.2-2.8c-1.1-0.9-2.1-1.8-3.1-2.7
					c-2-1.8-3.8-3.5-5.4-5C30.2,91.3,28.2,89.2,28.2,89.2z"/>
			</g>
			<g>
				<path fill="#FFFFFF" d="M40.4,132c0,0,0.3-3.6,1-8.9c0.4-2.7,0.8-5.7,1.3-9c0.3-1.6,0.5-3.4,0.8-5.1c0.3-1.7,0.6-3.5,0.9-5.2
					c0.3-1.8,0.7-3.5,1-5.2c0.3-1.7,0.7-3.4,1-5.1c0.7-3.3,1.3-6.3,1.9-8.9c1.2-5.2,2.2-8.7,2.2-8.7s-0.3,3.6-1,8.9
					c-0.4,2.7-0.8,5.7-1.3,9c-0.3,1.6-0.5,3.4-0.8,5.1c-0.3,1.7-0.6,3.5-0.9,5.2c-0.3,1.8-0.7,3.5-1,5.2c-0.3,1.7-0.7,3.4-1,5.1
					c-0.7,3.3-1.3,6.3-1.9,8.9C41.4,128.5,40.4,132,40.4,132z"/>
			</g>
			<g>
				<path fill="#FFFFFF" d="M60.2,98.7c0,0-1.7,1-4.4,2.2c-1.3,0.6-2.9,1.3-4.6,2c-0.9,0.3-1.7,0.7-2.6,1c-0.9,0.3-1.8,0.7-2.7,1
					c-0.9,0.3-1.8,0.6-2.7,0.9c-0.9,0.3-1.8,0.6-2.7,0.9c-1.7,0.5-3.4,1-4.8,1.4c-2.8,0.8-4.8,1.1-4.8,1.1s1.7-1,4.4-2.2
					c1.3-0.6,2.9-1.3,4.6-2c0.9-0.3,1.7-0.7,2.6-1c0.9-0.3,1.8-0.7,2.7-1c0.9-0.3,1.8-0.6,2.7-0.9c0.9-0.3,1.8-0.6,2.7-0.9
					c1.7-0.5,3.4-1,4.8-1.4C58.3,99,60.2,98.7,60.2,98.7z"/>
			</g>
			<g>
				<path fill="#FFFFFF" d="M252.4,82.4c0,0-2.1,2-5.4,4.7c-1.6,1.4-3.6,2.9-5.7,4.6c-1.1,0.8-2.1,1.7-3.2,2.5
					c-1.1,0.8-2.3,1.7-3.4,2.6c-1.1,0.8-2.3,1.7-3.4,2.5c-1.1,0.8-2.3,1.6-3.4,2.4c-2.2,1.5-4.2,2.9-6,4.1c-3.6,2.4-6.1,3.8-6.1,3.8
					s2.1-2,5.4-4.7c1.6-1.4,3.6-2.9,5.7-4.6c1.1-0.8,2.1-1.7,3.2-2.5c1.1-0.8,2.3-1.7,3.4-2.6c1.1-0.8,2.3-1.7,3.4-2.5
					c1.1-0.8,2.3-1.6,3.4-2.4c2.2-1.5,4.2-2.9,6-4.1C249.9,83.9,252.4,82.4,252.4,82.4z"/>
			</g>
			<g>
				<path fill="#FFFFFF" d="M207.9,84.7c0,0,3.4,1.1,8.4,3c2.5,0.9,5.4,2.1,8.5,3.3c1.5,0.6,3.2,1.3,4.8,2c1.6,0.7,3.3,1.4,4.9,2.1
					c1.6,0.7,3.3,1.4,4.9,2.1c1.6,0.7,3.2,1.4,4.7,2.1c3,1.4,5.9,2.7,8.3,3.9c4.8,2.3,8,4.1,8,4.1s-3.4-1.1-8.4-3
					c-2.5-0.9-5.4-2.1-8.5-3.3c-1.5-0.6-3.2-1.3-4.8-2c-1.6-0.7-3.3-1.4-4.9-2.1c-1.6-0.7-3.3-1.4-4.9-2.1c-1.6-0.7-3.2-1.4-4.7-2.1
					c-3-1.4-5.9-2.7-8.3-3.9C211.1,86.4,207.9,84.7,207.9,84.7z"/>
			</g>
			<g>
				<path fill="#FFFFFF" d="M235.9,111.5c0,0-0.6-1.9-1.1-4.8c-0.3-1.4-0.6-3.1-0.9-4.9c-0.1-0.9-0.3-1.8-0.4-2.8
					c-0.1-1-0.2-1.9-0.4-2.9c-0.1-1-0.2-1.9-0.3-2.9c-0.1-1-0.2-1.9-0.2-2.8c-0.1-1.8-0.2-3.5-0.3-5c-0.1-2.9,0-4.9,0-4.9
					s0.6,1.9,1.1,4.8c0.3,1.4,0.6,3.1,0.9,4.9c0.1,0.9,0.3,1.8,0.4,2.8c0.1,1,0.2,1.9,0.4,2.9c0.1,1,0.2,1.9,0.3,2.9
					c0.1,1,0.2,1.9,0.2,2.8c0.1,1.8,0.2,3.5,0.3,5C236,109.5,235.9,111.5,235.9,111.5z"/>
			</g>
			<circle fill="none" stroke="#FFFFFF" stroke-width="4" stroke-miterlimit="10" cx="234.1" cy="96" r="34.8"/>
			<circle fill="none" stroke="#FFFFFF" stroke-width="4" stroke-miterlimit="10" cx="45.5" cy="104" r="34.8"/>
			<circle fill="none" stroke="#030033" stroke-width="4" stroke-miterlimit="10" cx="234.1" cy="96" r="36.8"/>
			<circle fill="none" stroke="#030033" stroke-width="4" stroke-miterlimit="10" cx="45.5" cy="104" r="36.8"/>
			<g>
				<path fill="#F15A24" d="M47,104.5c0,0,0.2-0.1,0.5-0.4c0.3-0.3,0.8-0.6,1.3-1.1c0.6-0.5,1.3-1.1,2-1.8c0.8-0.7,1.6-1.5,2.5-2.4
					c0.9-0.9,1.9-1.9,2.9-3c1-1.1,2-2.3,3-3.6c1-1.3,1.9-2.6,2.8-4c0.9-1.4,1.7-2.9,2.5-4.4l0.5-1.1c0.1-0.2,0.2-0.4,0.3-0.6
					l0.3-0.6c0.3-0.8,0.7-1.6,1-2.4c0.6-1.6,1.2-3.1,1.8-4.6c1.1-3,2.1-5.9,2.9-8.4c0.8-2.5,1.4-4.5,1.8-6c0.2-0.7,0.3-1.3,0.4-1.7
					c0.1-0.4,0.1-0.6,0.1-0.6l0,0c0.4-1.6,2-2.6,3.6-2.2c1.6,0.4,2.6,2,2.2,3.6c0,0.1,0,0.1-0.1,0.2c0,0-0.1,0.2-0.2,0.6
					c-0.1,0.4-0.3,1-0.6,1.7c-0.5,1.5-1.3,3.6-2.2,6.1c-1,2.5-2.2,5.4-3.5,8.4c-0.7,1.5-1.4,3.1-2.2,4.7c-0.4,0.8-0.8,1.6-1.2,2.3
					l-0.3,0.6c-0.1,0.2-0.2,0.4-0.3,0.6l-0.7,1.2c-0.9,1.6-1.9,3.1-3,4.6c-1.1,1.4-2.2,2.8-3.3,4c-1.1,1.3-2.2,2.4-3.4,3.5
					c-1.1,1.1-2.2,2.1-3.2,2.9c-1,0.9-2,1.7-2.8,2.3c-0.8,0.7-1.6,1.2-2.2,1.7c-0.6,0.5-1.1,0.8-1.5,1.1c-0.4,0.2-0.5,0.4-0.5,0.4
					c-0.5,0.3-1.2,0.2-1.5-0.3C46.4,105.5,46.5,104.8,47,104.5L47,104.5z"/>
			</g>
			<g>
				<path fill="#F15A24" d="M118.9,110c0.1,0,0.2-0.1,0.3-0.1c2.5-0.9,5-1.6,7.4-2.4c2.5-0.8,5-1.5,7.5-2.2c2.5-0.7,5-1.4,7.5-2
					c2.5-0.7,5-1.3,7.6-1.9l7.6-1.7c2.5-0.5,5.1-1.1,7.6-1.6l3.8-0.8c1.3-0.3,2.6-0.5,3.8-0.7l3.8-0.7l3.9-0.6
					c2.6-0.4,5.2-0.7,7.8-1c2.6-0.3,5.2-0.5,7.8-0.8c2.6-0.2,5.2-0.4,7.8-0.5c2.6-0.2,5.2-0.2,7.8-0.3c2.6,0,5.2-0.1,7.8,0
					c2.6,0,5.2,0.1,7.8,0.2c2.6,0.1,5.2,0.3,7.9,0.5l-2.2,4.2l0,0c-1.3-1.4-3-2.9-4.6-4.3c-1.6-1.4-3.3-2.8-5-4.1
					c-1.7-1.3-3.4-2.6-5.2-3.8c-1.8-1.2-3.5-2.4-5.4-3.6c-1.8-1.2-3.7-2.2-5.5-3.3c-1.9-1.1-3.8-2.1-5.7-3.1c-1.9-1-3.8-2-5.8-2.9
					c-2-0.9-3.9-1.9-5.9-2.6l-3-1.2c-0.5-0.2-1-0.4-1.5-0.6l-1.5-0.6c-2-0.8-4.1-1.6-6.1-2.3c-2-0.8-4.1-1.5-6.1-2.2
					c-2-0.7-4.1-1.4-6.2-2.1c-2.1-0.6-4.1-1.3-6.2-1.9c-2.1-0.6-4.2-1.2-6.2-1.7c-2.1-0.5-4.2-1-6.3-1.4c-1-0.2-2.1-0.4-3.1-0.5
					c-0.5-0.1-1-0.1-1.5-0.2c-0.5-0.1-1.1-0.1-1.4-0.1l2.6-2.4l0,0c-0.1,1.6-0.3,3-0.5,4.5c-0.2,1.5-0.4,2.9-0.7,4.4
					c-0.5,2.9-1.1,5.8-1.8,8.7c-0.4,1.4-0.7,2.9-1.1,4.3c-0.4,1.4-0.8,2.8-1.3,4.2l-0.7,2.1c-0.3,0.8-0.5,1.4-0.8,2.1
					c-0.6,1.4-1.2,2.8-1.8,4.1c-2.6,5.4-5.8,10.3-9.2,15.1c-1.7,2.4-3.5,4.7-5.3,7C119.3,109.5,119.1,109.8,118.9,110z M110.9,113.2
					c1.8-0.3,2.6-1.5,3.5-2.6c0.9-1.1,1.8-2.2,2.7-3.4c1.8-2.3,3.5-4.6,5.2-6.9c1.6-2.4,3.2-4.8,4.7-7.2c1.4-2.5,2.8-5,4-7.6
					c0.6-1.3,1.1-2.6,1.6-3.9c0.2-0.6,0.5-1.4,0.7-2l0.6-2.1c0.4-1.4,0.8-2.8,1.1-4.1c0.3-1.4,0.7-2.8,0.9-4.2
					c0.6-2.8,1-5.6,1.3-8.5c0.2-1.4,0.3-2.8,0.4-4.2c0.1-1.4,0.2-2.9,0.1-4.2l0,0l0-0.1c0-1.4,1.2-2.4,2.5-2.4c0,0,0,0,0.1,0
					c0.7,0,1.2,0.1,1.8,0.2c0.6,0.1,1.1,0.1,1.7,0.2c1.1,0.2,2.2,0.4,3.3,0.6c2.2,0.4,4.4,0.9,6.5,1.5c2.2,0.5,4.3,1.1,6.4,1.7
					c2.1,0.6,4.2,1.3,6.3,1.9c2.1,0.7,4.2,1.4,6.3,2.1c2.1,0.7,4.2,1.5,6.2,2.2c2.1,0.8,4.1,1.6,6.2,2.3l1.5,0.6
					c0.5,0.2,1,0.4,1.6,0.6l3.1,1.3c2.1,0.8,4,1.8,6.1,2.7c2,0.9,4,2,6,3c2,1.1,3.9,2.1,5.8,3.2c1.9,1.1,3.8,2.2,5.7,3.5
					c1.9,1.2,3.7,2.4,5.6,3.7c1.8,1.3,3.6,2.6,5.4,4c1.8,1.4,3.5,2.8,5.2,4.3c1.7,1.5,3.3,3,5,4.7l0,0l0.1,0.1
					c0.9,1,0.8,2.6-0.2,3.5c-0.6,0.5-1.4,0.7-2.1,0.6c-2.4-0.4-5-0.7-7.5-1c-2.5-0.3-5.1-0.5-7.6-0.6c-2.6-0.1-5.1-0.2-7.7-0.2
					c-2.6,0-5.1,0-7.7,0.1c-2.6,0.1-5.1,0.2-7.7,0.4c-2.6,0.2-5.1,0.4-7.7,0.7c-2.5,0.3-5.1,0.6-7.6,1l-3.8,0.6l-3.8,0.7
					c-1.3,0.2-2.6,0.5-3.8,0.7l-3.8,0.8c-2.5,0.5-5,1.1-7.5,1.7c-2.5,0.6-5,1.2-7.5,1.8c-2.5,0.7-5,1.3-7.4,2
					c-2.5,0.7-4.9,1.4-7.4,2.2l-3.7,1.2l-3.6,1.2c-2.4,0.8-4.8,1.7-7.2,2.6c-2.4,0.9-4.8,1.9-7,2.9L110.9,113.2z"/>
			</g>
			
				<line fill="none" stroke="#F15A24" stroke-width="5" stroke-linecap="round" stroke-linejoin="round" stroke-miterlimit="10" x1="73.4" y1="67" x2="112.7" y2="114.9"/>
			<g>
				<path fill="#F15A24" d="M183.4,98.7c0,0-0.4-0.2-1.1-0.6c-0.7-0.4-1.8-0.9-3.2-1.6c-1.4-0.7-3.1-1.5-5.1-2.3
					c-1-0.4-2.1-0.9-3.2-1.4c-1.1-0.5-2.3-0.9-3.6-1.4c-2.5-0.9-5.3-1.9-8.2-2.9c-2.9-0.9-6-1.9-9.3-2.8c-1.6-0.5-3.3-0.8-5-1.3
					c-1.7-0.4-3.4-0.8-5.1-1.1c-1.7-0.4-3.5-0.6-5.2-1c-1.7-0.3-3.5-0.5-5.3-0.8c-1.8-0.3-3.6-0.6-5.4-0.8c-1.8-0.3-3.6-0.7-5.4-1.1
					c-1.8-0.4-3.5-0.9-5.2-1.4c-1.7-0.5-3.4-1.1-5-1.6c-1.6-0.6-3.2-1.2-4.8-1.8c-1.5-0.6-3-1.3-4.5-1.9c-1.4-0.6-2.8-1.3-4.2-1.9
					c-1.3-0.7-2.6-1.3-3.9-1.9c-1.2-0.7-2.4-1.3-3.5-1.9c-1.1-0.6-2.1-1.2-3.1-1.8c-1-0.6-1.9-1.1-2.7-1.7c-0.8-0.5-1.6-1-2.2-1.5
					c-1.3-0.9-2.4-1.6-3.1-2.2c-0.7-0.5-1.1-0.8-1.1-0.8c-1.1-0.8-1.3-2.4-0.5-3.5s2.4-1.3,3.5-0.5c0,0,0,0,0,0l0.1,0.1
					c0,0,0.3,0.3,1,0.7c0.7,0.5,1.6,1.2,2.9,2.1c0.6,0.4,1.3,0.9,2.1,1.4c0.8,0.5,1.6,1.1,2.5,1.6c0.9,0.6,1.9,1.2,2.9,1.8
					c1.1,0.6,2.2,1.2,3.3,1.9c1.2,0.6,2.4,1.3,3.7,1.9c1.3,0.6,2.6,1.3,4,1.9c1.4,0.6,2.8,1.3,4.3,1.9c1.5,0.6,3,1.2,4.6,1.8
					c1.6,0.5,3.2,1.1,4.8,1.6c1.6,0.4,3.3,1,5,1.4c0.8,0.2,1.7,0.4,2.5,0.6c0.8,0.2,1.7,0.4,2.6,0.5c1.8,0.3,3.5,0.6,5.3,0.8
					c1.8,0.3,3.6,0.5,5.4,0.8c1.8,0.3,3.6,0.6,5.4,1c1.8,0.4,3.5,0.8,5.2,1.2c1.7,0.4,3.4,0.8,5.1,1.3c3.3,0.9,6.5,1.9,9.5,2.9
					c3,1,5.8,1.9,8.4,2.9c2.6,1,4.9,1.9,7,2.6c2.1,0.8,3.9,1.6,5.4,2.2c1.5,0.6,2.7,1.1,3.4,1.5c0.8,0.3,1.2,0.5,1.2,0.5
					c1.3,0.6,1.8,2,1.3,3.3c-0.6,1.3-2,1.8-3.3,1.3C183.5,98.8,183.5,98.8,183.4,98.7L183.4,98.7z"/>
			</g>
			<g>
				<path fill="#F15A24" d="M178.3,94.2c0-1.4,0.1-2.8,0.2-4.1c0.1-1.4,0.2-2.7,0.4-4.1c0.3-2.7,0.8-5.4,1.3-8
					c0.5-2.7,1.2-5.3,2.1-7.9c0.4-1.3,0.9-2.6,1.4-3.9c0.5-1.3,1-2.6,1.6-3.8c0.3-0.6,0.6-1.3,0.9-1.9c0.3-0.7,0.7-1.2,1-1.8
					c0.6-1.2,1.4-2.3,2.2-3.5c0.8-1.1,1.6-2.3,2.5-3.3c0.8-1.1,1.7-2.1,2.6-3.2c0.9-1,1.9-2.1,2.8-3c1-1,2-1.9,3-2.9
					c1-0.9,2.1-1.8,3.2-2.7c1.1-0.9,2.2-1.7,3.5-2.5l0,0l0.1,0c1.2-0.7,2.7-0.2,3.3,0.9c0,0.1,0.1,0.2,0.1,0.2l24.4,56.9
					c0.2,0.5,0,1-0.5,1.2c-0.4,0.2-1,0-1.2-0.4l-27.3-55.6l3.5,1.1l0,0c-1,0.5-2.1,1.3-3.2,2c-1.1,0.7-2.1,1.5-3.1,2.3
					c-1,0.8-2,1.6-3,2.5c-1,0.9-1.9,1.8-2.8,2.7c-0.9,0.9-1.8,1.9-2.6,2.9c-0.9,1-1.6,2-2.5,3c-0.7,1.1-1.5,2-2.2,3.2l-1.1,1.6
					c-0.3,0.6-0.7,1.1-1,1.7c-0.7,1.1-1.3,2.3-1.9,3.5c-0.6,1.2-1.1,2.4-1.6,3.6c-0.5,1.2-0.9,2.5-1.3,3.7c-0.4,1.3-0.8,2.5-1.1,3.8
					c-0.6,2.6-1.1,5.2-1.4,7.8c-0.1,1.3-0.3,2.6-0.3,4c0,1.3-0.1,2.7,0.1,3.9l0,0c0,0.6-0.4,1.1-1,1.2c-0.6,0-1.1-0.4-1.2-1
					C178.3,94.2,178.3,94.2,178.3,94.2z"/>
			</g>
			<g>
				<path fill="#AAA7A7" d="M141.8,40c0,0,0.5-0.1,1.4-0.3c0.9-0.2,2.2-0.4,3.7-0.8c1.5-0.3,3.3-0.7,5.2-1.2
					c1.9-0.5,3.9-1.1,5.7-1.8c0.4-0.2,0.9-0.4,1.2-0.6c0.2-0.1,0.3-0.2,0.3-0.2c0,0,0,0,0,0c0,0,0,0.1-0.1,0.2l0.1-0.2l0-0.1l0-0.3
					c0-0.2,0-0.4,0.1-0.6c0-0.4,0-0.9,0-1.4c0-1.9-0.2-3.7-0.4-5.2c-0.2-1.5-0.4-2.8-0.5-3.7c-0.1-0.9-0.2-1.4-0.2-1.4l0,0
					c-0.1-0.8,0.4-1.5,1.2-1.7c0.8-0.1,1.5,0.4,1.7,1.2c0,0,0.1,0.5,0.3,1.4c0.2,0.9,0.4,2.2,0.7,3.8c0.2,1.6,0.5,3.4,0.6,5.5
					c0,0.5,0,1.1,0,1.6c0,0.3,0,0.6-0.1,0.9l-0.1,0.5c0,0.2-0.1,0.5-0.1,0.6l-0.1,0.2c-0.1,0.2-0.1,0.4-0.2,0.5
					c-0.2,0.3-0.4,0.5-0.5,0.6c-0.3,0.3-0.6,0.5-0.9,0.7c-0.6,0.4-1.1,0.6-1.6,0.9c-2.1,0.9-4.1,1.6-6.1,2.1c-1.9,0.6-3.7,1-5.3,1.4
					c-1.6,0.4-2.9,0.7-3.8,0.9c-0.9,0.2-1.4,0.3-1.4,0.3c-1.1,0.2-2.1-0.4-2.4-1.5C139.9,41.3,140.6,40.3,141.8,40
					C141.7,40,141.7,40,141.8,40L141.8,40z"/>
			</g>
			<path fill="none" stroke="#FF8200" stroke-width="7" stroke-miterlimit="10" d="M243.7,73.6c0,0,2.9,1,6.3,4.6
				c3.2,3.3,4.4,6.9,4.4,6.9"/>
			<path fill="none" stroke="#FF8200" stroke-width="7" stroke-miterlimit="10" d="M35.4,125.9c0,0-2.9-1-6.3-4.6
				c-3.2-3.3-4.4-6.9-4.4-6.9"/>
			<path fill="#030033" d="M188.7,113.5l-10.2,0.5c-1.7,0-3.1-1.1-3.1-2.4v0c0-1.3,1.4-2.4,3.1-2.4l10.2,0.5c1.4,0,2.5,0.9,2.5,1.9
				v0C191.1,112.6,190,113.5,188.7,113.5z"/>
			<path fill="#030033" d="M115.8,137.2l-10.9,0.5c-1.8,0-3.3-1.1-3.3-2.6v0c0-1.4,1.5-2.6,3.3-2.6l10.9,0.5c1.4,0,2.6,0.9,2.6,2v0
				C118.4,136.3,117.3,137.2,115.8,137.2z"/>
		</g>
	</g>
</g>
<g>
	<g opacity="0.25">
		<path fill="#231F20" d="M87.3,37.5c0,0-0.1,0-0.2,0c-0.1,0-0.3,0.1-0.6,0.1c-0.5,0.1-1.2,0.1-2.1,0.2c-0.4,0-0.9,0-1.4,0
			c-0.5,0-1.1-0.1-1.7-0.2c-0.6-0.1-1.2-0.3-1.8-0.6c-0.3-0.1-0.6-0.4-0.9-0.6c-0.3-0.3-0.6-0.5-0.8-0.8L77.4,35l-0.1-0.1l-0.1-0.2
			l0,0l0,0l0,0l0,0l-0.1-0.2l-0.1-0.2c0-0.1,0-0.1-0.1-0.3c-0.1-0.3-0.1-0.6-0.1-0.8c0-1,0.5-1.8,1-2.2c0.5-0.5,1-0.8,1.4-1.1
			c0.5-0.3,0.9-0.4,1.3-0.6c0.8-0.3,1.5-0.5,1.9-0.6c0.2-0.1,0.4-0.1,0.6-0.1c0.1,0,0.2,0,0.2,0c0.5-0.1,1,0.2,1.1,0.7
			c0.1,0.5-0.2,0.9-0.6,1.1l-0.1,0c0,0-0.2,0.1-0.6,0.2c-0.4,0.2-1,0.4-1.6,0.8c-0.3,0.2-0.6,0.4-0.9,0.6c-0.3,0.2-0.6,0.5-0.8,0.7
			c-0.2,0.3-0.2,0.5-0.2,0.5c0,0,0,0,0-0.1c0,0,0,0,0,0.1l0.1,0.2l0.1,0.2l0,0l0,0l0,0l0,0c0-0.1,0.1,0.2-0.1-0.2l0,0
			c0.1,0,0.1,0.1,0.1,0.1c0.1,0.1,0.2,0.2,0.3,0.3c0.2,0.1,0.3,0.1,0.4,0.2c0.3,0.1,0.7,0.2,1.1,0.2c0.4,0,0.8,0,1.2,0
			c0.4,0,0.8-0.1,1.1-0.1c0.7-0.1,1.3-0.2,1.7-0.3c0.2-0.1,0.3-0.1,0.4-0.1c0.1,0,0.2,0,0.2,0l0,0c1.1-0.3,2.2,0.3,2.5,1.3
			s-0.3,2.2-1.3,2.5C87.5,37.4,87.4,37.5,87.3,37.5z"/>
		<path fill="#231F20" d="M168.4,27.5c0,0-0.1,0-0.2,0c-0.1,0-0.3,0.1-0.6,0.1c-0.5,0.1-1.2,0.1-2.1,0.2c-0.4,0-0.9,0-1.4,0
			c-0.5,0-1.1-0.1-1.7-0.2c-0.6-0.1-1.2-0.3-1.8-0.6c-0.3-0.1-0.6-0.4-0.9-0.6c-0.3-0.3-0.6-0.5-0.8-0.8l-0.3-0.5l-0.1-0.1l-0.1-0.2
			l0,0l0,0l0,0l0,0l-0.1-0.2l-0.1-0.2c0-0.1,0-0.1-0.1-0.3c-0.1-0.3-0.1-0.6-0.1-0.8c0-1,0.5-1.8,1-2.2c0.5-0.5,1-0.8,1.4-1.1
			c0.5-0.3,0.9-0.4,1.3-0.6c0.8-0.3,1.5-0.5,1.9-0.6c0.2-0.1,0.4-0.1,0.6-0.1c0.1,0,0.2,0,0.2,0c0.5-0.1,1,0.2,1.1,0.7
			c0.1,0.5-0.2,0.9-0.6,1.1l-0.1,0c0,0-0.2,0.1-0.6,0.2c-0.4,0.2-1,0.4-1.6,0.8c-0.3,0.2-0.6,0.4-0.9,0.6c-0.3,0.2-0.6,0.5-0.8,0.7
			c-0.2,0.3-0.2,0.5-0.2,0.5c0,0,0,0,0-0.1c0,0,0,0,0,0.1l0.1,0.2l0.1,0.2l0,0l0,0l0,0l0,0c0-0.1,0.1,0.2-0.1-0.2l0,0
			c0.1,0,0.1,0.1,0.1,0.1c0.1,0.1,0.2,0.2,0.3,0.3c0.2,0.1,0.3,0.1,0.4,0.2c0.3,0.1,0.7,0.2,1.1,0.2c0.4,0,0.8,0,1.2,0
			c0.4,0,0.8-0.1,1.1-0.1c0.7-0.1,1.3-0.2,1.7-0.3c0.2-0.1,0.3-0.1,0.4-0.1c0.1,0,0.2,0,0.2,0l0,0c1.1-0.3,2.2,0.3,2.5,1.3
			c0.3,1.1-0.3,2.2-1.3,2.5C168.6,27.4,168.5,27.4,168.4,27.5z"/>
		<path fill="#231F20" d="M183.3,94.2c2.1,0,3.9,1.7,3.9,3.9s-1.7,3.9-3.9,3.9s-3.9-1.7-3.9-3.9S181.1,94.2,183.3,94.2 M183.3,90.2
			c-4.3,0-7.9,3.5-7.9,7.9c0,4.3,3.5,7.9,7.9,7.9s7.9-3.5,7.9-7.9C191.1,93.8,187.6,90.2,183.3,90.2L183.3,90.2z"/>
		<path fill="#231F20" d="M112.7,109.9c3.9,0,7,3.1,7,7s-3.1,7-7,7s-7-3.1-7-7S108.9,109.9,112.7,109.9 M112.7,105.9
			c-6.1,0-11,4.9-11,11c0,6.1,4.9,11,11,11s11-4.9,11-11C123.7,110.9,118.8,105.9,112.7,105.9L112.7,105.9z"/>
		<path fill="#231F20" d="M89.7,27.6l-5.4,3.3c-0.9,0.5-2.1,0.1-2.6-0.8v0c-0.5-0.9-0.1-2.1,0.8-2.6l5.7-2.6
			c0.7-0.4,1.7-0.1,2.1,0.6l0,0C90.8,26.3,90.5,27.2,89.7,27.6z"/>
		<path fill="#231F20" d="M93.9,37.5l-8,0.5c-1.3,0-2.4-1.1-2.4-2.4v0c0-1.3,1.1-2.4,2.4-2.4l8,0.5c1.1,0,1.9,0.9,1.9,1.9v0
			C95.8,36.6,94.9,37.5,93.9,37.5z"/>
		<path fill="#231F20" d="M170.9,17.6l-5.4,3.3c-0.9,0.5-2.1,0.1-2.6-0.8v0c-0.5-0.9-0.1-2.1,0.8-2.6l5.7-2.6
			c0.7-0.4,1.7-0.1,2.1,0.6v0C171.9,16.2,171.6,17.2,170.9,17.6z"/>
		<path fill="#231F20" d="M175,27.9l-8,0.5c-1.3,0-2.4-1.1-2.4-2.4v0c0-1.3,1.1-2.4,2.4-2.4l8,0.5c1.1,0,1.9,0.9,1.9,1.9v0
			C176.9,27,176.1,27.9,175,27.9z"/>
		<path fill="none" stroke="#231F20" stroke-miterlimit="10" d="M191.1,98.1c0-4.3-3.5-7.9-7.9-7.9c-0.6,0-1.2,0.1-1.7,0.2l0,0
			l-71.2,15.8l0,0c-4.9,1.1-8.6,5.5-8.6,10.7c0,6.1,4.9,11,11,11c1.1,0,2.3-0.2,3.3-0.5l0,0l69.6-21.8l0,0
			C188.8,104.6,191.1,101.6,191.1,98.1z"/>
		<path fill="#231F20" d="M124.4,33.6c0,0-1-4.5,7.3-4s15.4-5.3,19.5-3.2s2.7,8,0.8,7.9s-7.2-1.2-11.4,2.5
			C136.5,40.3,124.4,33.6,124.4,33.6z"/>
		<path fill="#231F20" d="M205.7,22.8c0,0-1-4.5,7.3-4c8.3,0.6,15.4-5.3,19.5-3.2c4.1,2,2.7,8,0.8,7.9c-1.9-0.2-7.2-1.2-11.4,2.5
			S205.7,22.8,205.7,22.8z"/>
	</g>
	<g>
		<g>
			<g>
				<g>
					<path fill="#AAA7A7" d="M87.3,35.5c0,0-0.1,0-0.2,0c-0.1,0-0.3,0.1-0.6,0.1c-0.5,0.1-1.2,0.1-2.1,0.2c-0.4,0-0.9,0-1.4,0
						c-0.5,0-1.1-0.1-1.7-0.2c-0.6-0.1-1.2-0.3-1.8-0.6c-0.3-0.1-0.6-0.4-0.9-0.6c-0.3-0.3-0.6-0.5-0.8-0.8L77.4,33l-0.1-0.1
						l-0.1-0.2l0,0l0,0l0,0l0,0l-0.1-0.2l-0.1-0.2c0-0.1,0-0.1-0.1-0.3c-0.1-0.3-0.1-0.6-0.1-0.8c0-1,0.5-1.8,1-2.2
						c0.5-0.5,1-0.8,1.4-1.1c0.5-0.3,0.9-0.4,1.3-0.6c0.8-0.3,1.5-0.5,1.9-0.6c0.2-0.1,0.4-0.1,0.6-0.1c0.1,0,0.2,0,0.2,0
						c0.5-0.1,1,0.2,1.1,0.7c0.1,0.5-0.2,0.9-0.6,1.1l-0.1,0c0,0-0.2,0.1-0.6,0.2c-0.4,0.2-1,0.4-1.6,0.8c-0.3,0.2-0.6,0.4-0.9,0.6
						c-0.3,0.2-0.6,0.5-0.8,0.7c-0.2,0.3-0.2,0.5-0.2,0.5c0,0,0,0,0-0.1c0,0,0,0,0,0.1l0.1,0.2l0.1,0.2l0,0l0,0l0,0l0,0
						c0-0.1,0.1,0.2-0.1-0.2l0,0c0.1,0,0.1,0.1,0.1,0.1c0.1,0.1,0.2,0.2,0.3,0.3c0.2,0.1,0.3,0.1,0.4,0.2c0.3,0.1,0.7,0.2,1.1,0.2
						c0.4,0,0.8,0,1.2,0c0.4,0,0.8-0.1,1.1-0.1c0.7-0.1,1.3-0.2,1.7-0.3c0.2-0.1,0.3-0.1,0.4-0.1c0.1,0,0.2,0,0.2,0l0,0
						c1.1-0.3,2.2,0.3,2.5,1.3c0.3,1.1-0.3,2.2-1.3,2.5C87.5,35.4,87.4,35.5,87.3,35.5z"/>
				</g>
			</g>
			<g>
				<g>
					<path fill="#AAA7A7" d="M168.4,25.5c0,0-0.1,0-0.2,0c-0.1,0-0.3,0.1-0.6,0.1c-0.5,0.1-1.2,0.1-2.1,0.2c-0.4,0-0.9,0-1.4,0
						c-0.5,0-1.1-0.1-1.7-0.2c-0.6-0.1-1.2-0.3-1.8-0.6c-0.3-0.1-0.6-0.4-0.9-0.6c-0.3-0.3-0.6-0.5-0.8-0.8l-0.3-0.5l-0.1-0.1
						l-0.1-0.2l0,0l0,0l0,0l0,0l-0.1-0.2l-0.1-0.2c0-0.1,0-0.1-0.1-0.3c-0.1-0.3-0.1-0.6-0.1-0.8c0-1,0.5-1.8,1-2.2
						c0.5-0.5,1-0.8,1.4-1.1c0.5-0.3,0.9-0.4,1.3-0.6c0.8-0.3,1.5-0.5,1.9-0.6c0.2-0.1,0.4-0.1,0.6-0.1c0.1,0,0.2,0,0.2,0
						c0.5-0.1,1,0.2,1.1,0.7c0.1,0.5-0.2,0.9-0.6,1.1l-0.1,0c0,0-0.2,0.1-0.6,0.2c-0.4,0.2-1,0.4-1.6,0.8c-0.3,0.2-0.6,0.4-0.9,0.6
						c-0.3,0.2-0.6,0.5-0.8,0.7c-0.2,0.3-0.2,0.5-0.2,0.5c0,0,0,0,0-0.1c0,0,0,0,0,0.1l0.1,0.2l0.1,0.2l0,0l0,0l0,0l0,0
						c0-0.1,0.1,0.2-0.1-0.2l0,0c0.1,0,0.1,0.1,0.1,0.1c0.1,0.1,0.2,0.2,0.3,0.3c0.2,0.1,0.3,0.1,0.4,0.2c0.3,0.1,0.7,0.2,1.1,0.2
						c0.4,0,0.8,0,1.2,0c0.4,0,0.8-0.1,1.1-0.1c0.7-0.1,1.3-0.2,1.7-0.3c0.2-0.1,0.3-0.1,0.4-0.1c0.1,0,0.2,0,0.2,0l0,0
						c1.1-0.3,2.2,0.3,2.5,1.3c0.3,1.1-0.3,2.2-1.3,2.5C168.6,25.4,168.5,25.4,168.4,25.5z"/>
				</g>
			</g>
			<g>
				<path fill="#AAA7A7" d="M183.3,92.2c2.1,0,3.9,1.7,3.9,3.9s-1.7,3.9-3.9,3.9s-3.9-1.7-3.9-3.9S181.1,92.2,183.3,92.2
					 M183.3,88.2c-4.3,0-7.9,3.5-7.9,7.9c0,4.3,3.5,7.9,7.9,7.9s7.9-3.5,7.9-7.9C191.1,91.8,187.6,88.2,183.3,88.2L183.3,88.2z"/>
			</g>
			<g>
				<path fill="#AAA7A7" d="M112.7,107.9c3.9,0,7,3.1,7,7s-3.1,7-7,7s-7-3.1-7-7S108.9,107.9,112.7,107.9 M112.7,103.9
					c-6.1,0-11,4.9-11,11c0,6.1,4.9,11,11,11s11-4.9,11-11C123.7,108.9,118.8,103.9,112.7,103.9L112.7,103.9z"/>
			</g>
			<path fill="#7DEDF9" d="M89.7,25.6l-5.4,3.3c-0.9,0.5-2.1,0.1-2.6-0.8v0c-0.5-0.9-0.1-2.1,0.8-2.6l5.7-2.6
				c0.7-0.4,1.7-0.1,2.1,0.6l0,0C90.8,24.3,90.5,25.2,89.7,25.6z"/>
			<path fill="#7DEDF9" d="M93.9,35.5l-8,0.5c-1.3,0-2.4-1.1-2.4-2.4v0c0-1.3,1.1-2.4,2.4-2.4l8,0.5c1.1,0,1.9,0.9,1.9,1.9v0
				C95.8,34.6,94.9,35.5,93.9,35.5z"/>
			<path fill="#7DEDF9" d="M170.9,15.6l-5.4,3.3c-0.9,0.5-2.1,0.1-2.6-0.8v0c-0.5-0.9-0.1-2.1,0.8-2.6l5.7-2.6
				c0.7-0.4,1.7-0.1,2.1,0.6v0C171.9,14.2,171.6,15.2,170.9,15.6z"/>
			<path fill="#7DEDF9" d="M175,25.9l-8,0.5c-1.3,0-2.4-1.1-2.4-2.4v0c0-1.3,1.1-2.4,2.4-2.4l8,0.5c1.1,0,1.9,0.9,1.9,1.9v0
				C176.9,25,176.1,25.9,175,25.9z"/>
			<g>
				<path fill="none" stroke="#AAA7A7" stroke-miterlimit="10" d="M191.1,96.1c0-4.3-3.5-7.9-7.9-7.9c-0.6,0-1.2,0.1-1.7,0.2l0,0
					l-71.2,15.8l0,0c-4.9,1.1-8.6,5.5-8.6,10.7c0,6.1,4.9,11,11,11c1.1,0,2.3-0.2,3.3-0.5l0,0l69.6-21.8l0,0
					C188.8,102.6,191.1,99.6,191.1,96.1z"/>
			</g>
			<path fill="#030033" d="M124.4,31.6c0,0-1-4.5,7.3-4s15.4-5.3,19.5-3.2s2.7,8,0.8,7.9s-7.2-1.2-11.4,2.5
				C136.5,38.3,124.4,31.6,124.4,31.6z"/>
			<path fill="#030033" d="M205.7,20.8c0,0-1-4.5,7.3-4c8.3,0.6,15.4-5.3,19.5-3.2c4.1,2,2.7,8,0.8,7.9c-1.9-0.2-7.2-1.2-11.4,2.5
				S205.7,20.8,205.7,20.8z"/>
		</g>
	</g>
</g>
<circle fill="#FFFFFF" cx="234.1" cy="96" r="1"/>
</svg>
