<?xml version="1.0" encoding="utf-8"?>
<!-- Generator: Adobe Illustrator 18.1.0, SVG Export Plug-In . SVG Version: 6.00 Build 0)  -->
<!DOCTYPE svg PUBLIC "-//W3C//DTD SVG 1.1//EN" "http://www.w3.org/Graphics/SVG/1.1/DTD/svg11.dtd">
<svg version="1.1" id="Layer_1" xmlns="http://www.w3.org/2000/svg" xmlns:xlink="http://www.w3.org/1999/xlink" x="0px" y="0px"
	 width="340px" height="150px" viewBox="0 0 340 150" enable-background="new 0 0 340 150" xml:space="preserve">
<g opacity="0.5">
	<g opacity="0.15">
		<path d="M89.9,91.8c-3.7-4.5-0.8-7.9-4.7-7.9S80,87.4,80,91.8c0,4.4,1.3,7.9,5.2,7.9S92.6,95.2,89.9,91.8z"/>
	</g>
	<g>
		<path fill="#F2F2F2" d="M89.9,88.8c-3.7-4.5-0.8-7.9-4.7-7.9S80,84.4,80,88.8c0,4.4,1.3,7.9,5.2,7.9S92.6,92.2,89.9,88.8z"/>
	</g>
</g>
<g id="XMLID_1_">
	<g opacity="0.15">
		<path d="M335.9,63.7c0,0.1,0,0.1,0,0.2c0,0,0,0,0,0c0,0.2-0.1,0.4-0.2,0.7c-2.5,5.5-6.5,7-15.8,6.2c-9.3-0.9-14.6-4.9-33.6,5.1
			c-14.7,7.7-35.3,19-44,23.8l-1.3-8.7h0c18.2-10,37.1-20.3,48.4-26.4c25-13.5,45.9-6.6,46.6-1.2C335.9,63.5,335.9,63.6,335.9,63.7z
			"/>
		<path d="M335.8,63.4c-0.7-5.5-21.6-12.3-46.6,1.2C278,70.6,259.1,81,240.8,91l-3.5-1.2c19.2-10.5,39.9-21.8,51.9-28.2
			C314.3,48.1,335.2,57.6,335.8,63.4z"/>
		<path d="M240.9,91l1.3,8.7c-2.6,1.5-4.2,2.3-4.2,2.3l-8.3-1.4l-38.9,21.7l-5.4-2.2c0.3-1.3,0.6-2.6,0.8-4l5,2
			C191.3,118.2,215.4,104.9,240.9,91L240.9,91z M195.7,118.7v-1.9l-4.6,2.6l-4.2-1.7l-0.2,1.7l4.3,1.8L195.7,118.7z"/>
		<path d="M237.3,89.8l3.5,1.2c-25.4,13.9-49.6,27.2-49.6,27.2l-5-2c0.2-1,0.3-2.1,0.5-3.2l5,1.7
			C191.7,114.7,213.4,102.9,237.3,89.8C237.3,89.8,237.3,89.8,237.3,89.8z"/>
		<polygon points="195.7,116.9 195.7,118.7 191,121.3 186.7,119.5 186.9,117.7 191.1,119.5 		"/>
		<path d="M187.1,106.6c0,2.2-0.1,4.4-0.4,6.5l-4.5,1.6c0.4-2.6,0.6-5.3,0.6-8.1c0-21-11.3-38.2-25.6-39.8c0.7-0.1,1.4-0.1,2.1-0.1
			C174.7,66.7,187.1,84.6,187.1,106.6z"/>
		<path d="M182.2,114.7l4.5-1.6c-0.1,1.1-0.3,2.2-0.5,3.2L182.2,114.7z"/>
		<path d="M182.2,114.7l4,1.6c-0.2,1.4-0.5,2.7-0.8,4l-3.9-1.6h0C181.8,117.3,182.1,116,182.2,114.7z"/>
		<path d="M181.5,118.6l3.9,1.6c-3.9,15.3-14.1,26.3-26.1,26.3c-0.7,0-1.4,0-2.1-0.1C168.7,145.1,178.2,133.8,181.5,118.6
			L181.5,118.6z"/>
		<path d="M182.8,106.6c0,2.8-0.2,5.5-0.6,8.1c-0.2,1.3-0.4,2.7-0.7,4c-3.3,15.2-12.9,26.5-24.3,27.7c-12.2-1.3-22.3-14.1-24.9-30.9
			c1,0.9,2.3,1.4,3.7,1.4c0.5,0,1-0.1,1.4-0.2c0.4,0.1,0.9,0.2,1.3,0.2c3.9,0,5.2-3.5,5.2-7.9c0-4.4-1.3-7.9-5.2-7.9
			c-0.5,0-1,0.1-1.3,0.2c-0.4-0.1-0.9-0.2-1.5-0.2c-3.7,0-1.2,3.2-4.3,7.4c0-0.6,0-1.2,0-1.8c0-21,11.3-38.2,25.6-39.8
			C171.5,68.4,182.8,85.6,182.8,106.6z"/>
		<path d="M162.8,11.7c0,0.4,0,0.8-0.2,1.2c-2.5,5.5-6.5,7-15.8,6.2c-9.3-0.9-14.6-4.9-33.6,5.1c-13.5,7.1-32.1,17.3-41.8,22.6
			c-1-1-2-1.9-3.1-2.8l-0.7-4.6c18.3-10,37.3-20.4,48.6-26.5C141.2-0.6,162.1,6.2,162.8,11.7z"/>
		<path d="M127.4,103.1c0.1-1.6,0.3-3.2,0.5-4.8c2.7-18.1,13.8-31.6,27.1-31.6c0.7,0,1.4,0,2.1,0.1c-14.3,1.6-25.6,18.8-25.6,39.8
			c0,0.6,0,1.2,0,1.8c-0.1,0.2-0.2,0.3-0.4,0.5c-0.3,0.4-0.6,0.9-0.7,1.3l-1.7-0.4c0,0-0.5-0.6-1.4-1.6c0-0.5,0-1.1,0-1.6
			C127.3,105.4,127.4,104.3,127.4,103.1z"/>
		<path d="M157.2,146.4c-0.7,0.1-1.4,0.1-2.1,0.1c-14.9,0-27.1-17-27.7-38.3c0.9,1,1.4,1.6,1.4,1.6l1.7,0.4
			c-0.7,1.9,0.2,3.9,1.8,5.2C134.9,132.3,145,145,157.2,146.4z"/>
		<path d="M162.8,11.7c-0.7-5.5-21.6-12.3-46.6,1.2C104.9,19,85.9,29.4,67.6,39.4l-3.5-1.2l0,0c19.7-10.7,40.5-22,52.2-28.3
			C141.3-3.6,162.2,5.9,162.8,11.7z"/>
		<path d="M138.7,101c3.9,0,5.2,3.6,5.2,7.9c0,4.4-1.3,7.9-5.2,7.9c-0.4,0-0.9-0.1-1.3-0.2c2.8-0.8,3.7-4,3.7-7.7
			c0-3.8-1-6.9-3.7-7.7C137.8,101.1,138.2,101,138.7,101z"/>
		<path d="M137.4,101.2c2.7,0.8,3.7,4,3.7,7.7c0,3.8-1,7-3.7,7.7c-3.3-0.9-5.8-4.8-3.4-7.7C137.2,105.1,135.5,102,137.4,101.2z"/>
		<path d="M137.4,101.2c-1.9,0.8-0.3,3.9-3.4,7.7c-2.5,3,0.1,6.9,3.4,7.7c-0.4,0.1-0.9,0.2-1.4,0.2c-1.3,0-2.6-0.5-3.7-1.4
			c-0.4-2.3-0.6-4.6-0.7-7c3.1-4.2,0.6-7.4,4.3-7.4C136.5,101,137,101.1,137.4,101.2z"/>
		<path d="M131.6,108.4c0.1,2.4,0.3,4.7,0.7,7c-1.6-1.3-2.5-3.3-1.8-5.2c0.2-0.4,0.4-0.9,0.7-1.3
			C131.4,108.8,131.5,108.6,131.6,108.4z"/>
		<path d="M127.9,98.3c-0.2,1.6-0.4,3.2-0.5,4.8c-3.6-3.7-15.3-15.5-24-18.8C96,81.6,87.7,82.2,83,83c0.1-0.8,0.1-1.7,0.1-2.5l0,0
			c5.5-0.5,13.5-1.3,22.3,1.7C113,84.8,123.3,92.4,127.9,98.3z"/>
		<path d="M127.4,103.1c-0.1,1.2-0.1,2.3-0.1,3.5c0,0.5,0,1.1,0,1.6c-4.2-4.6-16.7-17.9-25.2-21.3c-7.1-2.8-14.8-1.7-19.6-0.5
			c0.2-1.1,0.3-2.3,0.3-3.4c4.8-0.8,13-1.4,20.4,1.3C112.2,87.6,123.9,99.4,127.4,103.1z"/>
		<path d="M83.1,79.3c0,0.4,0,0.8,0,1.2l-4.1,3.3l0,0l-0.3,0c0.1-1.5,0.2-3,0.2-4.5c0-12.5-4-23.6-10.2-31l0.4-0.2l-0.5-3.6l3,2.2
			C78.5,54,83.1,65.9,83.1,79.3z"/>
		<path d="M78.9,83.8l4.1-3.3c0,0.8,0,1.7-0.1,2.5C80.6,83.4,79.1,83.8,78.9,83.8z"/>
		<path d="M83,83c-0.1,1.2-0.2,2.3-0.3,3.4c-2.7,0.7-4.5,1.4-4.5,1.4h0c0.2-1.3,0.4-2.7,0.5-4l0.3,0l0,0C79.1,83.8,80.6,83.4,83,83z
			"/>
		<path d="M78.8,79.3c0,1.5-0.1,3-0.2,4.5c-0.1,1.4-0.3,2.7-0.5,4c-2.6,17-12.6,29.9-25,31.2c-14.3-1.6-25.6-18.8-25.6-39.8
			c0-5.4,0.7-10.6,2.1-15.2h0l27-15.1l8.3,1.4c0,0,1.3-0.7,3.6-2C74.8,55.7,78.8,66.8,78.8,79.3z"/>
		<path d="M78.2,87.8c0,0,1.7-0.7,4.5-1.4c-2.3,18.6-13.7,32.8-27.3,32.8c-0.7,0-1.4,0-2.1-0.1C65.5,117.7,75.6,104.8,78.2,87.8
			L78.2,87.8z"/>
		<path d="M71.4,46.8l-3-2.2L68.3,44C69.4,44.9,70.4,45.8,71.4,46.8z"/>
		<path d="M68.4,44.6l0.5,3.6l-0.4,0.2c-2-2.4-4.3-4.3-6.7-5.8c-1-0.6-2-1.1-3-1.5c-1.8-0.8-3.7-1.3-5.7-1.5
			c0.7-0.1,1.4-0.1,2.1-0.1c1.8,0,3.5,0.2,5.2,0.7c1.2,0.3,2.3,0.7,3.4,1.3h0L68.4,44.6z"/>
		<path d="M68.3,44l0.1,0.6L64,41.4C65.5,42.1,66.9,43,68.3,44z"/>
		<path d="M67.6,39.4l0.7,4.6c-1.4-1-2.8-1.9-4.3-2.7C65.2,40.7,66.4,40.1,67.6,39.4z"/>
		<path d="M67.6,39.4c-1.2,0.7-2.4,1.3-3.6,2h0c-1.1-0.5-2.3-0.9-3.4-1.3c1.2-0.6,2.3-1.3,3.5-1.9l0,0L67.6,39.4z"/>
		<path d="M68.6,48.4c-2.3,1.2-3.6,2-3.6,2L56.7,49l-27,15.1c0.4-1.6,1-3.2,1.6-4.7c0.6-0.4,1.3-0.7,2-1.1l3.5-1.9
			c0.9-0.5,1.9-1.1,2.9-1.6l5.8-3.2c0.7-0.4,1.4-0.8,2.1-1.2l2.9-1.6c0.4-0.2,0.7-0.4,1.1-0.6l3.6-2l4.3-2.4l2.2-1.2
			C64.3,44,66.5,46,68.6,48.4z"/>
		<path d="M61.9,42.6l-2.2,1.2c-1.5,0.8-2.9,1.6-4.3,2.4l-3.6,2c-0.4,0.2-0.7,0.4-1.1,0.6l-2.9,1.6c-0.7,0.4-1.4,0.8-2.1,1.2
			l-5.8,3.2c-1,0.5-2,1.1-2.9,1.6l-3.5,1.9c-0.7,0.4-1.3,0.7-2,1.1c0.6-1.5,1.3-3,2-4.4h0l8.7-4.8c0,0,0.1,0,0.1-0.1l4.8-2.6
			l1.6-0.9l3.1-1.7c0.4-0.2,0.8-0.4,1.1-0.6l6-3.3C59.9,41.5,60.9,42,61.9,42.6z"/>
		<path d="M59.7,43.7l-4.3,2.4C56.8,45.3,58.2,44.5,59.7,43.7z"/>
		<path d="M58.9,41l-6,3.3c-0.4,0.2-0.8,0.4-1.1,0.6c-1,0.6-2.1,1.1-3.1,1.7L47,47.5c-1.6,0.9-3.2,1.8-4.8,2.6c0,0-0.1,0-0.1,0.1
			l-8.7,4.8c4.6-8.7,11.8-14.5,19.8-15.4C55.2,39.7,57.1,40.3,58.9,41z"/>
		<path d="M31.3,59.3c-0.6,1.5-1.2,3.1-1.6,4.7h0c-1.4,4.7-2.1,9.8-2.1,15.2c0,21,11.3,38.2,25.6,39.8c-0.7,0.1-1.4,0.1-2.1,0.1
			c-15.3,0-27.7-17.9-27.7-39.9c0-3.1,0.2-6.1,0.7-9l3.6-12.2c0,0,0,0,0,0c4.9-11.2,13.6-18.7,23.5-18.7c0.7,0,1.4,0,2.1,0.1
			c-8.1,0.9-15.2,6.7-19.8,15.4h0C32.6,56.3,31.9,57.8,31.3,59.3z"/>
		<path d="M51.7,44.9l-3.1,1.7C49.7,46.1,50.7,45.5,51.7,44.9z"/>
		<path d="M47,47.5l-4.8,2.6C43.8,49.3,45.4,48.4,47,47.5z"/>
		<path d="M27.6,58.1L24,70.3c0.1-0.5,0.2-1,0.3-1.5C25,65,26.1,61.4,27.6,58.1C27.6,58.1,27.6,58.1,27.6,58.1z"/>
		<path d="M27.6,58.1c-1.4,3.3-2.6,6.9-3.3,10.7h0l-9.6-3.7C14.7,65.1,19.7,62.4,27.6,58.1z"/>
		<path d="M24.3,68.8L24.3,68.8c-0.1,0.5-0.2,1-0.2,1.5l-0.7,2.5L14,69.1l0.7-3.9L24.3,68.8z"/>
	</g>
	<g>
		<g>
			<g>
				<path fill="#666666" d="M335.9,60.7c0,0.1,0,0.1,0,0.2c0,0,0,0,0,0c0,0.2-0.1,0.4-0.2,0.7c-2.5,5.5-6.5,7-15.8,6.2
					c-9.3-0.9-14.6-4.9-33.6,5.1c-14.7,7.7-35.3,19-44,23.8l-1.3-8.7h0c18.2-10,37.1-20.3,48.4-26.4c25-13.5,45.9-6.7,46.6-1.2
					C335.9,60.5,335.9,60.6,335.9,60.7z"/>
				<path fill="#999999" d="M335.8,60.4c-0.7-5.5-21.6-12.3-46.6,1.2C278,67.6,259.1,78,240.8,88l-3.5-1.2
					c19.2-10.5,39.9-21.8,51.9-28.2C314.3,45.1,335.2,54.6,335.8,60.4z"/>
				<path fill="#CCCCCC" d="M240.9,88l1.3,8.7c-2.6,1.5-4.2,2.3-4.2,2.3l-8.3-1.4l-38.9,21.7l-5.4-2.2c0.3-1.3,0.6-2.6,0.8-4l5,2
					C191.3,115.2,215.4,101.9,240.9,88L240.9,88z M195.7,115.7v-1.9l-4.6,2.6l-4.2-1.7l-0.2,1.7l4.3,1.8L195.7,115.7z"/>
				<path fill="#B3B3B3" d="M237.3,86.8l3.5,1.2c-25.4,13.9-49.6,27.2-49.6,27.2l-5-2c0.2-1,0.3-2.1,0.5-3.2l5,1.7
					C191.7,111.7,213.4,99.9,237.3,86.8C237.3,86.8,237.3,86.8,237.3,86.8z"/>
				<polygon fill="#FFFFFF" points="195.7,113.9 195.7,115.7 191,118.3 186.7,116.5 186.9,114.7 191.1,116.5 				"/>
				<path fill="#CCCCCC" d="M187.1,103.6c0,2.2-0.1,4.4-0.4,6.5l-4.5,1.6c0.4-2.6,0.6-5.3,0.6-8.1c0-21-11.3-38.2-25.6-39.8
					c0.7-0.1,1.4-0.1,2.1-0.1C174.7,63.7,187.1,81.6,187.1,103.6z"/>
				<path fill="#CCCCCC" d="M182.2,111.7l4.5-1.6c-0.1,1.1-0.3,2.2-0.5,3.2L182.2,111.7z"/>
				<path fill="#CCCCCC" d="M182.2,111.7l4,1.6c-0.2,1.4-0.5,2.7-0.8,4l-3.9-1.6h0C181.8,114.3,182.1,113,182.2,111.7z"/>
				<path fill="#E6E6E6" d="M181.5,115.6l3.9,1.6c-3.9,15.3-14.1,26.3-26.1,26.3c-0.7,0-1.4,0-2.1-0.1
					C168.7,142.1,178.2,130.8,181.5,115.6L181.5,115.6z"/>
				<path fill="#C5E1EA" d="M182.8,103.6c0,2.8-0.2,5.5-0.6,8.1c-0.2,1.3-0.4,2.7-0.7,4c-3.3,15.2-12.9,26.5-24.3,27.7
					c-12.2-1.3-22.3-14.1-24.9-30.9c1,0.9,2.3,1.4,3.7,1.4c0.5,0,1-0.1,1.4-0.2c0.4,0.1,0.9,0.2,1.3,0.2c3.9,0,5.2-3.5,5.2-7.9
					c0-4.4-1.3-7.9-5.2-7.9c-0.5,0-1,0.1-1.3,0.2c-0.4-0.1-0.9-0.2-1.5-0.2c-3.7,0-1.2,3.2-4.3,7.4c0-0.6,0-1.2,0-1.8
					c0-21,11.3-38.2,25.6-39.8C171.5,65.4,182.8,82.6,182.8,103.6z"/>
				<path fill="#666666" d="M162.8,8.7c0,0.4,0,0.8-0.2,1.2c-2.5,5.5-6.5,7-15.8,6.2c-9.3-0.9-14.6-4.9-33.6,5.1
					c-13.5,7.1-32.1,17.3-41.8,22.6c-1-1-2-1.9-3.1-2.8l-0.7-4.6c18.3-10,37.3-20.4,48.6-26.5C141.2-3.6,162.1,3.2,162.8,8.7z"/>
				<path fill="#D8EAEF" d="M127.4,100.1c0.1-1.6,0.3-3.2,0.5-4.8c2.7-18.1,13.8-31.6,27.1-31.6c0.7,0,1.4,0,2.1,0.1
					c-14.3,1.6-25.6,18.8-25.6,39.8c0,0.6,0,1.2,0,1.8c-0.1,0.2-0.2,0.3-0.4,0.5c-0.3,0.4-0.6,0.9-0.7,1.3l-1.7-0.4
					c0,0-0.5-0.6-1.4-1.6c0-0.5,0-1.1,0-1.6C127.3,102.4,127.4,101.3,127.4,100.1z"/>
				<path fill="#D8EAEF" d="M157.2,143.4c-0.7,0.1-1.4,0.1-2.1,0.1c-14.9,0-27.1-17-27.7-38.3c0.9,1,1.4,1.6,1.4,1.6l1.7,0.4
					c-0.7,1.9,0.2,3.9,1.8,5.2C134.9,129.3,145,142,157.2,143.4z"/>
				<path fill="#999999" d="M162.8,8.7c-0.7-5.5-21.6-12.3-46.6,1.2C104.9,16,85.9,26.4,67.6,36.4l-3.5-1.2l0,0
					c19.7-10.7,40.5-22,52.2-28.3C141.3-6.6,162.2,2.9,162.8,8.7z"/>
				<path fill="#BDCED1" d="M138.7,98c3.9,0,5.2,3.6,5.2,7.9c0,4.4-1.3,7.9-5.2,7.9c-0.4,0-0.9-0.1-1.3-0.2c2.8-0.8,3.7-4,3.7-7.7
					c0-3.8-1-6.9-3.7-7.7C137.8,98.1,138.2,98,138.7,98z"/>
				<path fill="#D8EAEF" d="M137.4,98.2c2.7,0.8,3.7,4,3.7,7.7c0,3.8-1,7-3.7,7.7c-3.3-0.9-5.8-4.8-3.4-7.7
					C137.2,102.1,135.5,99,137.4,98.2z"/>
				<path fill="#C5E1EA" d="M137.4,98.2c-1.9,0.8-0.3,3.9-3.4,7.7c-2.5,3,0.1,6.9,3.4,7.7c-0.4,0.1-0.9,0.2-1.4,0.2
					c-1.3,0-2.6-0.5-3.7-1.4c-0.4-2.3-0.6-4.6-0.7-7c3.1-4.2,0.6-7.4,4.3-7.4C136.5,98,137,98.1,137.4,98.2z"/>
				<path fill="#BDCED1" d="M131.6,105.4c0.1,2.4,0.3,4.7,0.7,7c-1.6-1.3-2.5-3.3-1.8-5.2c0.2-0.4,0.4-0.9,0.7-1.3
					C131.4,105.8,131.5,105.6,131.6,105.4z"/>
				<path fill="#999999" d="M127.9,95.3c-0.2,1.6-0.4,3.2-0.5,4.8c-3.6-3.7-15.3-15.5-24-18.8C96,78.6,87.7,79.2,83,80
					c0.1-0.8,0.1-1.7,0.1-2.5l0,0c5.5-0.5,13.5-1.3,22.3,1.7C113,81.8,123.3,89.4,127.9,95.3z"/>
				<path fill="#B3B3B3" d="M127.4,100.1c-0.1,1.2-0.1,2.3-0.1,3.5c0,0.5,0,1.1,0,1.6c-4.2-4.6-16.7-17.9-25.2-21.3
					c-7.1-2.8-14.8-1.7-19.6-0.5c0.2-1.1,0.3-2.3,0.3-3.4c4.8-0.8,13-1.4,20.4,1.3C112.2,84.6,123.9,96.4,127.4,100.1z"/>
				<path fill="#CCCCCC" d="M83.1,76.3c0,0.4,0,0.8,0,1.2l-4.1,3.3l0,0l-0.3,0c0.1-1.5,0.2-3,0.2-4.5c0-12.5-4-23.6-10.2-31l0.4-0.2
					l-0.5-3.6l3,2.2C78.5,51,83.1,62.9,83.1,76.3z"/>
				<path fill="#999999" d="M78.9,80.8l4.1-3.3c0,0.8,0,1.7-0.1,2.5C80.6,80.4,79.1,80.8,78.9,80.8z"/>
				<path fill="#B3B3B3" d="M83,80c-0.1,1.2-0.2,2.3-0.3,3.4c-2.7,0.7-4.5,1.4-4.5,1.4h0c0.2-1.3,0.4-2.7,0.5-4l0.3,0l0,0
					C79.1,80.8,80.6,80.4,83,80z"/>
				<path fill="#C5E1EA" d="M78.8,76.3c0,1.5-0.1,3-0.2,4.5c-0.1,1.4-0.3,2.7-0.5,4c-2.6,17-12.6,29.9-25,31.2
					c-14.3-1.6-25.6-18.8-25.6-39.8c0-5.4,0.7-10.6,2.1-15.3h0l27-15.1l8.3,1.4c0,0,1.3-0.7,3.6-2C74.8,52.7,78.8,63.8,78.8,76.3z"
					/>
				<path fill="#E6E6E6" d="M78.2,84.8c0,0,1.7-0.7,4.5-1.4c-2.3,18.6-13.7,32.8-27.3,32.8c-0.7,0-1.4,0-2.1-0.1
					C65.5,114.7,75.6,101.8,78.2,84.8L78.2,84.8z"/>
				<path fill="#FFFFFF" d="M71.4,43.8l-3-2.2L68.3,41C69.4,41.9,70.4,42.8,71.4,43.8z"/>
				<path fill="#CCCCCC" d="M68.4,41.6l0.5,3.6l-0.4,0.2c-2-2.4-4.3-4.3-6.7-5.8c-1-0.6-2-1.1-3-1.5c-1.8-0.8-3.7-1.3-5.7-1.5
					c0.7-0.1,1.4-0.1,2.1-0.1c1.8,0,3.5,0.2,5.2,0.7c1.2,0.3,2.3,0.7,3.4,1.3h0L68.4,41.6z"/>
				<path fill="#FFFFFF" d="M68.3,41l0.1,0.6L64,38.4C65.5,39.1,66.9,40,68.3,41z"/>
				<path fill="#CCCCCC" d="M67.6,36.4l0.7,4.6c-1.4-1-2.8-1.9-4.3-2.7C65.2,37.7,66.4,37.1,67.6,36.4z"/>
				<path fill="#B3B3B3" d="M67.6,36.4c-1.2,0.7-2.4,1.3-3.6,2h0c-1.1-0.5-2.3-0.9-3.4-1.3c1.2-0.6,2.3-1.3,3.5-1.9l0,0L67.6,36.4z"
					/>
				<path fill="#AEC6CC" d="M68.6,45.4c-2.3,1.2-3.6,2-3.6,2L56.7,46l-27,15.1c0.4-1.6,1-3.2,1.6-4.7c0.6-0.4,1.3-0.7,2-1.1l3.5-1.9
					c0.9-0.5,1.9-1.1,2.9-1.6l5.8-3.2c0.7-0.4,1.4-0.8,2.1-1.2l2.9-1.6c0.4-0.2,0.7-0.4,1.1-0.6l3.6-2l4.3-2.4l2.2-1.2
					C64.3,41,66.5,43,68.6,45.4z"/>
				<path fill="#999999" d="M61.9,39.6l-2.2,1.2c-1.5,0.8-2.9,1.6-4.3,2.4l-3.6,2c-0.4,0.2-0.7,0.4-1.1,0.6l-2.9,1.6
					c-0.7,0.4-1.4,0.8-2.1,1.2l-5.8,3.2c-1,0.5-2,1.1-2.9,1.6l-3.5,1.9c-0.7,0.4-1.3,0.7-2,1.1c0.6-1.5,1.3-3,2-4.4h0l8.7-4.8
					c0,0,0.1,0,0.1-0.1l4.8-2.6l1.6-0.9l3.1-1.7c0.4-0.2,0.8-0.4,1.1-0.6l6-3.3C59.9,38.5,60.9,39,61.9,39.6z"/>
				<path fill="#FFFFFF" d="M59.7,40.7l-4.3,2.4C56.8,42.3,58.2,41.5,59.7,40.7z"/>
				<path fill="#C5E1EA" d="M58.9,38l-6,3.3c-0.4,0.2-0.8,0.4-1.1,0.6c-1,0.6-2.1,1.1-3.1,1.7L47,44.5c-1.6,0.9-3.2,1.8-4.8,2.6
					c0,0-0.1,0-0.1,0.1l-8.7,4.8c4.6-8.7,11.8-14.5,19.8-15.4C55.2,36.7,57.1,37.3,58.9,38z"/>
				<path fill="#D8EAEF" d="M31.3,56.3c-0.6,1.5-1.2,3.1-1.6,4.7h0c-1.4,4.7-2.1,9.9-2.1,15.3c0,21,11.3,38.2,25.6,39.8
					c-0.7,0.1-1.4,0.1-2.1,0.1c-15.3,0-27.7-17.9-27.7-39.9c0-3.1,0.2-6.1,0.7-9l3.6-12.2c0,0,0,0,0,0c4.9-11.2,13.6-18.7,23.5-18.7
					c0.7,0,1.4,0,2.1,0.1c-8.1,0.9-15.2,6.7-19.8,15.4h0C32.6,53.3,31.9,54.8,31.3,56.3z"/>
				<path fill="#FFFFFF" d="M51.7,41.9l-3.1,1.7C49.7,43.1,50.7,42.5,51.7,41.9z"/>
				<path fill="#FFFFFF" d="M47,44.5l-4.8,2.6C43.8,46.3,45.4,45.4,47,44.5z"/>
				<path fill="#D8EAEF" d="M27.6,55.1L24,67.3c0.1-0.5,0.2-1,0.3-1.5C25,62,26.1,58.4,27.6,55.1C27.6,55.1,27.6,55.1,27.6,55.1z"/>
				<path fill="#B3B3B3" d="M27.6,55.1c-1.4,3.3-2.6,6.9-3.3,10.7h0l-9.6-3.7C14.7,62.1,19.7,59.4,27.6,55.1z"/>
				<path fill="#CCCCCC" d="M24.3,65.8L24.3,65.8c-0.1,0.5-0.2,1-0.2,1.5l-0.7,2.5L14,66.1l0.7-3.9L24.3,65.8z"/>
			</g>
		</g>
	</g>
</g>
</svg>
