<?xml version="1.0" encoding="utf-8"?>
<!-- Generator: Adobe Illustrator 18.1.0, SVG Export Plug-In . SVG Version: 6.00 Build 0)  -->
<!DOCTYPE svg PUBLIC "-//W3C//DTD SVG 1.1//EN" "http://www.w3.org/Graphics/SVG/1.1/DTD/svg11.dtd">
<svg version="1.1" id="Layer_1" xmlns="http://www.w3.org/2000/svg" xmlns:xlink="http://www.w3.org/1999/xlink" x="0px" y="0px"
	 width="405px" height="116px" viewBox="0 0 405 116" enable-background="new 0 0 405 116" xml:space="preserve">
<rect y="57.9" fill="#D7F6FF" width="405" height="7.8"/>
<polygon fill="#ABE7FF" points="0,15 349,15 405,57.9 0,57.9 "/>
<path opacity="0.1" d="M353.3,36.9c-0.2-0.3-1.1-1.5-5.3-1.5c-0.5,0-1.1,0-1.7,0.1l-0.7,0c-0.2,0-0.5,0-0.7,0
	c-0.7-0.4-1.9-0.7-3.6-0.7c-0.2,0-0.5,0-0.8,0c-1.6,0.1-10.8,0.7-12.8,1.3c-1.4,0.4-12.1,2.4-16.7,2.6c-0.4,0-0.7,0.1-1,0.1
	c-4,0.8-15.7,0.9-25.2,1.1c-5.7,0.1-11,0.2-15,0.3c-5,0.2-8,0.4-9.9,0.5c-1.1,0.1-1.9,0.1-2.3,0.1c-1.8-0.3-3.9-0.6-6.3-1
	c-0.2,0-0.3-0.1-0.5-0.1c-6.9-1.1-16.1-2.3-24.6-3.4c6.1-0.5,11.6-1.3,15.6-2.4c2.5-0.7,4.6-1.4,6.3-2.2c1.2,0,2.5,0,3.8,0
	c5,0,10.2,0.1,15.6,0.1c7.4,0,13.5-0.1,18.7-0.3c2.8,0.1,5.9,0.2,8.8,0.3c4,0.1,7.8,0.3,9.7,0.4c1.6,0.1,6.4,0.5,7.5,0.6
	c0.5,0,1,0,1.4,0c3.9,0,5.5-0.9,5.6-1.8c0.3,0,0.6,0,0.8,0.1c0.4,0,0.7,0,1,0c2.7,0,4.1-0.8,4.4-1.5c0.9,0,1.7,0,2.4-0.1
	c3.3-0.3,4.3-1.2,4.3-1.9c-0.1-0.5-0.7-1.7-5.6-1.8l-0.4,0c-0.5-0.4-1.5-0.9-3.7-1c-1.9-0.1-5.8-0.2-8.5-0.2c-3.9,0-4.8,0.1-5.2,0.2
	c-1.5,0.2-15.2,1.2-20.6,1.2l-0.4,0c-0.3,0-0.6,0-0.9,0c-2.1,0.2-5.9,0.3-11.1,0.3c-6.6,0-14.7-0.2-22.2-0.4
	c0.2-0.2,0.3-0.3,0.4-0.5c0.4-0.7-0.1-1.5-1.1-2.1c-3.8-2.2-26.6-3.1-29.9-3.2c-5.8-0.1-9.1-0.7-12-1.2c-1.5-0.3-3-0.5-4.6-0.7
	c-4.2-0.4-8-0.5-8.2-0.5c-1.8,0-3.3,0.5-3.6,1.3c-0.1,0.2-0.1,0.3,0,0.5c-2.3,0-4.1,0.1-5.7,0.2c-1.2,0.1-2.2,0.1-3.3,0.1l-0.2,0
	c-2.6,0-6-0.4-7.1-0.6c-1-0.1-2.1-0.1-2.9,0.2c-0.9,0.2-1.5,0.6-1.6,1.1c-0.2,0.5,0.1,0.9,0.6,1.3c-3.5,0-7,0.1-7.2,0.1
	c-1.8,0-3.3,0.7-3.4,1.5c0,0.5,0.4,0.9,1.1,1.2c-2.8,0.3-4.7,0.6-4.9,0.6c-1.6,0.3-2.6,1-2.2,1.7c0.3,0.7,1.8,1.2,3.5,1.2
	c0,0,0.1,0,0.1,0c0,0,0.5,0,1.2,0c2.5,0,8.9,0,14.2,0.5c1,0.1,2.1,0.2,3.1,0.3c-7,0.6-14.5,1.3-20.2,2.1
	c-13.5,0.9-24.8,2.1-34.5,3.7C93.6,40.2,76,48.5,70.1,52.8c-0.9,0.2-1.6,0.5-1.9,0.9c-0.1,0.1-1.6,2.3-2,4.2v7.8
	c1.2,1.6,4.7,3.5,12.1,4.7c8.1,1.3,20.5,1.8,31.2,1.1c0.2,0,0.3,0,0.5,0c14.9-1.8,31.9-2.8,49.2-2.8c12.6,0,24.8,0.5,36.5,1.5
	c6.9,4.8,24.9,6.8,42.4,8.7c12.8,1.4,26,2.9,32.9,5.3c2.2,0.9,5.6,1.6,9.3,1.8c1,0.1,2,0.1,3,0.1c4.6,0,8.7-0.5,11.1-1.5
	c3.2-0.7,9.7-1,14.6-1.2c2.9-0.1,5.3-0.2,7.1-0.4c2-0.2,3.3-0.5,4.2-0.7c0.2-0.1,0.5-0.1,0.6-0.1c1.8-0.2,3.9-0.4,5.2-1.3
	c0.7-0.5,0.8-1.2,0.1-1.7c-1.1-0.9-3.6-1.3-6.7-1.1c-1.4-0.3-3.3-0.4-5.2-0.2c-1.4-0.2-3.2-0.2-5,0.1c-1.3-0.1-2.7,0-3.9,0.2
	c-0.6,0.1-2.9,0.1-4.2,0.1c-1.2,0-2.4,0-3.3,0.1c-3.3,0-6.2,0-8.9,0c-1.5,0-2.9,0-4.3,0h-0.3c-28.4-2.6-64.2-8.3-78.4-12.6l-0.1-7.8
	c-0.2,0-0.4,0-0.6,0c-6.2-0.3-13-0.7-20.3-1.2c-4.3-0.3-8.8-0.5-13.3-0.8c12.2-0.3,24.9-0.1,36.8,0.6c0.1,0,0.2,0,0.2,0
	c0.5,0,1,0.1,1.6,0.1c1.1,0,2.2,0,3.4,0c2.7,0.5,5.4,0.9,8.1,1.3h87.9c0.8-0.3,3.7-1.1,6.1-1.6c1.1-0.1,4.7-0.6,7.3-1.1
	c1.8-0.4,2.6-0.7,3.2-1c2-0.3,3.3-0.8,3.8-1.6c0.4-0.7-0.1-1.4-1.3-1.9c-1.2-0.5-3.2-0.8-5.4-0.8c-0.8,0-1.6,0-2.4,0.1
	c-0.2,0-0.3,0-0.5,0.1c-1-0.1-1.7-0.1-2.3-0.1c-1,0-2,0.1-2.8,0.3c-0.4,0-0.7,0-1.1,0c-0.8,0.1-1.7,0.2-2.4,0.4c-0.2,0-0.3,0-0.5,0
	c-1.8,0-3.1,0.5-4.2,0.8c-0.2,0.1-0.6,0.2-0.8,0.2c-0.2,0-0.3,0-0.4,0.1c-3.4,0.3-6.4,0.5-9.1,0.5c-0.1,0-0.1,0-0.2,0
	c-0.3,0-0.5,0-0.8,0c0,0-0.1,0-0.1,0c-7.9,0.3-14.9,0.5-21.4,0.5c-18.6,0-31.7-1.3-51.4-3.2l-4.6-0.4c-1.4-0.2-3-0.3-4.6-0.3
	c-5.3-0.1-11.1-0.3-17.3-0.5c-12.4-0.4-26.1-0.8-39.7-1.1c8.4-1.5,18.6-3,29.9-3.9c1.1-0.1,2.1-0.2,3.2-0.3c0.7,0,1.5-0.1,2.3-0.1
	c3.4,0,7.3,0.3,11.4,0.6c1.3,0.1,2.6,0.2,3.9,0.3c3.1,0.2,6.5,0.4,9.9,0.6c8,0.5,16.3,1,22.8,1.5c1.6,0.1,3.6,0.3,5.6,0.5
	c4.3,0.4,8.7,0.8,12.3,0.9c4.7,0.1,11.3-0.4,16-0.7l1.7-0.1c8.8-0.6,20.7-1.3,29.4-1.8c3.3-0.2,6.2-0.4,8.5-0.5l4.7,0.1
	c4.9,0.1,9.2,0.2,12.1,0.3c1.6,0.1,5.7-0.1,7.7-0.2l0.8,0c5.5-0.2,5.7-1.8,5.6-2.1c0-0.2-0.1-0.3-0.2-0.4c0.7,0,1.2,0,1.8,0
	c3.6,0,4.6-1,4.7-1.7c0-0.4-0.3-0.9-1-1.2c0.4-0.1,0.8-0.1,1.1-0.2C353.2,38.5,353.6,37.6,353.3,36.9z"/>
</svg>
