<?xml version="1.0" encoding="utf-8"?>
<!-- Generator: Adobe Illustrator 18.1.0, SVG Export Plug-In . SVG Version: 6.00 Build 0)  -->
<!DOCTYPE svg PUBLIC "-//W3C//DTD SVG 1.1//EN" "http://www.w3.org/Graphics/SVG/1.1/DTD/svg11.dtd">
<svg version="1.1" id="Layer_1" xmlns="http://www.w3.org/2000/svg" xmlns:xlink="http://www.w3.org/1999/xlink" x="0px" y="0px"
	 width="259.4px" height="219.7px" viewBox="-72.6 11 259.4 219.7" enable-background="new -72.6 11 259.4 219.7"
	 xml:space="preserve">
<g>
	<g opacity="0.15">
		<path d="M186,119.2h-24.3C140,100.4,101,87.9,56.5,87.9S-27,100.4-48.8,119.2H-73l6.3,39.3c0.1,0.4,0.1,0.9,0.2,1.3l0.1,0.4l0,0
			c6.2,33.2,58.9,59.2,123,59.2c63.9,0,116.5-25.8,123-58.9L186,119.2z"/>
		<ellipse cx="56.5" cy="114.7" rx="129.8" ry="69.1"/>
		<path d="M51.9,168.9c4.5-25.6-13.3-10.9-22.3-30.7S-5,115.4-11.1,96.1c-8.5-26.8-20.5-25.6-20.5-25.6S-6.9,131,6.9,131.6
			S24,140.3,28.7,148s9.7,2.8,14.5,7.3S51.9,168.9,51.9,168.9z"/>
		<path d="M128,166.6c-2.4-18.9-39-50.9-30.9-71.9S89.5,78.4,88.4,63c-1.2-15.3,6.3-20.9,6.3-20.9s-6.6,18.7,2.4,28.4
			s5.4,18.1,3.1,27.1c-2.3,9,27.6,40.8,29.1,49.2C130.7,155.2,128,166.6,128,166.6z"/>
		<path d="M160,126.2c4.5-6.8,10.6-13.3,0.8-20.3c-9.8-7,2-21.3,2-21.3S152.2,89,151,100.5c-1.2,11.5,19.5,7.5,5.5,23.6
			c-14,16,2.3,14.4-1,25.6c0,0,6.8-7.3,7.8-12.3C164.3,132.5,155.5,133,160,126.2z"/>
		<path d="M57.7,86.2c-5.1,6.4-11.8,12.2-2.7,20.1c9.1,7.9-4,21-4,21s10.9-3.4,13.2-14.7c2.3-11.3-18.7-9.3-3.3-24
			c15.5-14.6-0.9-14.5,3.4-25.4c0,0-7.5,6.7-8.9,11.5C54,79.5,62.9,79.8,57.7,86.2z"/>
		<path d="M-35.6,133c-14.9-11.2,0.5-12.7-4.2-23c-4.7-10.2-13.4-11.7-13.4-11.7s12.8,10.2,8.5,19s2,13.2,7.4,18.4
			s-0.8,6.9,1.5,11.2c2.4,4.3,9.4,9.3,9.4,9.3C-32.3,146.7-20.7,144.2-35.6,133z"/>
	</g>
	<g>
		<g>
			<path fill="#B26112" d="M186,116.2h-24.3C140,97.4,101,84.9,56.5,84.9S-27,97.4-48.8,116.2H-73l6.3,39.3c0.1,0.4,0.1,0.9,0.2,1.3
				l0.1,0.4l0,0c6.2,33.2,58.9,59.2,123,59.2c63.9,0,116.5-25.8,123-58.9L186,116.2z"/>
			<ellipse fill="#C7752E" cx="56.5" cy="111.7" rx="129.8" ry="69.1"/>
			<path fill="#D17F42" d="M51.9,165.9c4.5-25.6-13.3-10.9-22.3-30.7S-5,112.4-11.1,93.1c-8.5-26.8-20.5-25.6-20.5-25.6
				S-6.9,128,6.9,128.6c13.8,0.6,17.1,8.8,21.8,16.5s9.7,2.8,14.5,7.3S51.9,165.9,51.9,165.9z"/>
			<path fill="#D17F42" d="M128,163.6c-2.4-18.9-39-50.9-30.9-71.9S89.5,75.4,88.4,60c-1.2-15.3,6.3-20.9,6.3-20.9
				s-6.6,18.7,2.4,28.4s5.4,18.1,3.1,27.1c-2.3,9,27.6,40.8,29.1,49.2C130.7,152.2,128,163.6,128,163.6z"/>
			<path fill="#D17F42" d="M160,123.2c4.5-6.8,10.6-13.3,0.8-20.3c-9.8-7,2-21.3,2-21.3S152.2,86,151,97.5
				c-1.2,11.5,19.5,7.5,5.5,23.6c-14,16,2.3,14.4-1,25.6c0,0,6.8-7.3,7.8-12.3C164.3,129.5,155.5,130,160,123.2z"/>
			<path fill="#D17F42" d="M57.7,83.2c-5.1,6.4-11.8,12.2-2.7,20.1c9.1,7.9-4,21-4,21s10.9-3.4,13.2-14.7c2.3-11.3-18.7-9.3-3.3-24
				c15.5-14.6-0.9-14.5,3.4-25.4c0,0-7.5,6.7-8.9,11.5C54,76.5,62.9,76.8,57.7,83.2z"/>
			<path fill="#D17F42" d="M-35.6,130c-14.9-11.2,0.5-12.7-4.2-23c-4.7-10.2-13.4-11.7-13.4-11.7s12.8,10.2,8.5,19s2,13.2,7.4,18.4
				s-0.8,6.9,1.5,11.2c2.4,4.3,9.4,9.3,9.4,9.3C-32.3,143.7-20.7,141.2-35.6,130z"/>
		</g>
	</g>
</g>
<g>
	<g opacity="0.15">
		
			<ellipse transform="matrix(-0.2213 -0.9752 0.9752 -0.2213 -68.927 116.3884)" fill="#231F20" cx="12" cy="85.7" rx="14.9" ry="26.2"/>
		
			<ellipse transform="matrix(-0.2213 -0.9752 0.9752 -0.2213 -67.5602 112.6879)" fill="#231F20" cx="11.2" cy="83.3" rx="14.9" ry="26.2"/>
	</g>
	<g>
		<g>
			
				<ellipse transform="matrix(-0.2213 -0.9752 0.9752 -0.2213 -67.1984 114.2237)" fill="#F15A38" cx="12" cy="83.9" rx="14.9" ry="26.2"/>
			
				<ellipse transform="matrix(-0.2213 -0.9752 0.9752 -0.2213 -65.8317 110.5232)" fill="#F79375" cx="11.2" cy="81.5" rx="14.9" ry="26.2"/>
		</g>
	</g>
</g>
<path opacity="0.5" fill="#E27961" enable-background="new    " d="M26.4,91.5c0,0-17.2,1-21.3-9.9C1.2,70.9-8.1,74.5-8.1,74.5
	l-8,8.5l26.4,13.8c0,0,5.4-0.2,10.8-2.7C26.4,91.5,26.4,91.5,26.4,91.5z"/>
<g>
	<g opacity="0.15">
		
			<ellipse transform="matrix(0.232 -0.9727 0.9727 0.232 -108.2216 63.394)" fill="#231F20" cx="-14" cy="100.2" rx="14.9" ry="26.2"/>
		
			<ellipse transform="matrix(0.232 -0.9727 0.9727 0.232 -105.446 61.7801)" fill="#231F20" cx="-13.6" cy="97.7" rx="14.9" ry="26.2"/>
	</g>
	<g>
		<g>
			
				<ellipse transform="matrix(0.232 -0.9727 0.9727 0.232 -106.4976 62.0328)" fill="#F15A38" cx="-14" cy="98.5" rx="14.9" ry="26.2"/>
			
				<ellipse transform="matrix(0.232 -0.9727 0.9727 0.232 -103.7219 60.4188)" fill="#F79375" cx="-13.6" cy="95.9" rx="14.9" ry="26.2"/>
		</g>
	</g>
</g>
<g>
	<g opacity="0.15">
		
			<ellipse transform="matrix(-0.1504 -0.9886 0.9886 -0.1504 -96.0456 214.187)" fill="#231F20" cx="44" cy="148.4" rx="24.5" ry="21.5"/>
		<path fill="#231F20" d="M43.2,119.9c7.7-1.5,15.7-2.7,23.2-4.8c13.2-3.6,26.6-9.1,37.1-17.9c4.8-3.9,10.4-9,10.9-14.4
			c0.5-5.6-0.7-8.2-2.2-10.8c-2-3.4-4.6-6.3-7.4-9.1c-2.7-2.7-5.4-5.1-8.4-7.4c-1.6-1.2-3.6-2.9-5.3-3.8c-8.5-4.4-11.4-16-6.2-24.1
			c3.1-5,8.8-7.9,14.5-7.8c6.6,0.1,12.4,4.3,17.8,7.6c11.3,7,21.9,15.9,29.2,27c3.7,5.7,6.6,12.1,8,18.7c1.3,6.4,1.2,12.9,0,19.3
			c-2.7,14.1-10.6,26.8-20.6,36.9c-9.9,10.2-21.9,18.3-34.6,24.7c-11.9,6.1-24.5,10.9-37.2,14.4c-5.7,1.5-11.3,3.5-17.3,3.3
			c-4.4-0.1-9-1.3-12.7-3.7c-8.7-5.7-12-17.1-11-27c0.4-4.3,1.9-8.6,4.7-12c2.7-3.4,6.5-5.8,10.5-7.3
			C38.6,121,40.9,120.4,43.2,119.9z"/>
		<path fill="#231F20" d="M65.4,142.8c2,13.4-5.8,25.6-17.6,27.4s-23-7.5-25-20.9c-2-13.4,4-23,16-26.5
			C50.2,119.5,63.3,129.5,65.4,142.8z"/>
		<path fill="#231F20" d="M111.7,89.3c8.2-7.4,9.7-22.1,1.8-33.9s-21.3-6.5-26.8-12.5c-4.9-5.3-3.1-12.7-3.1-12.7s-6.3,12.3,2,20.4
			c8.5,8.2,20.8,13.8,26.5,24.5C116.9,84,111.7,89.3,111.7,89.3z"/>
		<path fill="#231F20" d="M65.7,136.9c0,0,2.7,9.8,1.6,14.5c-1.2,4.7-2.3,10.1-5.8,14.2c-3.5,4.1-7.5,4.8-7.5,4.8
			s22.1-4.7,38.5-12.9c18.6-9.2,25.4-14.5,25.4-14.5s-6.5-8.3-23.1-11S65.7,136.9,65.7,136.9z"/>
		<path opacity="0.5" fill="#231F20" enable-background="new    " d="M63.5,137.7c0,0-2.3,9.4-11.3,15.6s-27.7,2.3-27.7,2.3
			S37,178,53.8,168.2C71.8,157.8,63.5,137.7,63.5,137.7z"/>
	</g>
	<g>
		<g>
			<g>
				<g opacity="0.15">
					
						<ellipse transform="matrix(-0.1504 -0.9886 0.9886 -0.1504 -94.2934 212.1479)" fill="#231F20" cx="44" cy="146.6" rx="24.5" ry="21.5"/>
				</g>
				<g>
					<g>
						<path fill="#F15A38" d="M43.2,118.1c7.7-1.5,15.7-2.7,23.2-4.8c13.2-3.6,26.6-9.1,37.1-17.9c4.8-3.9,10.4-9,10.9-14.4
							c0.5-5.6-0.7-8.2-2.2-10.8c-2-3.4-4.6-6.3-7.4-9.1c-2.7-2.7-5.4-5.1-8.4-7.4c-1.6-1.2-3.6-2.9-5.3-3.8
							c-8.5-4.4-11.4-16-6.2-24.1c3.1-5,8.8-7.9,14.5-7.8c6.6,0.1,12.4,4.3,17.8,7.6c11.3,7,21.9,15.9,29.2,27
							c3.7,5.7,6.6,12.1,8,18.7c1.3,6.4,1.2,12.9,0,19.3c-2.7,14.1-10.6,26.8-20.6,36.9c-9.9,10.2-21.9,18.3-34.6,24.7
							c-11.9,6.1-24.5,10.9-37.2,14.4c-5.7,1.5-11.3,3.5-17.3,3.3c-4.4-0.1-9-1.3-12.7-3.7c-8.7-5.7-12-17.1-11-27
							c0.4-4.3,1.9-8.6,4.7-12c2.7-3.4,6.5-5.8,10.5-7.3C38.6,119.2,40.9,118.6,43.2,118.1z"/>
					</g>
					<path fill="#F79375" d="M65.4,141c2,13.4-5.8,25.6-17.6,27.4s-23-7.5-25-20.9s4-23,16-26.5C50.2,117.7,63.3,127.7,65.4,141z"/>
				</g>
			</g>
			<path fill="#D14730" d="M111.7,87.6c8.2-7.4,9.7-22.1,1.8-33.9s-21.3-6.5-26.8-12.5c-4.9-5.3-3.1-12.7-3.1-12.7s-6.3,12.3,2,20.4
				c8.5,8.2,20.8,13.8,26.5,24.5C116.9,82.3,111.7,87.6,111.7,87.6z"/>
			<path fill="#D14730" d="M65.7,135.2c0,0,2.7,9.8,1.6,14.5c-1.2,4.7-2.3,10.1-5.8,14.2c-3.5,4.1-7.5,4.8-7.5,4.8
				S76,164,92.4,155.8c18.6-9.2,25.4-14.5,25.4-14.5s-6.5-8.3-23.1-11C78,127.6,65.7,135.2,65.7,135.2z"/>
			<path opacity="0.5" fill="#E27961" enable-background="new    " d="M63.5,136c0,0-2.3,9.4-11.3,15.6s-27.7,2.3-27.7,2.3
				s12.6,22.3,29.4,12.6C71.8,156,63.5,136,63.5,136z"/>
		</g>
	</g>
</g>
</svg>
