<?xml version="1.0" encoding="utf-8"?>
<!-- Generator: Adobe Illustrator 18.1.0, SVG Export Plug-In . SVG Version: 6.00 Build 0)  -->
<!DOCTYPE svg PUBLIC "-//W3C//DTD SVG 1.1//EN" "http://www.w3.org/Graphics/SVG/1.1/DTD/svg11.dtd">
<svg version="1.1" id="Layer_1" xmlns="http://www.w3.org/2000/svg" xmlns:xlink="http://www.w3.org/1999/xlink" x="0px" y="0px"
	 width="344px" height="219.6px" viewBox="-91.4 -39.5 344 219.6" enable-background="new -91.4 -39.5 344 219.6"
	 xml:space="preserve">
<circle opacity="0.1" fill="#E0B8D0" cx="210.4" cy="70" r="42.2"/>
<path opacity="0.1" enable-background="new    " d="M21.4,117.9c20-18,16.6-40,16.6-40S30,97.1,15.1,110.6
	c-15.9,14.4-33.6,20.7-33.6,20.7S3.5,134,21.4,117.9z"/>
<path opacity="0.1" enable-background="new    " d="M158.5,107.3c-8.9-13.2-5-30.8-5-30.8s5,16,11,26.1
	c6.2,10.5,16.1,22.8,16.1,22.8S169,122.8,158.5,107.3z"/>
<path opacity="0.1" enable-background="new    " d="M60.4,24.7c0,0,3.2-1.7,6.2-1.8c10.3-0.2,20.4,3.1,30,6.4c9.5,3.2,19,7.2,28.9,9
	c0.2,0,0.3,0,0.5,0.1c3.3,0.4,6.6-1,8.6-3.4c1-1.2,1.7-2.6,2.1-4.1c0.3-1.5,0.3-3.1,0.1-4.5c-0.6-2.9-2.5-5.4-5-6.8
	c-0.8-0.5-1.7-0.8-2.6-1.1c0,0,0.1,0,0,0c-6.3-1.4-18.7-4.2-18.7-4.2s10.7-5.6,17.8-4.5c7,1.1,12.3,4.5,14.1,6.7
	c1.8,2.2,3.2,4.8,3.9,7.7c0.6,3,0.6,6-0.1,9c-0.7,3-2.2,5.8-4.3,8.1c-4.1,4.7-10.8,7.1-16.9,6.1c-4.5-0.6-8.9-2.3-13.1-4
	c-10.5-4.2-20.4-9.9-31.2-13.6C72,26.9,60.4,24.7,60.4,24.7z"/>
<g>
	<path opacity="0.1" enable-background="new    " d="M70.2,149.3c0.4-17.5,16.4-21.4,30.9-21.1c13,0.3,31.8,3.6,30.9,21.1
		c-0.8,16-13.9,31.2-30.9,30.9C84.6,179.8,69.8,166.3,70.2,149.3z"/>
	<g>
		<defs>
			<path id="SVGID_1_" d="M76.4,151c-0.6-13.7,14-17.5,24.7-17.5c10.7,0,24.7,4.2,24.7,17.5c0,13.2-12.2,23.2-24.7,23.7
				C87.7,175.3,76.9,163.7,76.4,151z"/>
		</defs>
		<use xlink:href="#SVGID_1_"  overflow="visible" fill="#534741"/>
		<clipPath id="SVGID_2_">
			<use xlink:href="#SVGID_1_"  overflow="visible"/>
		</clipPath>
		<g clip-path="url(#SVGID_2_)">
			<path fill="#D33C3C" d="M74.8,166.3c0.8-6.5,3.7-13,11.3-13.2c6.2,0,13.1,1.1,17.7,4.9c3.7,3.1,5,7.3,4.6,11.5
				c1.5-4.9,1-9.1-0.8-11.3c-1.8-2.2-5.1-3.5-5.1-3.5s3.5-1.2,10.2-1.5c5.7-0.3,12.4,1.9,15.2,6.1c-5.2,10.2-15.1,17.3-26.7,17.1
				C91.8,176.3,81.1,173.9,74.8,166.3z"/>
			<g>
				<g>
					<g>
						<path fill="#FFFFFF" d="M100.5,140.1c-0.6,2.2-1.8,3.9-4.6,4c-2.7,0.1-8.5-1-11.3-2.1c-2.8-1.1-4.7-3.4-4.6-5.8
							c0-3.2,0.2-4.8,0.2-7.7c6.7,3,13.9,4.5,21,4.4C101.2,135.8,101.2,137.3,100.5,140.1z"/>
						<path fill="#FFFFFF" d="M122.9,136.4c-0.1,2.5-1.4,4.7-4.3,5.8s-10.4,2.7-12.4,2.5c-2.1-0.2-4.6-2.1-4.3-4.4
							c0.4-2.9,0.5-4.9,0.5-7.8c7,0.2,14.1-1.1,20.7-3.8C123.1,131.7,123.1,133.2,122.9,136.4z"/>
					</g>
				</g>
			</g>
		</g>
	</g>
</g>
<path opacity="0.1" enable-background="new    " d="M190.9-21.9c15.1,3.9,25.5,19.5,25.5,19.5s-15.7-7.5-26.8-11.1
	c-11.1-3.6-29.7-6.2-29.7-6.2S175.8-25.8,190.9-21.9z"/>
<path opacity="0.1" enable-background="new    " d="M40.3-28.7c0,0-26.9-1-43.5,1.4s-40.6,9.1-40.6,9.1S-25.3-37.6-3-39.3
	C19.3-41.1,40.3-28.7,40.3-28.7z"/>
<circle opacity="0.1" fill="#E0B8D0" cx="-39.8" cy="63.9" r="51.7"/>
</svg>
